ISO-10303-21;
HEADER;
FILE_DESCRIPTION(('FreeCAD Model'),'2;1');
FILE_NAME('Open CASCADE Shape Model','2026-08-08T22:49:38',('Author'),(
    ''),'Open CASCADE STEP processor 7.8','FreeCAD','Unknown');
FILE_SCHEMA(('AUTOMOTIVE_DESIGN { 1 0 10303 214 1 1 1 1 }'));
ENDSEC;
DATA;
#1 = APPLICATION_PROTOCOL_DEFINITION('international standard',
  'automotive_design',2000,#2);
#2 = APPLICATION_CONTEXT(
  'core data for automotive mechanical design processes');
#3 = SHAPE_DEFINITION_REPRESENTATION(#4,#10);
#4 = PRODUCT_DEFINITION_SHAPE('','',#5);
#5 = PRODUCT_DEFINITION('design','',#6,#9);
#6 = PRODUCT_DEFINITION_FORMATION('','',#7);
#7 = PRODUCT('micropad','micropad','',(#8));
#8 = PRODUCT_CONTEXT('',#2,'mechanical');
#9 = PRODUCT_DEFINITION_CONTEXT('part definition',#2,'design');
#10 = SHAPE_REPRESENTATION('',(#11,#15,#19),#23);
#11 = AXIS2_PLACEMENT_3D('',#12,#13,#14);
#12 = CARTESIAN_POINT('',(0.,0.,0.));
#13 = DIRECTION('',(0.,0.,1.));
#14 = DIRECTION('',(1.,0.,-0.));
#15 = AXIS2_PLACEMENT_3D('',#16,#17,#18);
#16 = CARTESIAN_POINT('',(0.,0.,0.));
#17 = DIRECTION('',(0.,0.,1.));
#18 = DIRECTION('',(1.,0.,0.));
#19 = AXIS2_PLACEMENT_3D('',#20,#21,#22);
#20 = CARTESIAN_POINT('',(0.,0.,-14.));
#21 = DIRECTION('',(0.,0.,1.));
#22 = DIRECTION('',(1.,0.,0.));
#23 = ( GEOMETRIC_REPRESENTATION_CONTEXT(3) 
GLOBAL_UNCERTAINTY_ASSIGNED_CONTEXT((#27)) GLOBAL_UNIT_ASSIGNED_CONTEXT(
(#24,#25,#26)) REPRESENTATION_CONTEXT('Context #1',
  '3D Context with UNIT and UNCERTAINTY') );
#24 = ( LENGTH_UNIT() NAMED_UNIT(*) SI_UNIT(.MILLI.,.METRE.) );
#25 = ( NAMED_UNIT(*) PLANE_ANGLE_UNIT() SI_UNIT($,.RADIAN.) );
#26 = ( NAMED_UNIT(*) SI_UNIT($,.STERADIAN.) SOLID_ANGLE_UNIT() );
#27 = UNCERTAINTY_MEASURE_WITH_UNIT(LENGTH_MEASURE(5.E-07),#24,
  'distance_accuracy_value','confusion accuracy');
#28 = PRODUCT_RELATED_PRODUCT_CATEGORY('part',$,(#7));
#29 = SHAPE_DEFINITION_REPRESENTATION(#30,#36);
#30 = PRODUCT_DEFINITION_SHAPE('','',#31);
#31 = PRODUCT_DEFINITION('design','',#32,#35);
#32 = PRODUCT_DEFINITION_FORMATION('','',#33);
#33 = PRODUCT('mainplate','mainplate','',(#34));
#34 = PRODUCT_CONTEXT('',#2,'mechanical');
#35 = PRODUCT_DEFINITION_CONTEXT('part definition',#2,'design');
#36 = ADVANCED_BREP_SHAPE_REPRESENTATION('',(#11,#37),#743);
#37 = MANIFOLD_SOLID_BREP('',#38);
#38 = CLOSED_SHELL('',(#39,#223,#255,#302,#326,#373,#397,#421,#438,#455,
    #480,#504,#529,#553,#578,#595,#619,#643,#667,#691,#719,#731));
#39 = ADVANCED_FACE('',(#40,#174,#185,#196,#207),#218,.F.);
#40 = FACE_BOUND('',#41,.F.);
#41 = EDGE_LOOP('',(#42,#53,#61,#70,#78,#87,#95,#104,#112,#120,#128,#136
    ,#144,#152,#160,#168));
#42 = ORIENTED_EDGE('',*,*,#43,.T.);
#43 = EDGE_CURVE('',#44,#46,#48,.T.);
#44 = VERTEX_POINT('',#45);
#45 = CARTESIAN_POINT('',(-19.4,51.4,-10.));
#46 = VERTEX_POINT('',#47);
#47 = CARTESIAN_POINT('',(-21.4,49.4,-10.));
#48 = CIRCLE('',#49,2.);
#49 = AXIS2_PLACEMENT_3D('',#50,#51,#52);
#50 = CARTESIAN_POINT('',(-19.4,49.4,-10.));
#51 = DIRECTION('',(0.,-0.,1.));
#52 = DIRECTION('',(0.,1.,0.));
#53 = ORIENTED_EDGE('',*,*,#54,.T.);
#54 = EDGE_CURVE('',#46,#55,#57,.T.);
#55 = VERTEX_POINT('',#56);
#56 = CARTESIAN_POINT('',(-21.4,-42.4,-10.));
#57 = LINE('',#58,#59);
#58 = CARTESIAN_POINT('',(-21.4,51.4,-10.));
#59 = VECTOR('',#60,1.);
#60 = DIRECTION('',(0.,-1.,0.));
#61 = ORIENTED_EDGE('',*,*,#62,.T.);
#62 = EDGE_CURVE('',#55,#63,#65,.T.);
#63 = VERTEX_POINT('',#64);
#64 = CARTESIAN_POINT('',(-19.4,-44.4,-10.));
#65 = CIRCLE('',#66,2.);
#66 = AXIS2_PLACEMENT_3D('',#67,#68,#69);
#67 = CARTESIAN_POINT('',(-19.4,-42.4,-10.));
#68 = DIRECTION('',(0.,-0.,1.));
#69 = DIRECTION('',(0.,1.,0.));
#70 = ORIENTED_EDGE('',*,*,#71,.T.);
#71 = EDGE_CURVE('',#63,#72,#74,.T.);
#72 = VERTEX_POINT('',#73);
#73 = CARTESIAN_POINT('',(19.4,-44.4,-10.));
#74 = LINE('',#75,#76);
#75 = CARTESIAN_POINT('',(-21.4,-44.4,-10.));
#76 = VECTOR('',#77,1.);
#77 = DIRECTION('',(1.,0.,0.));
#78 = ORIENTED_EDGE('',*,*,#79,.F.);
#79 = EDGE_CURVE('',#80,#72,#82,.T.);
#80 = VERTEX_POINT('',#81);
#81 = CARTESIAN_POINT('',(21.4,-42.4,-10.));
#82 = CIRCLE('',#83,2.);
#83 = AXIS2_PLACEMENT_3D('',#84,#85,#86);
#84 = CARTESIAN_POINT('',(19.4,-42.4,-10.));
#85 = DIRECTION('',(-0.,-0.,-1.));
#86 = DIRECTION('',(0.,-1.,0.));
#87 = ORIENTED_EDGE('',*,*,#88,.T.);
#88 = EDGE_CURVE('',#80,#89,#91,.T.);
#89 = VERTEX_POINT('',#90);
#90 = CARTESIAN_POINT('',(21.4,49.4,-10.));
#91 = LINE('',#92,#93);
#92 = CARTESIAN_POINT('',(21.4,-44.4,-10.));
#93 = VECTOR('',#94,1.);
#94 = DIRECTION('',(0.,1.,0.));
#95 = ORIENTED_EDGE('',*,*,#96,.F.);
#96 = EDGE_CURVE('',#97,#89,#99,.T.);
#97 = VERTEX_POINT('',#98);
#98 = CARTESIAN_POINT('',(19.4,51.4,-10.));
#99 = CIRCLE('',#100,2.);
#100 = AXIS2_PLACEMENT_3D('',#101,#102,#103);
#101 = CARTESIAN_POINT('',(19.4,49.4,-10.));
#102 = DIRECTION('',(-0.,-0.,-1.));
#103 = DIRECTION('',(0.,-1.,0.));
#104 = ORIENTED_EDGE('',*,*,#105,.T.);
#105 = EDGE_CURVE('',#97,#106,#108,.T.);
#106 = VERTEX_POINT('',#107);
#107 = CARTESIAN_POINT('',(7.4,51.4,-10.));
#108 = LINE('',#109,#110);
#109 = CARTESIAN_POINT('',(21.4,51.4,-10.));
#110 = VECTOR('',#111,1.);
#111 = DIRECTION('',(-1.,0.,0.));
#112 = ORIENTED_EDGE('',*,*,#113,.T.);
#113 = EDGE_CURVE('',#106,#114,#116,.T.);
#114 = VERTEX_POINT('',#115);
#115 = CARTESIAN_POINT('',(7.4,41.4,-10.));
#116 = LINE('',#117,#118);
#117 = CARTESIAN_POINT('',(7.4,51.4,-10.));
#118 = VECTOR('',#119,1.);
#119 = DIRECTION('',(0.,-1.,2.2E-16));
#120 = ORIENTED_EDGE('',*,*,#121,.F.);
#121 = EDGE_CURVE('',#122,#114,#124,.T.);
#122 = VERTEX_POINT('',#123);
#123 = CARTESIAN_POINT('',(11.4,41.4,-10.));
#124 = LINE('',#125,#126);
#125 = CARTESIAN_POINT('',(11.4,41.4,-10.));
#126 = VECTOR('',#127,1.);
#127 = DIRECTION('',(-1.,0.,0.));
#128 = ORIENTED_EDGE('',*,*,#129,.F.);
#129 = EDGE_CURVE('',#130,#122,#132,.T.);
#130 = VERTEX_POINT('',#131);
#131 = CARTESIAN_POINT('',(11.4,-34.4,-10.));
#132 = LINE('',#133,#134);
#133 = CARTESIAN_POINT('',(11.4,-34.4,-10.));
#134 = VECTOR('',#135,1.);
#135 = DIRECTION('',(0.,1.,0.));
#136 = ORIENTED_EDGE('',*,*,#137,.F.);
#137 = EDGE_CURVE('',#138,#130,#140,.T.);
#138 = VERTEX_POINT('',#139);
#139 = CARTESIAN_POINT('',(-11.4,-34.4,-10.));
#140 = LINE('',#141,#142);
#141 = CARTESIAN_POINT('',(-11.4,-34.4,-10.));
#142 = VECTOR('',#143,1.);
#143 = DIRECTION('',(1.,0.,0.));
#144 = ORIENTED_EDGE('',*,*,#145,.F.);
#145 = EDGE_CURVE('',#146,#138,#148,.T.);
#146 = VERTEX_POINT('',#147);
#147 = CARTESIAN_POINT('',(-11.4,41.4,-10.));
#148 = LINE('',#149,#150);
#149 = CARTESIAN_POINT('',(-11.4,41.4,-10.));
#150 = VECTOR('',#151,1.);
#151 = DIRECTION('',(0.,-1.,0.));
#152 = ORIENTED_EDGE('',*,*,#153,.F.);
#153 = EDGE_CURVE('',#154,#146,#156,.T.);
#154 = VERTEX_POINT('',#155);
#155 = CARTESIAN_POINT('',(-7.4,41.4,-10.));
#156 = LINE('',#157,#158);
#157 = CARTESIAN_POINT('',(11.4,41.4,-10.));
#158 = VECTOR('',#159,1.);
#159 = DIRECTION('',(-1.,0.,0.));
#160 = ORIENTED_EDGE('',*,*,#161,.F.);
#161 = EDGE_CURVE('',#162,#154,#164,.T.);
#162 = VERTEX_POINT('',#163);
#163 = CARTESIAN_POINT('',(-7.4,51.4,-10.));
#164 = LINE('',#165,#166);
#165 = CARTESIAN_POINT('',(-7.4,51.4,-10.));
#166 = VECTOR('',#167,1.);
#167 = DIRECTION('',(0.,-1.,2.2E-16));
#168 = ORIENTED_EDGE('',*,*,#169,.T.);
#169 = EDGE_CURVE('',#162,#44,#170,.T.);
#170 = LINE('',#171,#172);
#171 = CARTESIAN_POINT('',(21.4,51.4,-10.));
#172 = VECTOR('',#173,1.);
#173 = DIRECTION('',(-1.,0.,0.));
#174 = FACE_BOUND('',#175,.F.);
#175 = EDGE_LOOP('',(#176));
#176 = ORIENTED_EDGE('',*,*,#177,.F.);
#177 = EDGE_CURVE('',#178,#178,#180,.T.);
#178 = VERTEX_POINT('',#179);
#179 = CARTESIAN_POINT('',(-14.95,-39.4,-10.));
#180 = CIRCLE('',#181,1.45);
#181 = AXIS2_PLACEMENT_3D('',#182,#183,#184);
#182 = CARTESIAN_POINT('',(-16.4,-39.4,-10.));
#183 = DIRECTION('',(0.,0.,1.));
#184 = DIRECTION('',(1.,0.,0.));
#185 = FACE_BOUND('',#186,.F.);
#186 = EDGE_LOOP('',(#187));
#187 = ORIENTED_EDGE('',*,*,#188,.F.);
#188 = EDGE_CURVE('',#189,#189,#191,.T.);
#189 = VERTEX_POINT('',#190);
#190 = CARTESIAN_POINT('',(17.85,-39.4,-10.));
#191 = CIRCLE('',#192,1.45);
#192 = AXIS2_PLACEMENT_3D('',#193,#194,#195);
#193 = CARTESIAN_POINT('',(16.4,-39.4,-10.));
#194 = DIRECTION('',(0.,0.,1.));
#195 = DIRECTION('',(1.,0.,0.));
#196 = FACE_BOUND('',#197,.F.);
#197 = EDGE_LOOP('',(#198));
#198 = ORIENTED_EDGE('',*,*,#199,.F.);
#199 = EDGE_CURVE('',#200,#200,#202,.T.);
#200 = VERTEX_POINT('',#201);
#201 = CARTESIAN_POINT('',(-14.95,46.4,-10.));
#202 = CIRCLE('',#203,1.45);
#203 = AXIS2_PLACEMENT_3D('',#204,#205,#206);
#204 = CARTESIAN_POINT('',(-16.4,46.4,-10.));
#205 = DIRECTION('',(0.,0.,1.));
#206 = DIRECTION('',(1.,0.,0.));
#207 = FACE_BOUND('',#208,.F.);
#208 = EDGE_LOOP('',(#209));
#209 = ORIENTED_EDGE('',*,*,#210,.F.);
#210 = EDGE_CURVE('',#211,#211,#213,.T.);
#211 = VERTEX_POINT('',#212);
#212 = CARTESIAN_POINT('',(17.85,46.4,-10.));
#213 = CIRCLE('',#214,1.45);
#214 = AXIS2_PLACEMENT_3D('',#215,#216,#217);
#215 = CARTESIAN_POINT('',(16.4,46.4,-10.));
#216 = DIRECTION('',(0.,0.,1.));
#217 = DIRECTION('',(1.,0.,0.));
#218 = PLANE('',#219);
#219 = AXIS2_PLACEMENT_3D('',#220,#221,#222);
#220 = CARTESIAN_POINT('',(3.23E-15,3.5,-10.));
#221 = DIRECTION('',(0.,0.,1.));
#222 = DIRECTION('',(1.,0.,0.));
#223 = ADVANCED_FACE('',(#224),#250,.T.);
#224 = FACE_BOUND('',#225,.F.);
#225 = EDGE_LOOP('',(#226,#237,#243,#244));
#226 = ORIENTED_EDGE('',*,*,#227,.T.);
#227 = EDGE_CURVE('',#228,#230,#232,.T.);
#228 = VERTEX_POINT('',#229);
#229 = CARTESIAN_POINT('',(-19.4,51.4,3.));
#230 = VERTEX_POINT('',#231);
#231 = CARTESIAN_POINT('',(-21.4,49.4,3.));
#232 = CIRCLE('',#233,2.);
#233 = AXIS2_PLACEMENT_3D('',#234,#235,#236);
#234 = CARTESIAN_POINT('',(-19.4,49.4,3.));
#235 = DIRECTION('',(0.,-0.,1.));
#236 = DIRECTION('',(0.,1.,0.));
#237 = ORIENTED_EDGE('',*,*,#238,.T.);
#238 = EDGE_CURVE('',#230,#46,#239,.T.);
#239 = LINE('',#240,#241);
#240 = CARTESIAN_POINT('',(-21.4,49.4,3.));
#241 = VECTOR('',#242,1.);
#242 = DIRECTION('',(-0.,-0.,-1.));
#243 = ORIENTED_EDGE('',*,*,#43,.F.);
#244 = ORIENTED_EDGE('',*,*,#245,.F.);
#245 = EDGE_CURVE('',#228,#44,#246,.T.);
#246 = LINE('',#247,#248);
#247 = CARTESIAN_POINT('',(-19.4,51.4,3.));
#248 = VECTOR('',#249,1.);
#249 = DIRECTION('',(-0.,-0.,-1.));
#250 = CYLINDRICAL_SURFACE('',#251,2.);
#251 = AXIS2_PLACEMENT_3D('',#252,#253,#254);
#252 = CARTESIAN_POINT('',(-19.4,49.4,3.));
#253 = DIRECTION('',(-0.,-0.,-1.));
#254 = DIRECTION('',(0.,1.,0.));
#255 = ADVANCED_FACE('',(#256),#297,.T.);
#256 = FACE_BOUND('',#257,.T.);
#257 = EDGE_LOOP('',(#258,#266,#267,#275,#283,#289,#290,#291));
#258 = ORIENTED_EDGE('',*,*,#259,.F.);
#259 = EDGE_CURVE('',#97,#260,#262,.T.);
#260 = VERTEX_POINT('',#261);
#261 = CARTESIAN_POINT('',(19.4,51.4,3.));
#262 = LINE('',#263,#264);
#263 = CARTESIAN_POINT('',(19.4,51.4,-10.));
#264 = VECTOR('',#265,1.);
#265 = DIRECTION('',(0.,0.,1.));
#266 = ORIENTED_EDGE('',*,*,#105,.T.);
#267 = ORIENTED_EDGE('',*,*,#268,.F.);
#268 = EDGE_CURVE('',#269,#106,#271,.T.);
#269 = VERTEX_POINT('',#270);
#270 = CARTESIAN_POINT('',(7.4,51.4,-3.));
#271 = LINE('',#272,#273);
#272 = CARTESIAN_POINT('',(7.4,51.4,-3.));
#273 = VECTOR('',#274,1.);
#274 = DIRECTION('',(0.,0.,-1.));
#275 = ORIENTED_EDGE('',*,*,#276,.F.);
#276 = EDGE_CURVE('',#277,#269,#279,.T.);
#277 = VERTEX_POINT('',#278);
#278 = CARTESIAN_POINT('',(-7.4,51.4,-3.));
#279 = LINE('',#280,#281);
#280 = CARTESIAN_POINT('',(-7.4,51.4,-3.));
#281 = VECTOR('',#282,1.);
#282 = DIRECTION('',(1.,0.,0.));
#283 = ORIENTED_EDGE('',*,*,#284,.F.);
#284 = EDGE_CURVE('',#162,#277,#285,.T.);
#285 = LINE('',#286,#287);
#286 = CARTESIAN_POINT('',(-7.4,51.4,-10.));
#287 = VECTOR('',#288,1.);
#288 = DIRECTION('',(0.,0.,1.));
#289 = ORIENTED_EDGE('',*,*,#169,.T.);
#290 = ORIENTED_EDGE('',*,*,#245,.F.);
#291 = ORIENTED_EDGE('',*,*,#292,.F.);
#292 = EDGE_CURVE('',#260,#228,#293,.T.);
#293 = LINE('',#294,#295);
#294 = CARTESIAN_POINT('',(21.4,51.4,3.));
#295 = VECTOR('',#296,1.);
#296 = DIRECTION('',(-1.,0.,0.));
#297 = PLANE('',#298);
#298 = AXIS2_PLACEMENT_3D('',#299,#300,#301);
#299 = CARTESIAN_POINT('',(4.07E-15,51.4,-3.5));
#300 = DIRECTION('',(0.,1.,0.));
#301 = DIRECTION('',(0.,0.,1.));
#302 = ADVANCED_FACE('',(#303),#321,.F.);
#303 = FACE_BOUND('',#304,.F.);
#304 = EDGE_LOOP('',(#305,#306,#307,#315));
#305 = ORIENTED_EDGE('',*,*,#284,.F.);
#306 = ORIENTED_EDGE('',*,*,#161,.T.);
#307 = ORIENTED_EDGE('',*,*,#308,.F.);
#308 = EDGE_CURVE('',#309,#154,#311,.T.);
#309 = VERTEX_POINT('',#310);
#310 = CARTESIAN_POINT('',(-7.4,41.4,-3.));
#311 = LINE('',#312,#313);
#312 = CARTESIAN_POINT('',(-7.4,41.4,-5.));
#313 = VECTOR('',#314,1.);
#314 = DIRECTION('',(0.,0.,-1.));
#315 = ORIENTED_EDGE('',*,*,#316,.F.);
#316 = EDGE_CURVE('',#277,#309,#317,.T.);
#317 = LINE('',#318,#319);
#318 = CARTESIAN_POINT('',(-7.4,51.4,-3.));
#319 = VECTOR('',#320,1.);
#320 = DIRECTION('',(0.,-1.,2.2E-16));
#321 = PLANE('',#322);
#322 = AXIS2_PLACEMENT_3D('',#323,#324,#325);
#323 = CARTESIAN_POINT('',(-7.4,51.4,-10.));
#324 = DIRECTION('',(-1.,0.,0.));
#325 = DIRECTION('',(0.,2.2E-16,1.));
#326 = ADVANCED_FACE('',(#327),#368,.F.);
#327 = FACE_BOUND('',#328,.F.);
#328 = EDGE_LOOP('',(#329,#339,#345,#346,#354,#360,#361,#362));
#329 = ORIENTED_EDGE('',*,*,#330,.F.);
#330 = EDGE_CURVE('',#331,#333,#335,.T.);
#331 = VERTEX_POINT('',#332);
#332 = CARTESIAN_POINT('',(11.4,41.4,0.));
#333 = VERTEX_POINT('',#334);
#334 = CARTESIAN_POINT('',(-11.4,41.4,0.));
#335 = LINE('',#336,#337);
#336 = CARTESIAN_POINT('',(11.4,41.4,0.));
#337 = VECTOR('',#338,1.);
#338 = DIRECTION('',(-1.,0.,0.));
#339 = ORIENTED_EDGE('',*,*,#340,.T.);
#340 = EDGE_CURVE('',#331,#122,#341,.T.);
#341 = LINE('',#342,#343);
#342 = CARTESIAN_POINT('',(11.4,41.4,0.));
#343 = VECTOR('',#344,1.);
#344 = DIRECTION('',(-0.,-0.,-1.));
#345 = ORIENTED_EDGE('',*,*,#121,.T.);
#346 = ORIENTED_EDGE('',*,*,#347,.T.);
#347 = EDGE_CURVE('',#114,#348,#350,.T.);
#348 = VERTEX_POINT('',#349);
#349 = CARTESIAN_POINT('',(7.4,41.4,-3.));
#350 = LINE('',#351,#352);
#351 = CARTESIAN_POINT('',(7.4,41.4,-1.5));
#352 = VECTOR('',#353,1.);
#353 = DIRECTION('',(0.,0.,1.));
#354 = ORIENTED_EDGE('',*,*,#355,.T.);
#355 = EDGE_CURVE('',#348,#309,#356,.T.);
#356 = LINE('',#357,#358);
#357 = CARTESIAN_POINT('',(2.,41.4,-3.));
#358 = VECTOR('',#359,1.);
#359 = DIRECTION('',(-1.,0.,0.));
#360 = ORIENTED_EDGE('',*,*,#308,.T.);
#361 = ORIENTED_EDGE('',*,*,#153,.T.);
#362 = ORIENTED_EDGE('',*,*,#363,.F.);
#363 = EDGE_CURVE('',#333,#146,#364,.T.);
#364 = LINE('',#365,#366);
#365 = CARTESIAN_POINT('',(-11.4,41.4,0.));
#366 = VECTOR('',#367,1.);
#367 = DIRECTION('',(-0.,-0.,-1.));
#368 = PLANE('',#369);
#369 = AXIS2_PLACEMENT_3D('',#370,#371,#372);
#370 = CARTESIAN_POINT('',(11.4,41.4,0.));
#371 = DIRECTION('',(0.,1.,0.));
#372 = DIRECTION('',(-1.,0.,0.));
#373 = ADVANCED_FACE('',(#374),#392,.F.);
#374 = FACE_BOUND('',#375,.F.);
#375 = EDGE_LOOP('',(#376,#377,#378,#386));
#376 = ORIENTED_EDGE('',*,*,#363,.T.);
#377 = ORIENTED_EDGE('',*,*,#145,.T.);
#378 = ORIENTED_EDGE('',*,*,#379,.F.);
#379 = EDGE_CURVE('',#380,#138,#382,.T.);
#380 = VERTEX_POINT('',#381);
#381 = CARTESIAN_POINT('',(-11.4,-34.4,0.));
#382 = LINE('',#383,#384);
#383 = CARTESIAN_POINT('',(-11.4,-34.4,0.));
#384 = VECTOR('',#385,1.);
#385 = DIRECTION('',(-0.,-0.,-1.));
#386 = ORIENTED_EDGE('',*,*,#387,.F.);
#387 = EDGE_CURVE('',#333,#380,#388,.T.);
#388 = LINE('',#389,#390);
#389 = CARTESIAN_POINT('',(-11.4,41.4,0.));
#390 = VECTOR('',#391,1.);
#391 = DIRECTION('',(0.,-1.,0.));
#392 = PLANE('',#393);
#393 = AXIS2_PLACEMENT_3D('',#394,#395,#396);
#394 = CARTESIAN_POINT('',(-11.4,41.4,0.));
#395 = DIRECTION('',(-1.,0.,0.));
#396 = DIRECTION('',(0.,-1.,0.));
#397 = ADVANCED_FACE('',(#398),#416,.F.);
#398 = FACE_BOUND('',#399,.F.);
#399 = EDGE_LOOP('',(#400,#401,#402,#410));
#400 = ORIENTED_EDGE('',*,*,#379,.T.);
#401 = ORIENTED_EDGE('',*,*,#137,.T.);
#402 = ORIENTED_EDGE('',*,*,#403,.F.);
#403 = EDGE_CURVE('',#404,#130,#406,.T.);
#404 = VERTEX_POINT('',#405);
#405 = CARTESIAN_POINT('',(11.4,-34.4,0.));
#406 = LINE('',#407,#408);
#407 = CARTESIAN_POINT('',(11.4,-34.4,0.));
#408 = VECTOR('',#409,1.);
#409 = DIRECTION('',(-0.,-0.,-1.));
#410 = ORIENTED_EDGE('',*,*,#411,.F.);
#411 = EDGE_CURVE('',#380,#404,#412,.T.);
#412 = LINE('',#413,#414);
#413 = CARTESIAN_POINT('',(-11.4,-34.4,0.));
#414 = VECTOR('',#415,1.);
#415 = DIRECTION('',(1.,0.,0.));
#416 = PLANE('',#417);
#417 = AXIS2_PLACEMENT_3D('',#418,#419,#420);
#418 = CARTESIAN_POINT('',(-11.4,-34.4,0.));
#419 = DIRECTION('',(0.,-1.,0.));
#420 = DIRECTION('',(1.,0.,0.));
#421 = ADVANCED_FACE('',(#422),#433,.F.);
#422 = FACE_BOUND('',#423,.F.);
#423 = EDGE_LOOP('',(#424,#425,#426,#427));
#424 = ORIENTED_EDGE('',*,*,#403,.T.);
#425 = ORIENTED_EDGE('',*,*,#129,.T.);
#426 = ORIENTED_EDGE('',*,*,#340,.F.);
#427 = ORIENTED_EDGE('',*,*,#428,.F.);
#428 = EDGE_CURVE('',#404,#331,#429,.T.);
#429 = LINE('',#430,#431);
#430 = CARTESIAN_POINT('',(11.4,-34.4,0.));
#431 = VECTOR('',#432,1.);
#432 = DIRECTION('',(0.,1.,0.));
#433 = PLANE('',#434);
#434 = AXIS2_PLACEMENT_3D('',#435,#436,#437);
#435 = CARTESIAN_POINT('',(11.4,-34.4,0.));
#436 = DIRECTION('',(1.,0.,0.));
#437 = DIRECTION('',(0.,1.,0.));
#438 = ADVANCED_FACE('',(#439),#450,.F.);
#439 = FACE_BOUND('',#440,.F.);
#440 = EDGE_LOOP('',(#441,#442,#448,#449));
#441 = ORIENTED_EDGE('',*,*,#268,.F.);
#442 = ORIENTED_EDGE('',*,*,#443,.T.);
#443 = EDGE_CURVE('',#269,#348,#444,.T.);
#444 = LINE('',#445,#446);
#445 = CARTESIAN_POINT('',(7.4,51.4,-3.));
#446 = VECTOR('',#447,1.);
#447 = DIRECTION('',(0.,-1.,2.2E-16));
#448 = ORIENTED_EDGE('',*,*,#347,.F.);
#449 = ORIENTED_EDGE('',*,*,#113,.F.);
#450 = PLANE('',#451);
#451 = AXIS2_PLACEMENT_3D('',#452,#453,#454);
#452 = CARTESIAN_POINT('',(7.4,51.4,-3.));
#453 = DIRECTION('',(1.,0.,0.));
#454 = DIRECTION('',(0.,-2.2E-16,-1.));
#455 = ADVANCED_FACE('',(#456),#475,.T.);
#456 = FACE_BOUND('',#457,.F.);
#457 = EDGE_LOOP('',(#458,#459,#467,#474));
#458 = ORIENTED_EDGE('',*,*,#96,.T.);
#459 = ORIENTED_EDGE('',*,*,#460,.T.);
#460 = EDGE_CURVE('',#89,#461,#463,.T.);
#461 = VERTEX_POINT('',#462);
#462 = CARTESIAN_POINT('',(21.4,49.4,3.));
#463 = LINE('',#464,#465);
#464 = CARTESIAN_POINT('',(21.4,49.4,-10.));
#465 = VECTOR('',#466,1.);
#466 = DIRECTION('',(0.,0.,1.));
#467 = ORIENTED_EDGE('',*,*,#468,.F.);
#468 = EDGE_CURVE('',#260,#461,#469,.T.);
#469 = CIRCLE('',#470,2.);
#470 = AXIS2_PLACEMENT_3D('',#471,#472,#473);
#471 = CARTESIAN_POINT('',(19.4,49.4,3.));
#472 = DIRECTION('',(-0.,-0.,-1.));
#473 = DIRECTION('',(0.,-1.,0.));
#474 = ORIENTED_EDGE('',*,*,#259,.F.);
#475 = CYLINDRICAL_SURFACE('',#476,2.);
#476 = AXIS2_PLACEMENT_3D('',#477,#478,#479);
#477 = CARTESIAN_POINT('',(19.4,49.4,-10.));
#478 = DIRECTION('',(0.,0.,1.));
#479 = DIRECTION('',(0.,1.,0.));
#480 = ADVANCED_FACE('',(#481),#499,.T.);
#481 = FACE_BOUND('',#482,.T.);
#482 = EDGE_LOOP('',(#483,#484,#485,#493));
#483 = ORIENTED_EDGE('',*,*,#88,.T.);
#484 = ORIENTED_EDGE('',*,*,#460,.T.);
#485 = ORIENTED_EDGE('',*,*,#486,.F.);
#486 = EDGE_CURVE('',#487,#461,#489,.T.);
#487 = VERTEX_POINT('',#488);
#488 = CARTESIAN_POINT('',(21.4,-42.4,3.));
#489 = LINE('',#490,#491);
#490 = CARTESIAN_POINT('',(21.4,-44.4,3.));
#491 = VECTOR('',#492,1.);
#492 = DIRECTION('',(0.,1.,0.));
#493 = ORIENTED_EDGE('',*,*,#494,.F.);
#494 = EDGE_CURVE('',#80,#487,#495,.T.);
#495 = LINE('',#496,#497);
#496 = CARTESIAN_POINT('',(21.4,-42.4,-10.));
#497 = VECTOR('',#498,1.);
#498 = DIRECTION('',(0.,0.,1.));
#499 = PLANE('',#500);
#500 = AXIS2_PLACEMENT_3D('',#501,#502,#503);
#501 = CARTESIAN_POINT('',(21.4,3.5,-3.5));
#502 = DIRECTION('',(1.,0.,0.));
#503 = DIRECTION('',(0.,0.,1.));
#504 = ADVANCED_FACE('',(#505),#524,.T.);
#505 = FACE_BOUND('',#506,.F.);
#506 = EDGE_LOOP('',(#507,#508,#516,#523));
#507 = ORIENTED_EDGE('',*,*,#79,.T.);
#508 = ORIENTED_EDGE('',*,*,#509,.T.);
#509 = EDGE_CURVE('',#72,#510,#512,.T.);
#510 = VERTEX_POINT('',#511);
#511 = CARTESIAN_POINT('',(19.4,-44.4,3.));
#512 = LINE('',#513,#514);
#513 = CARTESIAN_POINT('',(19.4,-44.4,-10.));
#514 = VECTOR('',#515,1.);
#515 = DIRECTION('',(0.,0.,1.));
#516 = ORIENTED_EDGE('',*,*,#517,.F.);
#517 = EDGE_CURVE('',#487,#510,#518,.T.);
#518 = CIRCLE('',#519,2.);
#519 = AXIS2_PLACEMENT_3D('',#520,#521,#522);
#520 = CARTESIAN_POINT('',(19.4,-42.4,3.));
#521 = DIRECTION('',(-0.,-0.,-1.));
#522 = DIRECTION('',(0.,-1.,0.));
#523 = ORIENTED_EDGE('',*,*,#494,.F.);
#524 = CYLINDRICAL_SURFACE('',#525,2.);
#525 = AXIS2_PLACEMENT_3D('',#526,#527,#528);
#526 = CARTESIAN_POINT('',(19.4,-42.4,-10.));
#527 = DIRECTION('',(0.,0.,1.));
#528 = DIRECTION('',(1.,0.,0.));
#529 = ADVANCED_FACE('',(#530),#548,.T.);
#530 = FACE_BOUND('',#531,.T.);
#531 = EDGE_LOOP('',(#532,#533,#534,#542));
#532 = ORIENTED_EDGE('',*,*,#71,.T.);
#533 = ORIENTED_EDGE('',*,*,#509,.T.);
#534 = ORIENTED_EDGE('',*,*,#535,.F.);
#535 = EDGE_CURVE('',#536,#510,#538,.T.);
#536 = VERTEX_POINT('',#537);
#537 = CARTESIAN_POINT('',(-19.4,-44.4,3.));
#538 = LINE('',#539,#540);
#539 = CARTESIAN_POINT('',(-21.4,-44.4,3.));
#540 = VECTOR('',#541,1.);
#541 = DIRECTION('',(1.,0.,0.));
#542 = ORIENTED_EDGE('',*,*,#543,.T.);
#543 = EDGE_CURVE('',#536,#63,#544,.T.);
#544 = LINE('',#545,#546);
#545 = CARTESIAN_POINT('',(-19.4,-44.4,3.));
#546 = VECTOR('',#547,1.);
#547 = DIRECTION('',(-0.,-0.,-1.));
#548 = PLANE('',#549);
#549 = AXIS2_PLACEMENT_3D('',#550,#551,#552);
#550 = CARTESIAN_POINT('',(3.06E-15,-44.4,-3.5));
#551 = DIRECTION('',(-0.,-1.,-0.));
#552 = DIRECTION('',(0.,0.,-1.));
#553 = ADVANCED_FACE('',(#554),#573,.T.);
#554 = FACE_BOUND('',#555,.F.);
#555 = EDGE_LOOP('',(#556,#565,#566,#567));
#556 = ORIENTED_EDGE('',*,*,#557,.T.);
#557 = EDGE_CURVE('',#558,#536,#560,.T.);
#558 = VERTEX_POINT('',#559);
#559 = CARTESIAN_POINT('',(-21.4,-42.4,3.));
#560 = CIRCLE('',#561,2.);
#561 = AXIS2_PLACEMENT_3D('',#562,#563,#564);
#562 = CARTESIAN_POINT('',(-19.4,-42.4,3.));
#563 = DIRECTION('',(0.,-0.,1.));
#564 = DIRECTION('',(0.,1.,0.));
#565 = ORIENTED_EDGE('',*,*,#543,.T.);
#566 = ORIENTED_EDGE('',*,*,#62,.F.);
#567 = ORIENTED_EDGE('',*,*,#568,.F.);
#568 = EDGE_CURVE('',#558,#55,#569,.T.);
#569 = LINE('',#570,#571);
#570 = CARTESIAN_POINT('',(-21.4,-42.4,3.));
#571 = VECTOR('',#572,1.);
#572 = DIRECTION('',(-0.,-0.,-1.));
#573 = CYLINDRICAL_SURFACE('',#574,2.);
#574 = AXIS2_PLACEMENT_3D('',#575,#576,#577);
#575 = CARTESIAN_POINT('',(-19.4,-42.4,3.));
#576 = DIRECTION('',(-0.,-0.,-1.));
#577 = DIRECTION('',(-1.,0.,0.));
#578 = ADVANCED_FACE('',(#579),#590,.T.);
#579 = FACE_BOUND('',#580,.T.);
#580 = EDGE_LOOP('',(#581,#582,#583,#589));
#581 = ORIENTED_EDGE('',*,*,#54,.T.);
#582 = ORIENTED_EDGE('',*,*,#568,.F.);
#583 = ORIENTED_EDGE('',*,*,#584,.F.);
#584 = EDGE_CURVE('',#230,#558,#585,.T.);
#585 = LINE('',#586,#587);
#586 = CARTESIAN_POINT('',(-21.4,51.4,3.));
#587 = VECTOR('',#588,1.);
#588 = DIRECTION('',(0.,-1.,0.));
#589 = ORIENTED_EDGE('',*,*,#238,.T.);
#590 = PLANE('',#591);
#591 = AXIS2_PLACEMENT_3D('',#592,#593,#594);
#592 = CARTESIAN_POINT('',(-21.4,3.5,-3.5));
#593 = DIRECTION('',(-1.,-0.,-0.));
#594 = DIRECTION('',(0.,0.,-1.));
#595 = ADVANCED_FACE('',(#596),#614,.F.);
#596 = FACE_BOUND('',#597,.T.);
#597 = EDGE_LOOP('',(#598,#599,#606,#613));
#598 = ORIENTED_EDGE('',*,*,#177,.F.);
#599 = ORIENTED_EDGE('',*,*,#600,.F.);
#600 = EDGE_CURVE('',#601,#178,#603,.T.);
#601 = VERTEX_POINT('',#602);
#602 = CARTESIAN_POINT('',(-14.95,-39.4,3.));
#603 = B_SPLINE_CURVE_WITH_KNOTS('',1,(#604,#605),.UNSPECIFIED.,.F.,.F.,
  (2,2),(-3.,10.),.PIECEWISE_BEZIER_KNOTS.);
#604 = CARTESIAN_POINT('',(-14.95,-39.4,3.));
#605 = CARTESIAN_POINT('',(-14.95,-39.4,-10.));
#606 = ORIENTED_EDGE('',*,*,#607,.T.);
#607 = EDGE_CURVE('',#601,#601,#608,.T.);
#608 = CIRCLE('',#609,1.45);
#609 = AXIS2_PLACEMENT_3D('',#610,#611,#612);
#610 = CARTESIAN_POINT('',(-16.4,-39.4,3.));
#611 = DIRECTION('',(0.,0.,1.));
#612 = DIRECTION('',(1.,0.,0.));
#613 = ORIENTED_EDGE('',*,*,#600,.T.);
#614 = CYLINDRICAL_SURFACE('',#615,1.45);
#615 = AXIS2_PLACEMENT_3D('',#616,#617,#618);
#616 = CARTESIAN_POINT('',(-16.4,-39.4,0.));
#617 = DIRECTION('',(-0.,-0.,-1.));
#618 = DIRECTION('',(1.,0.,0.));
#619 = ADVANCED_FACE('',(#620),#638,.F.);
#620 = FACE_BOUND('',#621,.T.);
#621 = EDGE_LOOP('',(#622,#623,#630,#637));
#622 = ORIENTED_EDGE('',*,*,#188,.F.);
#623 = ORIENTED_EDGE('',*,*,#624,.F.);
#624 = EDGE_CURVE('',#625,#189,#627,.T.);
#625 = VERTEX_POINT('',#626);
#626 = CARTESIAN_POINT('',(17.85,-39.4,3.));
#627 = B_SPLINE_CURVE_WITH_KNOTS('',1,(#628,#629),.UNSPECIFIED.,.F.,.F.,
  (2,2),(-3.,10.),.PIECEWISE_BEZIER_KNOTS.);
#628 = CARTESIAN_POINT('',(17.85,-39.4,3.));
#629 = CARTESIAN_POINT('',(17.85,-39.4,-10.));
#630 = ORIENTED_EDGE('',*,*,#631,.T.);
#631 = EDGE_CURVE('',#625,#625,#632,.T.);
#632 = CIRCLE('',#633,1.45);
#633 = AXIS2_PLACEMENT_3D('',#634,#635,#636);
#634 = CARTESIAN_POINT('',(16.4,-39.4,3.));
#635 = DIRECTION('',(0.,0.,1.));
#636 = DIRECTION('',(1.,0.,0.));
#637 = ORIENTED_EDGE('',*,*,#624,.T.);
#638 = CYLINDRICAL_SURFACE('',#639,1.45);
#639 = AXIS2_PLACEMENT_3D('',#640,#641,#642);
#640 = CARTESIAN_POINT('',(16.4,-39.4,0.));
#641 = DIRECTION('',(-0.,-0.,-1.));
#642 = DIRECTION('',(1.,0.,0.));
#643 = ADVANCED_FACE('',(#644),#662,.F.);
#644 = FACE_BOUND('',#645,.T.);
#645 = EDGE_LOOP('',(#646,#647,#654,#661));
#646 = ORIENTED_EDGE('',*,*,#199,.F.);
#647 = ORIENTED_EDGE('',*,*,#648,.F.);
#648 = EDGE_CURVE('',#649,#200,#651,.T.);
#649 = VERTEX_POINT('',#650);
#650 = CARTESIAN_POINT('',(-14.95,46.4,3.));
#651 = B_SPLINE_CURVE_WITH_KNOTS('',1,(#652,#653),.UNSPECIFIED.,.F.,.F.,
  (2,2),(-3.,10.),.PIECEWISE_BEZIER_KNOTS.);
#652 = CARTESIAN_POINT('',(-14.95,46.4,3.));
#653 = CARTESIAN_POINT('',(-14.95,46.4,-10.));
#654 = ORIENTED_EDGE('',*,*,#655,.T.);
#655 = EDGE_CURVE('',#649,#649,#656,.T.);
#656 = CIRCLE('',#657,1.45);
#657 = AXIS2_PLACEMENT_3D('',#658,#659,#660);
#658 = CARTESIAN_POINT('',(-16.4,46.4,3.));
#659 = DIRECTION('',(0.,0.,1.));
#660 = DIRECTION('',(1.,0.,0.));
#661 = ORIENTED_EDGE('',*,*,#648,.T.);
#662 = CYLINDRICAL_SURFACE('',#663,1.45);
#663 = AXIS2_PLACEMENT_3D('',#664,#665,#666);
#664 = CARTESIAN_POINT('',(-16.4,46.4,0.));
#665 = DIRECTION('',(-0.,-0.,-1.));
#666 = DIRECTION('',(1.,0.,0.));
#667 = ADVANCED_FACE('',(#668),#686,.F.);
#668 = FACE_BOUND('',#669,.T.);
#669 = EDGE_LOOP('',(#670,#671,#678,#685));
#670 = ORIENTED_EDGE('',*,*,#210,.F.);
#671 = ORIENTED_EDGE('',*,*,#672,.F.);
#672 = EDGE_CURVE('',#673,#211,#675,.T.);
#673 = VERTEX_POINT('',#674);
#674 = CARTESIAN_POINT('',(17.85,46.4,3.));
#675 = B_SPLINE_CURVE_WITH_KNOTS('',1,(#676,#677),.UNSPECIFIED.,.F.,.F.,
  (2,2),(-3.,10.),.PIECEWISE_BEZIER_KNOTS.);
#676 = CARTESIAN_POINT('',(17.85,46.4,3.));
#677 = CARTESIAN_POINT('',(17.85,46.4,-10.));
#678 = ORIENTED_EDGE('',*,*,#679,.T.);
#679 = EDGE_CURVE('',#673,#673,#680,.T.);
#680 = CIRCLE('',#681,1.45);
#681 = AXIS2_PLACEMENT_3D('',#682,#683,#684);
#682 = CARTESIAN_POINT('',(16.4,46.4,3.));
#683 = DIRECTION('',(0.,0.,1.));
#684 = DIRECTION('',(1.,0.,0.));
#685 = ORIENTED_EDGE('',*,*,#672,.T.);
#686 = CYLINDRICAL_SURFACE('',#687,1.45);
#687 = AXIS2_PLACEMENT_3D('',#688,#689,#690);
#688 = CARTESIAN_POINT('',(16.4,46.4,0.));
#689 = DIRECTION('',(-0.,-0.,-1.));
#690 = DIRECTION('',(1.,0.,0.));
#691 = ADVANCED_FACE('',(#692,#702,#705,#708,#711),#714,.T.);
#692 = FACE_BOUND('',#693,.T.);
#693 = EDGE_LOOP('',(#694,#695,#696,#697,#698,#699,#700,#701));
#694 = ORIENTED_EDGE('',*,*,#292,.T.);
#695 = ORIENTED_EDGE('',*,*,#227,.T.);
#696 = ORIENTED_EDGE('',*,*,#584,.T.);
#697 = ORIENTED_EDGE('',*,*,#557,.T.);
#698 = ORIENTED_EDGE('',*,*,#535,.T.);
#699 = ORIENTED_EDGE('',*,*,#517,.F.);
#700 = ORIENTED_EDGE('',*,*,#486,.T.);
#701 = ORIENTED_EDGE('',*,*,#468,.F.);
#702 = FACE_BOUND('',#703,.T.);
#703 = EDGE_LOOP('',(#704));
#704 = ORIENTED_EDGE('',*,*,#607,.F.);
#705 = FACE_BOUND('',#706,.T.);
#706 = EDGE_LOOP('',(#707));
#707 = ORIENTED_EDGE('',*,*,#631,.F.);
#708 = FACE_BOUND('',#709,.T.);
#709 = EDGE_LOOP('',(#710));
#710 = ORIENTED_EDGE('',*,*,#679,.F.);
#711 = FACE_BOUND('',#712,.T.);
#712 = EDGE_LOOP('',(#713));
#713 = ORIENTED_EDGE('',*,*,#655,.F.);
#714 = PLANE('',#715);
#715 = AXIS2_PLACEMENT_3D('',#716,#717,#718);
#716 = CARTESIAN_POINT('',(4.92E-15,3.5,3.));
#717 = DIRECTION('',(0.,0.,1.));
#718 = DIRECTION('',(1.,0.,0.));
#719 = ADVANCED_FACE('',(#720),#726,.F.);
#720 = FACE_BOUND('',#721,.F.);
#721 = EDGE_LOOP('',(#722,#723,#724,#725));
#722 = ORIENTED_EDGE('',*,*,#276,.F.);
#723 = ORIENTED_EDGE('',*,*,#316,.T.);
#724 = ORIENTED_EDGE('',*,*,#355,.F.);
#725 = ORIENTED_EDGE('',*,*,#443,.F.);
#726 = PLANE('',#727);
#727 = AXIS2_PLACEMENT_3D('',#728,#729,#730);
#728 = CARTESIAN_POINT('',(-7.4,51.4,-3.));
#729 = DIRECTION('',(0.,2.2E-16,1.));
#730 = DIRECTION('',(1.,0.,-0.));
#731 = ADVANCED_FACE('',(#732),#738,.T.);
#732 = FACE_BOUND('',#733,.T.);
#733 = EDGE_LOOP('',(#734,#735,#736,#737));
#734 = ORIENTED_EDGE('',*,*,#387,.F.);
#735 = ORIENTED_EDGE('',*,*,#330,.F.);
#736 = ORIENTED_EDGE('',*,*,#428,.F.);
#737 = ORIENTED_EDGE('',*,*,#411,.F.);
#738 = PLANE('',#739);
#739 = AXIS2_PLACEMENT_3D('',#740,#741,#742);
#740 = CARTESIAN_POINT('',(4.92E-15,3.5,0.));
#741 = DIRECTION('',(-0.,-0.,-1.));
#742 = DIRECTION('',(-1.,0.,0.));
#743 = ( GEOMETRIC_REPRESENTATION_CONTEXT(3) 
GLOBAL_UNCERTAINTY_ASSIGNED_CONTEXT((#747)) GLOBAL_UNIT_ASSIGNED_CONTEXT
((#744,#745,#746)) REPRESENTATION_CONTEXT('Context #1',
  '3D Context with UNIT and UNCERTAINTY') );
#744 = ( LENGTH_UNIT() NAMED_UNIT(*) SI_UNIT(.MILLI.,.METRE.) );
#745 = ( NAMED_UNIT(*) PLANE_ANGLE_UNIT() SI_UNIT($,.RADIAN.) );
#746 = ( NAMED_UNIT(*) SI_UNIT($,.STERADIAN.) SOLID_ANGLE_UNIT() );
#747 = UNCERTAINTY_MEASURE_WITH_UNIT(LENGTH_MEASURE(2.E-06),#744,
  'distance_accuracy_value','confusion accuracy');
#748 = CONTEXT_DEPENDENT_SHAPE_REPRESENTATION(#749,#751);
#749 = ( REPRESENTATION_RELATIONSHIP('','',#36,#10) 
REPRESENTATION_RELATIONSHIP_WITH_TRANSFORMATION(#750) 
SHAPE_REPRESENTATION_RELATIONSHIP() );
#750 = ITEM_DEFINED_TRANSFORMATION('','',#11,#15);
#751 = PRODUCT_DEFINITION_SHAPE('Placement','Placement of an item',#752
  );
#752 = NEXT_ASSEMBLY_USAGE_OCCURRENCE('1','mainplate','',#5,#31,$);
#753 = PRODUCT_RELATED_PRODUCT_CATEGORY('part',$,(#33));
#754 = SHAPE_DEFINITION_REPRESENTATION(#755,#761);
#755 = PRODUCT_DEFINITION_SHAPE('','',#756);
#756 = PRODUCT_DEFINITION('design','',#757,#760);
#757 = PRODUCT_DEFINITION_FORMATION('','',#758);
#758 = PRODUCT('topplate','topplate','',(#759));
#759 = PRODUCT_CONTEXT('',#2,'mechanical');
#760 = PRODUCT_DEFINITION_CONTEXT('part definition',#2,'design');
#761 = ADVANCED_BREP_SHAPE_REPRESENTATION('',(#11,#762),#2312);
#762 = MANIFOLD_SOLID_BREP('',#763);
#763 = CLOSED_SHELL('',(#764,#1164,#1195,#1220,#1245,#1269,#1293,#1318,
    #1343,#1360,#1391,#1416,#1441,#1465,#1489,#1514,#1539,#1556,#1587,
    #1612,#1637,#1661,#1685,#1710,#1735,#1752,#1777,#1802,#1827,#1852,
    #1883,#1908,#1933,#1957,#1981,#2006,#2031,#2048,#2079,#2104,#2129,
    #2153,#2177,#2202,#2227,#2244));
#764 = ADVANCED_FACE('',(#765,#835,#905,#975,#986,#997,#1008,#1019,#1089
    ),#1159,.T.);
#765 = FACE_BOUND('',#766,.T.);
#766 = EDGE_LOOP('',(#767,#777,#786,#794,#803,#811,#820,#828));
#767 = ORIENTED_EDGE('',*,*,#768,.F.);
#768 = EDGE_CURVE('',#769,#771,#773,.T.);
#769 = VERTEX_POINT('',#770);
#770 = CARTESIAN_POINT('',(-6.975,-12.025,0.));
#771 = VERTEX_POINT('',#772);
#772 = CARTESIAN_POINT('',(-6.975,-2.499999999999E-02,0.));
#773 = LINE('',#774,#775);
#774 = CARTESIAN_POINT('',(-6.975,-13.025,0.));
#775 = VECTOR('',#776,1.);
#776 = DIRECTION('',(-1.9E-16,1.,0.));
#777 = ORIENTED_EDGE('',*,*,#778,.T.);
#778 = EDGE_CURVE('',#769,#779,#781,.T.);
#779 = VERTEX_POINT('',#780);
#780 = CARTESIAN_POINT('',(-5.975,-13.025,0.));
#781 = CIRCLE('',#782,1.);
#782 = AXIS2_PLACEMENT_3D('',#783,#784,#785);
#783 = CARTESIAN_POINT('',(-5.975,-12.025,0.));
#784 = DIRECTION('',(-0.,0.,1.));
#785 = DIRECTION('',(0.,-1.,0.));
#786 = ORIENTED_EDGE('',*,*,#787,.T.);
#787 = EDGE_CURVE('',#779,#788,#790,.T.);
#788 = VERTEX_POINT('',#789);
#789 = CARTESIAN_POINT('',(6.025,-13.025,0.));
#790 = LINE('',#791,#792);
#791 = CARTESIAN_POINT('',(-6.975,-13.025,0.));
#792 = VECTOR('',#793,1.);
#793 = DIRECTION('',(1.,2.5E-16,0.));
#794 = ORIENTED_EDGE('',*,*,#795,.T.);
#795 = EDGE_CURVE('',#788,#796,#798,.T.);
#796 = VERTEX_POINT('',#797);
#797 = CARTESIAN_POINT('',(7.025,-12.025,0.));
#798 = CIRCLE('',#799,1.);
#799 = AXIS2_PLACEMENT_3D('',#800,#801,#802);
#800 = CARTESIAN_POINT('',(6.025,-12.025,0.));
#801 = DIRECTION('',(-0.,0.,1.));
#802 = DIRECTION('',(0.,-1.,0.));
#803 = ORIENTED_EDGE('',*,*,#804,.T.);
#804 = EDGE_CURVE('',#796,#805,#807,.T.);
#805 = VERTEX_POINT('',#806);
#806 = CARTESIAN_POINT('',(7.025,-2.499999999998E-02,0.));
#807 = LINE('',#808,#809);
#808 = CARTESIAN_POINT('',(7.025,-13.025,0.));
#809 = VECTOR('',#810,1.);
#810 = DIRECTION('',(-2.5E-16,1.,0.));
#811 = ORIENTED_EDGE('',*,*,#812,.T.);
#812 = EDGE_CURVE('',#805,#813,#815,.T.);
#813 = VERTEX_POINT('',#814);
#814 = CARTESIAN_POINT('',(6.025,0.975,0.));
#815 = CIRCLE('',#816,1.);
#816 = AXIS2_PLACEMENT_3D('',#817,#818,#819);
#817 = CARTESIAN_POINT('',(6.025,-2.499999999998E-02,0.));
#818 = DIRECTION('',(-0.,0.,1.));
#819 = DIRECTION('',(0.,-1.,0.));
#820 = ORIENTED_EDGE('',*,*,#821,.F.);
#821 = EDGE_CURVE('',#822,#813,#824,.T.);
#822 = VERTEX_POINT('',#823);
#823 = CARTESIAN_POINT('',(-5.975,0.975,0.));
#824 = LINE('',#825,#826);
#825 = CARTESIAN_POINT('',(-6.975,0.975,0.));
#826 = VECTOR('',#827,1.);
#827 = DIRECTION('',(1.,5.1E-16,0.));
#828 = ORIENTED_EDGE('',*,*,#829,.F.);
#829 = EDGE_CURVE('',#771,#822,#830,.T.);
#830 = CIRCLE('',#831,1.);
#831 = AXIS2_PLACEMENT_3D('',#832,#833,#834);
#832 = CARTESIAN_POINT('',(-5.975,-2.499999999999E-02,0.));
#833 = DIRECTION('',(-0.,-0.,-1.));
#834 = DIRECTION('',(0.,-1.,0.));
#835 = FACE_BOUND('',#836,.T.);
#836 = EDGE_LOOP('',(#837,#847,#856,#864,#873,#881,#890,#898));
#837 = ORIENTED_EDGE('',*,*,#838,.T.);
#838 = EDGE_CURVE('',#839,#841,#843,.T.);
#839 = VERTEX_POINT('',#840);
#840 = CARTESIAN_POINT('',(-5.975,25.075,0.));
#841 = VERTEX_POINT('',#842);
#842 = CARTESIAN_POINT('',(6.025,25.075,0.));
#843 = LINE('',#844,#845);
#844 = CARTESIAN_POINT('',(-6.975,25.075,0.));
#845 = VECTOR('',#846,1.);
#846 = DIRECTION('',(1.,5.1E-16,0.));
#847 = ORIENTED_EDGE('',*,*,#848,.T.);
#848 = EDGE_CURVE('',#841,#849,#851,.T.);
#849 = VERTEX_POINT('',#850);
#850 = CARTESIAN_POINT('',(7.025,26.075,0.));
#851 = CIRCLE('',#852,1.);
#852 = AXIS2_PLACEMENT_3D('',#853,#854,#855);
#853 = CARTESIAN_POINT('',(6.025,26.075,0.));
#854 = DIRECTION('',(-0.,0.,1.));
#855 = DIRECTION('',(0.,-1.,0.));
#856 = ORIENTED_EDGE('',*,*,#857,.T.);
#857 = EDGE_CURVE('',#849,#858,#860,.T.);
#858 = VERTEX_POINT('',#859);
#859 = CARTESIAN_POINT('',(7.025,38.075,0.));
#860 = LINE('',#861,#862);
#861 = CARTESIAN_POINT('',(7.025,25.075,0.));
#862 = VECTOR('',#863,1.);
#863 = DIRECTION('',(-2.5E-16,1.,0.));
#864 = ORIENTED_EDGE('',*,*,#865,.T.);
#865 = EDGE_CURVE('',#858,#866,#868,.T.);
#866 = VERTEX_POINT('',#867);
#867 = CARTESIAN_POINT('',(6.025,39.075,0.));
#868 = CIRCLE('',#869,1.);
#869 = AXIS2_PLACEMENT_3D('',#870,#871,#872);
#870 = CARTESIAN_POINT('',(6.025,38.075,0.));
#871 = DIRECTION('',(-0.,0.,1.));
#872 = DIRECTION('',(0.,-1.,0.));
#873 = ORIENTED_EDGE('',*,*,#874,.F.);
#874 = EDGE_CURVE('',#875,#866,#877,.T.);
#875 = VERTEX_POINT('',#876);
#876 = CARTESIAN_POINT('',(-5.975,39.075,0.));
#877 = LINE('',#878,#879);
#878 = CARTESIAN_POINT('',(-6.975,39.075,0.));
#879 = VECTOR('',#880,1.);
#880 = DIRECTION('',(1.,0.,0.));
#881 = ORIENTED_EDGE('',*,*,#882,.T.);
#882 = EDGE_CURVE('',#875,#883,#885,.T.);
#883 = VERTEX_POINT('',#884);
#884 = CARTESIAN_POINT('',(-6.975,38.075,0.));
#885 = CIRCLE('',#886,1.);
#886 = AXIS2_PLACEMENT_3D('',#887,#888,#889);
#887 = CARTESIAN_POINT('',(-5.975,38.075,0.));
#888 = DIRECTION('',(-0.,0.,1.));
#889 = DIRECTION('',(0.,-1.,0.));
#890 = ORIENTED_EDGE('',*,*,#891,.F.);
#891 = EDGE_CURVE('',#892,#883,#894,.T.);
#892 = VERTEX_POINT('',#893);
#893 = CARTESIAN_POINT('',(-6.975,26.075,0.));
#894 = LINE('',#895,#896);
#895 = CARTESIAN_POINT('',(-6.975,25.075,0.));
#896 = VECTOR('',#897,1.);
#897 = DIRECTION('',(-1.9E-16,1.,0.));
#898 = ORIENTED_EDGE('',*,*,#899,.F.);
#899 = EDGE_CURVE('',#839,#892,#900,.T.);
#900 = CIRCLE('',#901,1.);
#901 = AXIS2_PLACEMENT_3D('',#902,#903,#904);
#902 = CARTESIAN_POINT('',(-5.975,26.075,0.));
#903 = DIRECTION('',(-0.,-0.,-1.));
#904 = DIRECTION('',(0.,-1.,0.));
#905 = FACE_BOUND('',#906,.T.);
#906 = EDGE_LOOP('',(#907,#917,#926,#934,#943,#951,#960,#968));
#907 = ORIENTED_EDGE('',*,*,#908,.F.);
#908 = EDGE_CURVE('',#909,#911,#913,.T.);
#909 = VERTEX_POINT('',#910);
#910 = CARTESIAN_POINT('',(21.4,-42.4,0.));
#911 = VERTEX_POINT('',#912);
#912 = CARTESIAN_POINT('',(21.4,49.4,0.));
#913 = LINE('',#914,#915);
#914 = CARTESIAN_POINT('',(21.4,-44.4,0.));
#915 = VECTOR('',#916,1.);
#916 = DIRECTION('',(0.,1.,0.));
#917 = ORIENTED_EDGE('',*,*,#918,.T.);
#918 = EDGE_CURVE('',#909,#919,#921,.T.);
#919 = VERTEX_POINT('',#920);
#920 = CARTESIAN_POINT('',(19.4,-44.4,0.));
#921 = CIRCLE('',#922,2.);
#922 = AXIS2_PLACEMENT_3D('',#923,#924,#925);
#923 = CARTESIAN_POINT('',(19.4,-42.4,0.));
#924 = DIRECTION('',(-0.,-0.,-1.));
#925 = DIRECTION('',(0.,-1.,0.));
#926 = ORIENTED_EDGE('',*,*,#927,.F.);
#927 = EDGE_CURVE('',#928,#919,#930,.T.);
#928 = VERTEX_POINT('',#929);
#929 = CARTESIAN_POINT('',(-19.4,-44.4,0.));
#930 = LINE('',#931,#932);
#931 = CARTESIAN_POINT('',(-21.4,-44.4,0.));
#932 = VECTOR('',#933,1.);
#933 = DIRECTION('',(1.,0.,0.));
#934 = ORIENTED_EDGE('',*,*,#935,.T.);
#935 = EDGE_CURVE('',#928,#936,#938,.T.);
#936 = VERTEX_POINT('',#937);
#937 = CARTESIAN_POINT('',(-21.4,-42.4,0.));
#938 = CIRCLE('',#939,2.);
#939 = AXIS2_PLACEMENT_3D('',#940,#941,#942);
#940 = CARTESIAN_POINT('',(-19.4,-42.4,0.));
#941 = DIRECTION('',(-0.,-0.,-1.));
#942 = DIRECTION('',(0.,-1.,0.));
#943 = ORIENTED_EDGE('',*,*,#944,.F.);
#944 = EDGE_CURVE('',#945,#936,#947,.T.);
#945 = VERTEX_POINT('',#946);
#946 = CARTESIAN_POINT('',(-21.4,49.4,0.));
#947 = LINE('',#948,#949);
#948 = CARTESIAN_POINT('',(-21.4,51.4,0.));
#949 = VECTOR('',#950,1.);
#950 = DIRECTION('',(0.,-1.,0.));
#951 = ORIENTED_EDGE('',*,*,#952,.F.);
#952 = EDGE_CURVE('',#953,#945,#955,.T.);
#953 = VERTEX_POINT('',#954);
#954 = CARTESIAN_POINT('',(-19.4,51.4,0.));
#955 = CIRCLE('',#956,2.);
#956 = AXIS2_PLACEMENT_3D('',#957,#958,#959);
#957 = CARTESIAN_POINT('',(-19.4,49.4,0.));
#958 = DIRECTION('',(-0.,0.,1.));
#959 = DIRECTION('',(0.,-1.,0.));
#960 = ORIENTED_EDGE('',*,*,#961,.F.);
#961 = EDGE_CURVE('',#962,#953,#964,.T.);
#962 = VERTEX_POINT('',#963);
#963 = CARTESIAN_POINT('',(19.4,51.4,0.));
#964 = LINE('',#965,#966);
#965 = CARTESIAN_POINT('',(21.4,51.4,0.));
#966 = VECTOR('',#967,1.);
#967 = DIRECTION('',(-1.,0.,0.));
#968 = ORIENTED_EDGE('',*,*,#969,.F.);
#969 = EDGE_CURVE('',#911,#962,#970,.T.);
#970 = CIRCLE('',#971,2.);
#971 = AXIS2_PLACEMENT_3D('',#972,#973,#974);
#972 = CARTESIAN_POINT('',(19.4,49.4,0.));
#973 = DIRECTION('',(-0.,0.,1.));
#974 = DIRECTION('',(0.,-1.,0.));
#975 = FACE_BOUND('',#976,.T.);
#976 = EDGE_LOOP('',(#977));
#977 = ORIENTED_EDGE('',*,*,#978,.T.);
#978 = EDGE_CURVE('',#979,#979,#981,.T.);
#979 = VERTEX_POINT('',#980);
#980 = CARTESIAN_POINT('',(17.85,-39.4,0.));
#981 = CIRCLE('',#982,1.45);
#982 = AXIS2_PLACEMENT_3D('',#983,#984,#985);
#983 = CARTESIAN_POINT('',(16.4,-39.4,0.));
#984 = DIRECTION('',(0.,0.,1.));
#985 = DIRECTION('',(1.,0.,0.));
#986 = FACE_BOUND('',#987,.T.);
#987 = EDGE_LOOP('',(#988));
#988 = ORIENTED_EDGE('',*,*,#989,.T.);
#989 = EDGE_CURVE('',#990,#990,#992,.T.);
#990 = VERTEX_POINT('',#991);
#991 = CARTESIAN_POINT('',(-14.95,-39.4,0.));
#992 = CIRCLE('',#993,1.45);
#993 = AXIS2_PLACEMENT_3D('',#994,#995,#996);
#994 = CARTESIAN_POINT('',(-16.4,-39.4,0.));
#995 = DIRECTION('',(0.,0.,1.));
#996 = DIRECTION('',(1.,0.,0.));
#997 = FACE_BOUND('',#998,.T.);
#998 = EDGE_LOOP('',(#999));
#999 = ORIENTED_EDGE('',*,*,#1000,.T.);
#1000 = EDGE_CURVE('',#1001,#1001,#1003,.T.);
#1001 = VERTEX_POINT('',#1002);
#1002 = CARTESIAN_POINT('',(-14.95,46.4,0.));
#1003 = CIRCLE('',#1004,1.45);
#1004 = AXIS2_PLACEMENT_3D('',#1005,#1006,#1007);
#1005 = CARTESIAN_POINT('',(-16.4,46.4,0.));
#1006 = DIRECTION('',(0.,0.,1.));
#1007 = DIRECTION('',(1.,0.,0.));
#1008 = FACE_BOUND('',#1009,.T.);
#1009 = EDGE_LOOP('',(#1010));
#1010 = ORIENTED_EDGE('',*,*,#1011,.T.);
#1011 = EDGE_CURVE('',#1012,#1012,#1014,.T.);
#1012 = VERTEX_POINT('',#1013);
#1013 = CARTESIAN_POINT('',(17.85,46.4,0.));
#1014 = CIRCLE('',#1015,1.45);
#1015 = AXIS2_PLACEMENT_3D('',#1016,#1017,#1018);
#1016 = CARTESIAN_POINT('',(16.4,46.4,0.));
#1017 = DIRECTION('',(0.,0.,1.));
#1018 = DIRECTION('',(1.,0.,0.));
#1019 = FACE_BOUND('',#1020,.T.);
#1020 = EDGE_LOOP('',(#1021,#1031,#1040,#1048,#1057,#1065,#1074,#1082));
#1021 = ORIENTED_EDGE('',*,*,#1022,.F.);
#1022 = EDGE_CURVE('',#1023,#1025,#1027,.T.);
#1023 = VERTEX_POINT('',#1024);
#1024 = CARTESIAN_POINT('',(-6.975,7.025,0.));
#1025 = VERTEX_POINT('',#1026);
#1026 = CARTESIAN_POINT('',(-6.975,19.025,0.));
#1027 = LINE('',#1028,#1029);
#1028 = CARTESIAN_POINT('',(-6.975,6.025,0.));
#1029 = VECTOR('',#1030,1.);
#1030 = DIRECTION('',(-2.5E-16,1.,0.));
#1031 = ORIENTED_EDGE('',*,*,#1032,.T.);
#1032 = EDGE_CURVE('',#1023,#1033,#1035,.T.);
#1033 = VERTEX_POINT('',#1034);
#1034 = CARTESIAN_POINT('',(-5.975,6.025,0.));
#1035 = CIRCLE('',#1036,1.);
#1036 = AXIS2_PLACEMENT_3D('',#1037,#1038,#1039);
#1037 = CARTESIAN_POINT('',(-5.975,7.025,0.));
#1038 = DIRECTION('',(-0.,0.,1.));
#1039 = DIRECTION('',(0.,-1.,0.));
#1040 = ORIENTED_EDGE('',*,*,#1041,.T.);
#1041 = EDGE_CURVE('',#1033,#1042,#1044,.T.);
#1042 = VERTEX_POINT('',#1043);
#1043 = CARTESIAN_POINT('',(6.025,6.025,0.));
#1044 = LINE('',#1045,#1046);
#1045 = CARTESIAN_POINT('',(-6.975,6.025,0.));
#1046 = VECTOR('',#1047,1.);
#1047 = DIRECTION('',(1.,5.1E-16,0.));
#1048 = ORIENTED_EDGE('',*,*,#1049,.T.);
#1049 = EDGE_CURVE('',#1042,#1050,#1052,.T.);
#1050 = VERTEX_POINT('',#1051);
#1051 = CARTESIAN_POINT('',(7.025,7.025,0.));
#1052 = CIRCLE('',#1053,1.);
#1053 = AXIS2_PLACEMENT_3D('',#1054,#1055,#1056);
#1054 = CARTESIAN_POINT('',(6.025,7.025,0.));
#1055 = DIRECTION('',(-0.,0.,1.));
#1056 = DIRECTION('',(0.,-1.,0.));
#1057 = ORIENTED_EDGE('',*,*,#1058,.T.);
#1058 = EDGE_CURVE('',#1050,#1059,#1061,.T.);
#1059 = VERTEX_POINT('',#1060);
#1060 = CARTESIAN_POINT('',(7.025,19.025,0.));
#1061 = LINE('',#1062,#1063);
#1062 = CARTESIAN_POINT('',(7.025,6.025,0.));
#1063 = VECTOR('',#1064,1.);
#1064 = DIRECTION('',(0.,1.,0.));
#1065 = ORIENTED_EDGE('',*,*,#1066,.T.);
#1066 = EDGE_CURVE('',#1059,#1067,#1069,.T.);
#1067 = VERTEX_POINT('',#1068);
#1068 = CARTESIAN_POINT('',(6.025,20.025,0.));
#1069 = CIRCLE('',#1070,1.);
#1070 = AXIS2_PLACEMENT_3D('',#1071,#1072,#1073);
#1071 = CARTESIAN_POINT('',(6.025,19.025,0.));
#1072 = DIRECTION('',(-0.,0.,1.));
#1073 = DIRECTION('',(0.,-1.,0.));
#1074 = ORIENTED_EDGE('',*,*,#1075,.F.);
#1075 = EDGE_CURVE('',#1076,#1067,#1078,.T.);
#1076 = VERTEX_POINT('',#1077);
#1077 = CARTESIAN_POINT('',(-5.975,20.025,0.));
#1078 = LINE('',#1079,#1080);
#1079 = CARTESIAN_POINT('',(-6.975,20.025,0.));
#1080 = VECTOR('',#1081,1.);
#1081 = DIRECTION('',(1.,5.1E-16,0.));
#1082 = ORIENTED_EDGE('',*,*,#1083,.F.);
#1083 = EDGE_CURVE('',#1025,#1076,#1084,.T.);
#1084 = CIRCLE('',#1085,1.);
#1085 = AXIS2_PLACEMENT_3D('',#1086,#1087,#1088);
#1086 = CARTESIAN_POINT('',(-5.975,19.025,0.));
#1087 = DIRECTION('',(-0.,-0.,-1.));
#1088 = DIRECTION('',(0.,-1.,0.));
#1089 = FACE_BOUND('',#1090,.T.);
#1090 = EDGE_LOOP('',(#1091,#1101,#1110,#1118,#1127,#1135,#1144,#1152));
#1091 = ORIENTED_EDGE('',*,*,#1092,.T.);
#1092 = EDGE_CURVE('',#1093,#1095,#1097,.T.);
#1093 = VERTEX_POINT('',#1094);
#1094 = CARTESIAN_POINT('',(-5.975,-32.075,0.));
#1095 = VERTEX_POINT('',#1096);
#1096 = CARTESIAN_POINT('',(6.025,-32.075,0.));
#1097 = LINE('',#1098,#1099);
#1098 = CARTESIAN_POINT('',(-6.975,-32.075,0.));
#1099 = VECTOR('',#1100,1.);
#1100 = DIRECTION('',(1.,5.1E-16,0.));
#1101 = ORIENTED_EDGE('',*,*,#1102,.T.);
#1102 = EDGE_CURVE('',#1095,#1103,#1105,.T.);
#1103 = VERTEX_POINT('',#1104);
#1104 = CARTESIAN_POINT('',(7.025,-31.075,0.));
#1105 = CIRCLE('',#1106,1.);
#1106 = AXIS2_PLACEMENT_3D('',#1107,#1108,#1109);
#1107 = CARTESIAN_POINT('',(6.025,-31.075,0.));
#1108 = DIRECTION('',(-0.,0.,1.));
#1109 = DIRECTION('',(0.,-1.,0.));
#1110 = ORIENTED_EDGE('',*,*,#1111,.T.);
#1111 = EDGE_CURVE('',#1103,#1112,#1114,.T.);
#1112 = VERTEX_POINT('',#1113);
#1113 = CARTESIAN_POINT('',(7.025,-19.075,0.));
#1114 = LINE('',#1115,#1116);
#1115 = CARTESIAN_POINT('',(7.025,-32.075,0.));
#1116 = VECTOR('',#1117,1.);
#1117 = DIRECTION('',(-2.5E-16,1.,0.));
#1118 = ORIENTED_EDGE('',*,*,#1119,.T.);
#1119 = EDGE_CURVE('',#1112,#1120,#1122,.T.);
#1120 = VERTEX_POINT('',#1121);
#1121 = CARTESIAN_POINT('',(6.025,-18.075,0.));
#1122 = CIRCLE('',#1123,1.);
#1123 = AXIS2_PLACEMENT_3D('',#1124,#1125,#1126);
#1124 = CARTESIAN_POINT('',(6.025,-19.075,0.));
#1125 = DIRECTION('',(-0.,0.,1.));
#1126 = DIRECTION('',(0.,-1.,0.));
#1127 = ORIENTED_EDGE('',*,*,#1128,.F.);
#1128 = EDGE_CURVE('',#1129,#1120,#1131,.T.);
#1129 = VERTEX_POINT('',#1130);
#1130 = CARTESIAN_POINT('',(-5.975,-18.075,0.));
#1131 = LINE('',#1132,#1133);
#1132 = CARTESIAN_POINT('',(-6.975,-18.075,0.));
#1133 = VECTOR('',#1134,1.);
#1134 = DIRECTION('',(1.,2.5E-16,0.));
#1135 = ORIENTED_EDGE('',*,*,#1136,.T.);
#1136 = EDGE_CURVE('',#1129,#1137,#1139,.T.);
#1137 = VERTEX_POINT('',#1138);
#1138 = CARTESIAN_POINT('',(-6.975,-19.075,0.));
#1139 = CIRCLE('',#1140,1.);
#1140 = AXIS2_PLACEMENT_3D('',#1141,#1142,#1143);
#1141 = CARTESIAN_POINT('',(-5.975,-19.075,0.));
#1142 = DIRECTION('',(-0.,0.,1.));
#1143 = DIRECTION('',(0.,-1.,0.));
#1144 = ORIENTED_EDGE('',*,*,#1145,.F.);
#1145 = EDGE_CURVE('',#1146,#1137,#1148,.T.);
#1146 = VERTEX_POINT('',#1147);
#1147 = CARTESIAN_POINT('',(-6.975,-31.075,0.));
#1148 = LINE('',#1149,#1150);
#1149 = CARTESIAN_POINT('',(-6.975,-32.075,0.));
#1150 = VECTOR('',#1151,1.);
#1151 = DIRECTION('',(-2.5E-16,1.,0.));
#1152 = ORIENTED_EDGE('',*,*,#1153,.F.);
#1153 = EDGE_CURVE('',#1093,#1146,#1154,.T.);
#1154 = CIRCLE('',#1155,1.);
#1155 = AXIS2_PLACEMENT_3D('',#1156,#1157,#1158);
#1156 = CARTESIAN_POINT('',(-5.975,-31.075,0.));
#1157 = DIRECTION('',(-0.,-0.,-1.));
#1158 = DIRECTION('',(0.,-1.,0.));
#1159 = PLANE('',#1160);
#1160 = AXIS2_PLACEMENT_3D('',#1161,#1162,#1163);
#1161 = CARTESIAN_POINT('',(5.54E-15,3.5,0.));
#1162 = DIRECTION('',(-0.,-0.,-1.));
#1163 = DIRECTION('',(-1.,0.,0.));
#1164 = ADVANCED_FACE('',(#1165),#1190,.F.);
#1165 = FACE_BOUND('',#1166,.F.);
#1166 = EDGE_LOOP('',(#1167,#1168,#1176,#1184));
#1167 = ORIENTED_EDGE('',*,*,#768,.F.);
#1168 = ORIENTED_EDGE('',*,*,#1169,.T.);
#1169 = EDGE_CURVE('',#769,#1170,#1172,.T.);
#1170 = VERTEX_POINT('',#1171);
#1171 = CARTESIAN_POINT('',(-6.975,-12.025,3.));
#1172 = LINE('',#1173,#1174);
#1173 = CARTESIAN_POINT('',(-6.975,-12.025,0.));
#1174 = VECTOR('',#1175,1.);
#1175 = DIRECTION('',(0.,0.,1.));
#1176 = ORIENTED_EDGE('',*,*,#1177,.T.);
#1177 = EDGE_CURVE('',#1170,#1178,#1180,.T.);
#1178 = VERTEX_POINT('',#1179);
#1179 = CARTESIAN_POINT('',(-6.975,-2.499999999999E-02,3.));
#1180 = LINE('',#1181,#1182);
#1181 = CARTESIAN_POINT('',(-6.975,-13.025,3.));
#1182 = VECTOR('',#1183,1.);
#1183 = DIRECTION('',(-1.9E-16,1.,0.));
#1184 = ORIENTED_EDGE('',*,*,#1185,.F.);
#1185 = EDGE_CURVE('',#771,#1178,#1186,.T.);
#1186 = LINE('',#1187,#1188);
#1187 = CARTESIAN_POINT('',(-6.975,-2.499999999999E-02,0.));
#1188 = VECTOR('',#1189,1.);
#1189 = DIRECTION('',(0.,0.,1.));
#1190 = PLANE('',#1191);
#1191 = AXIS2_PLACEMENT_3D('',#1192,#1193,#1194);
#1192 = CARTESIAN_POINT('',(-6.975,-13.025,0.));
#1193 = DIRECTION('',(-1.,-1.9E-16,0.));
#1194 = DIRECTION('',(-1.9E-16,1.,0.));
#1195 = ADVANCED_FACE('',(#1196),#1215,.F.);
#1196 = FACE_BOUND('',#1197,.F.);
#1197 = EDGE_LOOP('',(#1198,#1199,#1207,#1214));
#1198 = ORIENTED_EDGE('',*,*,#778,.T.);
#1199 = ORIENTED_EDGE('',*,*,#1200,.T.);
#1200 = EDGE_CURVE('',#779,#1201,#1203,.T.);
#1201 = VERTEX_POINT('',#1202);
#1202 = CARTESIAN_POINT('',(-5.975,-13.025,3.));
#1203 = LINE('',#1204,#1205);
#1204 = CARTESIAN_POINT('',(-5.975,-13.025,0.));
#1205 = VECTOR('',#1206,1.);
#1206 = DIRECTION('',(0.,0.,1.));
#1207 = ORIENTED_EDGE('',*,*,#1208,.F.);
#1208 = EDGE_CURVE('',#1170,#1201,#1209,.T.);
#1209 = CIRCLE('',#1210,1.);
#1210 = AXIS2_PLACEMENT_3D('',#1211,#1212,#1213);
#1211 = CARTESIAN_POINT('',(-5.975,-12.025,3.));
#1212 = DIRECTION('',(-0.,0.,1.));
#1213 = DIRECTION('',(0.,-1.,0.));
#1214 = ORIENTED_EDGE('',*,*,#1169,.F.);
#1215 = CYLINDRICAL_SURFACE('',#1216,1.);
#1216 = AXIS2_PLACEMENT_3D('',#1217,#1218,#1219);
#1217 = CARTESIAN_POINT('',(-5.975,-12.025,0.));
#1218 = DIRECTION('',(0.,0.,1.));
#1219 = DIRECTION('',(-1.,-1.9E-16,0.));
#1220 = ADVANCED_FACE('',(#1221),#1240,.F.);
#1221 = FACE_BOUND('',#1222,.T.);
#1222 = EDGE_LOOP('',(#1223,#1224,#1232,#1239));
#1223 = ORIENTED_EDGE('',*,*,#829,.T.);
#1224 = ORIENTED_EDGE('',*,*,#1225,.T.);
#1225 = EDGE_CURVE('',#822,#1226,#1228,.T.);
#1226 = VERTEX_POINT('',#1227);
#1227 = CARTESIAN_POINT('',(-5.975,0.975,3.));
#1228 = LINE('',#1229,#1230);
#1229 = CARTESIAN_POINT('',(-5.975,0.975,0.));
#1230 = VECTOR('',#1231,1.);
#1231 = DIRECTION('',(0.,0.,1.));
#1232 = ORIENTED_EDGE('',*,*,#1233,.F.);
#1233 = EDGE_CURVE('',#1178,#1226,#1234,.T.);
#1234 = CIRCLE('',#1235,1.);
#1235 = AXIS2_PLACEMENT_3D('',#1236,#1237,#1238);
#1236 = CARTESIAN_POINT('',(-5.975,-2.499999999999E-02,3.));
#1237 = DIRECTION('',(-0.,-0.,-1.));
#1238 = DIRECTION('',(0.,-1.,0.));
#1239 = ORIENTED_EDGE('',*,*,#1185,.F.);
#1240 = CYLINDRICAL_SURFACE('',#1241,1.);
#1241 = AXIS2_PLACEMENT_3D('',#1242,#1243,#1244);
#1242 = CARTESIAN_POINT('',(-5.975,-2.499999999999E-02,0.));
#1243 = DIRECTION('',(0.,0.,1.));
#1244 = DIRECTION('',(-1.,-1.9E-16,0.));
#1245 = ADVANCED_FACE('',(#1246),#1264,.T.);
#1246 = FACE_BOUND('',#1247,.T.);
#1247 = EDGE_LOOP('',(#1248,#1249,#1250,#1258));
#1248 = ORIENTED_EDGE('',*,*,#787,.F.);
#1249 = ORIENTED_EDGE('',*,*,#1200,.T.);
#1250 = ORIENTED_EDGE('',*,*,#1251,.T.);
#1251 = EDGE_CURVE('',#1201,#1252,#1254,.T.);
#1252 = VERTEX_POINT('',#1253);
#1253 = CARTESIAN_POINT('',(6.025,-13.025,3.));
#1254 = LINE('',#1255,#1256);
#1255 = CARTESIAN_POINT('',(-6.975,-13.025,3.));
#1256 = VECTOR('',#1257,1.);
#1257 = DIRECTION('',(1.,2.5E-16,0.));
#1258 = ORIENTED_EDGE('',*,*,#1259,.F.);
#1259 = EDGE_CURVE('',#788,#1252,#1260,.T.);
#1260 = LINE('',#1261,#1262);
#1261 = CARTESIAN_POINT('',(6.025,-13.025,0.));
#1262 = VECTOR('',#1263,1.);
#1263 = DIRECTION('',(0.,0.,1.));
#1264 = PLANE('',#1265);
#1265 = AXIS2_PLACEMENT_3D('',#1266,#1267,#1268);
#1266 = CARTESIAN_POINT('',(-6.975,-13.025,0.));
#1267 = DIRECTION('',(-2.5E-16,1.,0.));
#1268 = DIRECTION('',(1.,2.5E-16,0.));
#1269 = ADVANCED_FACE('',(#1270),#1288,.F.);
#1270 = FACE_BOUND('',#1271,.F.);
#1271 = EDGE_LOOP('',(#1272,#1273,#1274,#1282));
#1272 = ORIENTED_EDGE('',*,*,#821,.F.);
#1273 = ORIENTED_EDGE('',*,*,#1225,.T.);
#1274 = ORIENTED_EDGE('',*,*,#1275,.T.);
#1275 = EDGE_CURVE('',#1226,#1276,#1278,.T.);
#1276 = VERTEX_POINT('',#1277);
#1277 = CARTESIAN_POINT('',(6.025,0.975,3.));
#1278 = LINE('',#1279,#1280);
#1279 = CARTESIAN_POINT('',(-6.975,0.975,3.));
#1280 = VECTOR('',#1281,1.);
#1281 = DIRECTION('',(1.,5.1E-16,0.));
#1282 = ORIENTED_EDGE('',*,*,#1283,.F.);
#1283 = EDGE_CURVE('',#813,#1276,#1284,.T.);
#1284 = LINE('',#1285,#1286);
#1285 = CARTESIAN_POINT('',(6.025,0.975,0.));
#1286 = VECTOR('',#1287,1.);
#1287 = DIRECTION('',(0.,0.,1.));
#1288 = PLANE('',#1289);
#1289 = AXIS2_PLACEMENT_3D('',#1290,#1291,#1292);
#1290 = CARTESIAN_POINT('',(-6.975,0.975,0.));
#1291 = DIRECTION('',(-5.1E-16,1.,0.));
#1292 = DIRECTION('',(1.,5.1E-16,0.));
#1293 = ADVANCED_FACE('',(#1294),#1313,.F.);
#1294 = FACE_BOUND('',#1295,.F.);
#1295 = EDGE_LOOP('',(#1296,#1297,#1305,#1312));
#1296 = ORIENTED_EDGE('',*,*,#795,.T.);
#1297 = ORIENTED_EDGE('',*,*,#1298,.T.);
#1298 = EDGE_CURVE('',#796,#1299,#1301,.T.);
#1299 = VERTEX_POINT('',#1300);
#1300 = CARTESIAN_POINT('',(7.025,-12.025,3.));
#1301 = LINE('',#1302,#1303);
#1302 = CARTESIAN_POINT('',(7.025,-12.025,0.));
#1303 = VECTOR('',#1304,1.);
#1304 = DIRECTION('',(0.,0.,1.));
#1305 = ORIENTED_EDGE('',*,*,#1306,.F.);
#1306 = EDGE_CURVE('',#1252,#1299,#1307,.T.);
#1307 = CIRCLE('',#1308,1.);
#1308 = AXIS2_PLACEMENT_3D('',#1309,#1310,#1311);
#1309 = CARTESIAN_POINT('',(6.025,-12.025,3.));
#1310 = DIRECTION('',(-0.,0.,1.));
#1311 = DIRECTION('',(0.,-1.,0.));
#1312 = ORIENTED_EDGE('',*,*,#1259,.F.);
#1313 = CYLINDRICAL_SURFACE('',#1314,1.);
#1314 = AXIS2_PLACEMENT_3D('',#1315,#1316,#1317);
#1315 = CARTESIAN_POINT('',(6.025,-12.025,0.));
#1316 = DIRECTION('',(0.,0.,1.));
#1317 = DIRECTION('',(2.5E-16,-1.,0.));
#1318 = ADVANCED_FACE('',(#1319),#1338,.F.);
#1319 = FACE_BOUND('',#1320,.F.);
#1320 = EDGE_LOOP('',(#1321,#1322,#1323,#1332));
#1321 = ORIENTED_EDGE('',*,*,#812,.T.);
#1322 = ORIENTED_EDGE('',*,*,#1283,.T.);
#1323 = ORIENTED_EDGE('',*,*,#1324,.F.);
#1324 = EDGE_CURVE('',#1325,#1276,#1327,.T.);
#1325 = VERTEX_POINT('',#1326);
#1326 = CARTESIAN_POINT('',(7.025,-2.499999999998E-02,3.));
#1327 = CIRCLE('',#1328,1.);
#1328 = AXIS2_PLACEMENT_3D('',#1329,#1330,#1331);
#1329 = CARTESIAN_POINT('',(6.025,-2.499999999998E-02,3.));
#1330 = DIRECTION('',(-0.,0.,1.));
#1331 = DIRECTION('',(0.,-1.,0.));
#1332 = ORIENTED_EDGE('',*,*,#1333,.F.);
#1333 = EDGE_CURVE('',#805,#1325,#1334,.T.);
#1334 = LINE('',#1335,#1336);
#1335 = CARTESIAN_POINT('',(7.025,-2.499999999998E-02,0.));
#1336 = VECTOR('',#1337,1.);
#1337 = DIRECTION('',(0.,0.,1.));
#1338 = CYLINDRICAL_SURFACE('',#1339,1.);
#1339 = AXIS2_PLACEMENT_3D('',#1340,#1341,#1342);
#1340 = CARTESIAN_POINT('',(6.025,-2.499999999998E-02,0.));
#1341 = DIRECTION('',(0.,0.,1.));
#1342 = DIRECTION('',(1.,2.5E-16,-0.));
#1343 = ADVANCED_FACE('',(#1344),#1355,.T.);
#1344 = FACE_BOUND('',#1345,.T.);
#1345 = EDGE_LOOP('',(#1346,#1347,#1348,#1354));
#1346 = ORIENTED_EDGE('',*,*,#804,.F.);
#1347 = ORIENTED_EDGE('',*,*,#1298,.T.);
#1348 = ORIENTED_EDGE('',*,*,#1349,.T.);
#1349 = EDGE_CURVE('',#1299,#1325,#1350,.T.);
#1350 = LINE('',#1351,#1352);
#1351 = CARTESIAN_POINT('',(7.025,-13.025,3.));
#1352 = VECTOR('',#1353,1.);
#1353 = DIRECTION('',(-2.5E-16,1.,0.));
#1354 = ORIENTED_EDGE('',*,*,#1333,.F.);
#1355 = PLANE('',#1356);
#1356 = AXIS2_PLACEMENT_3D('',#1357,#1358,#1359);
#1357 = CARTESIAN_POINT('',(7.025,-13.025,0.));
#1358 = DIRECTION('',(-1.,-2.5E-16,0.));
#1359 = DIRECTION('',(-2.5E-16,1.,0.));
#1360 = ADVANCED_FACE('',(#1361),#1386,.T.);
#1361 = FACE_BOUND('',#1362,.T.);
#1362 = EDGE_LOOP('',(#1363,#1364,#1372,#1380));
#1363 = ORIENTED_EDGE('',*,*,#838,.F.);
#1364 = ORIENTED_EDGE('',*,*,#1365,.T.);
#1365 = EDGE_CURVE('',#839,#1366,#1368,.T.);
#1366 = VERTEX_POINT('',#1367);
#1367 = CARTESIAN_POINT('',(-5.975,25.075,3.));
#1368 = LINE('',#1369,#1370);
#1369 = CARTESIAN_POINT('',(-5.975,25.075,0.));
#1370 = VECTOR('',#1371,1.);
#1371 = DIRECTION('',(0.,0.,1.));
#1372 = ORIENTED_EDGE('',*,*,#1373,.T.);
#1373 = EDGE_CURVE('',#1366,#1374,#1376,.T.);
#1374 = VERTEX_POINT('',#1375);
#1375 = CARTESIAN_POINT('',(6.025,25.075,3.));
#1376 = LINE('',#1377,#1378);
#1377 = CARTESIAN_POINT('',(-6.975,25.075,3.));
#1378 = VECTOR('',#1379,1.);
#1379 = DIRECTION('',(1.,5.1E-16,0.));
#1380 = ORIENTED_EDGE('',*,*,#1381,.F.);
#1381 = EDGE_CURVE('',#841,#1374,#1382,.T.);
#1382 = LINE('',#1383,#1384);
#1383 = CARTESIAN_POINT('',(6.025,25.075,0.));
#1384 = VECTOR('',#1385,1.);
#1385 = DIRECTION('',(0.,0.,1.));
#1386 = PLANE('',#1387);
#1387 = AXIS2_PLACEMENT_3D('',#1388,#1389,#1390);
#1388 = CARTESIAN_POINT('',(-6.975,25.075,0.));
#1389 = DIRECTION('',(-5.1E-16,1.,0.));
#1390 = DIRECTION('',(1.,5.1E-16,0.));
#1391 = ADVANCED_FACE('',(#1392),#1411,.F.);
#1392 = FACE_BOUND('',#1393,.T.);
#1393 = EDGE_LOOP('',(#1394,#1395,#1403,#1410));
#1394 = ORIENTED_EDGE('',*,*,#899,.T.);
#1395 = ORIENTED_EDGE('',*,*,#1396,.T.);
#1396 = EDGE_CURVE('',#892,#1397,#1399,.T.);
#1397 = VERTEX_POINT('',#1398);
#1398 = CARTESIAN_POINT('',(-6.975,26.075,3.));
#1399 = LINE('',#1400,#1401);
#1400 = CARTESIAN_POINT('',(-6.975,26.075,0.));
#1401 = VECTOR('',#1402,1.);
#1402 = DIRECTION('',(0.,0.,1.));
#1403 = ORIENTED_EDGE('',*,*,#1404,.F.);
#1404 = EDGE_CURVE('',#1366,#1397,#1405,.T.);
#1405 = CIRCLE('',#1406,1.);
#1406 = AXIS2_PLACEMENT_3D('',#1407,#1408,#1409);
#1407 = CARTESIAN_POINT('',(-5.975,26.075,3.));
#1408 = DIRECTION('',(-0.,-0.,-1.));
#1409 = DIRECTION('',(0.,-1.,0.));
#1410 = ORIENTED_EDGE('',*,*,#1365,.F.);
#1411 = CYLINDRICAL_SURFACE('',#1412,1.);
#1412 = AXIS2_PLACEMENT_3D('',#1413,#1414,#1415);
#1413 = CARTESIAN_POINT('',(-5.975,26.075,0.));
#1414 = DIRECTION('',(0.,0.,1.));
#1415 = DIRECTION('',(5.1E-16,-1.,0.));
#1416 = ADVANCED_FACE('',(#1417),#1436,.F.);
#1417 = FACE_BOUND('',#1418,.F.);
#1418 = EDGE_LOOP('',(#1419,#1420,#1428,#1435));
#1419 = ORIENTED_EDGE('',*,*,#848,.T.);
#1420 = ORIENTED_EDGE('',*,*,#1421,.T.);
#1421 = EDGE_CURVE('',#849,#1422,#1424,.T.);
#1422 = VERTEX_POINT('',#1423);
#1423 = CARTESIAN_POINT('',(7.025,26.075,3.));
#1424 = LINE('',#1425,#1426);
#1425 = CARTESIAN_POINT('',(7.025,26.075,0.));
#1426 = VECTOR('',#1427,1.);
#1427 = DIRECTION('',(0.,0.,1.));
#1428 = ORIENTED_EDGE('',*,*,#1429,.F.);
#1429 = EDGE_CURVE('',#1374,#1422,#1430,.T.);
#1430 = CIRCLE('',#1431,1.);
#1431 = AXIS2_PLACEMENT_3D('',#1432,#1433,#1434);
#1432 = CARTESIAN_POINT('',(6.025,26.075,3.));
#1433 = DIRECTION('',(-0.,0.,1.));
#1434 = DIRECTION('',(0.,-1.,0.));
#1435 = ORIENTED_EDGE('',*,*,#1381,.F.);
#1436 = CYLINDRICAL_SURFACE('',#1437,1.);
#1437 = AXIS2_PLACEMENT_3D('',#1438,#1439,#1440);
#1438 = CARTESIAN_POINT('',(6.025,26.075,0.));
#1439 = DIRECTION('',(0.,0.,1.));
#1440 = DIRECTION('',(5.1E-16,-1.,0.));
#1441 = ADVANCED_FACE('',(#1442),#1460,.F.);
#1442 = FACE_BOUND('',#1443,.F.);
#1443 = EDGE_LOOP('',(#1444,#1445,#1446,#1454));
#1444 = ORIENTED_EDGE('',*,*,#891,.F.);
#1445 = ORIENTED_EDGE('',*,*,#1396,.T.);
#1446 = ORIENTED_EDGE('',*,*,#1447,.T.);
#1447 = EDGE_CURVE('',#1397,#1448,#1450,.T.);
#1448 = VERTEX_POINT('',#1449);
#1449 = CARTESIAN_POINT('',(-6.975,38.075,3.));
#1450 = LINE('',#1451,#1452);
#1451 = CARTESIAN_POINT('',(-6.975,25.075,3.));
#1452 = VECTOR('',#1453,1.);
#1453 = DIRECTION('',(-1.9E-16,1.,0.));
#1454 = ORIENTED_EDGE('',*,*,#1455,.F.);
#1455 = EDGE_CURVE('',#883,#1448,#1456,.T.);
#1456 = LINE('',#1457,#1458);
#1457 = CARTESIAN_POINT('',(-6.975,38.075,0.));
#1458 = VECTOR('',#1459,1.);
#1459 = DIRECTION('',(0.,0.,1.));
#1460 = PLANE('',#1461);
#1461 = AXIS2_PLACEMENT_3D('',#1462,#1463,#1464);
#1462 = CARTESIAN_POINT('',(-6.975,25.075,0.));
#1463 = DIRECTION('',(-1.,-1.9E-16,0.));
#1464 = DIRECTION('',(-1.9E-16,1.,0.));
#1465 = ADVANCED_FACE('',(#1466),#1484,.T.);
#1466 = FACE_BOUND('',#1467,.T.);
#1467 = EDGE_LOOP('',(#1468,#1469,#1470,#1478));
#1468 = ORIENTED_EDGE('',*,*,#857,.F.);
#1469 = ORIENTED_EDGE('',*,*,#1421,.T.);
#1470 = ORIENTED_EDGE('',*,*,#1471,.T.);
#1471 = EDGE_CURVE('',#1422,#1472,#1474,.T.);
#1472 = VERTEX_POINT('',#1473);
#1473 = CARTESIAN_POINT('',(7.025,38.075,3.));
#1474 = LINE('',#1475,#1476);
#1475 = CARTESIAN_POINT('',(7.025,25.075,3.));
#1476 = VECTOR('',#1477,1.);
#1477 = DIRECTION('',(-2.5E-16,1.,0.));
#1478 = ORIENTED_EDGE('',*,*,#1479,.F.);
#1479 = EDGE_CURVE('',#858,#1472,#1480,.T.);
#1480 = LINE('',#1481,#1482);
#1481 = CARTESIAN_POINT('',(7.025,38.075,0.));
#1482 = VECTOR('',#1483,1.);
#1483 = DIRECTION('',(0.,0.,1.));
#1484 = PLANE('',#1485);
#1485 = AXIS2_PLACEMENT_3D('',#1486,#1487,#1488);
#1486 = CARTESIAN_POINT('',(7.025,25.075,0.));
#1487 = DIRECTION('',(-1.,-2.5E-16,0.));
#1488 = DIRECTION('',(-2.5E-16,1.,0.));
#1489 = ADVANCED_FACE('',(#1490),#1509,.F.);
#1490 = FACE_BOUND('',#1491,.F.);
#1491 = EDGE_LOOP('',(#1492,#1493,#1494,#1503));
#1492 = ORIENTED_EDGE('',*,*,#882,.T.);
#1493 = ORIENTED_EDGE('',*,*,#1455,.T.);
#1494 = ORIENTED_EDGE('',*,*,#1495,.F.);
#1495 = EDGE_CURVE('',#1496,#1448,#1498,.T.);
#1496 = VERTEX_POINT('',#1497);
#1497 = CARTESIAN_POINT('',(-5.975,39.075,3.));
#1498 = CIRCLE('',#1499,1.);
#1499 = AXIS2_PLACEMENT_3D('',#1500,#1501,#1502);
#1500 = CARTESIAN_POINT('',(-5.975,38.075,3.));
#1501 = DIRECTION('',(-0.,0.,1.));
#1502 = DIRECTION('',(0.,-1.,0.));
#1503 = ORIENTED_EDGE('',*,*,#1504,.F.);
#1504 = EDGE_CURVE('',#875,#1496,#1505,.T.);
#1505 = LINE('',#1506,#1507);
#1506 = CARTESIAN_POINT('',(-5.975,39.075,0.));
#1507 = VECTOR('',#1508,1.);
#1508 = DIRECTION('',(0.,0.,1.));
#1509 = CYLINDRICAL_SURFACE('',#1510,1.);
#1510 = AXIS2_PLACEMENT_3D('',#1511,#1512,#1513);
#1511 = CARTESIAN_POINT('',(-5.975,38.075,0.));
#1512 = DIRECTION('',(0.,0.,1.));
#1513 = DIRECTION('',(0.,1.,0.));
#1514 = ADVANCED_FACE('',(#1515),#1534,.F.);
#1515 = FACE_BOUND('',#1516,.F.);
#1516 = EDGE_LOOP('',(#1517,#1518,#1526,#1533));
#1517 = ORIENTED_EDGE('',*,*,#865,.T.);
#1518 = ORIENTED_EDGE('',*,*,#1519,.T.);
#1519 = EDGE_CURVE('',#866,#1520,#1522,.T.);
#1520 = VERTEX_POINT('',#1521);
#1521 = CARTESIAN_POINT('',(6.025,39.075,3.));
#1522 = LINE('',#1523,#1524);
#1523 = CARTESIAN_POINT('',(6.025,39.075,0.));
#1524 = VECTOR('',#1525,1.);
#1525 = DIRECTION('',(0.,0.,1.));
#1526 = ORIENTED_EDGE('',*,*,#1527,.F.);
#1527 = EDGE_CURVE('',#1472,#1520,#1528,.T.);
#1528 = CIRCLE('',#1529,1.);
#1529 = AXIS2_PLACEMENT_3D('',#1530,#1531,#1532);
#1530 = CARTESIAN_POINT('',(6.025,38.075,3.));
#1531 = DIRECTION('',(-0.,0.,1.));
#1532 = DIRECTION('',(0.,-1.,0.));
#1533 = ORIENTED_EDGE('',*,*,#1479,.F.);
#1534 = CYLINDRICAL_SURFACE('',#1535,1.);
#1535 = AXIS2_PLACEMENT_3D('',#1536,#1537,#1538);
#1536 = CARTESIAN_POINT('',(6.025,38.075,0.));
#1537 = DIRECTION('',(0.,0.,1.));
#1538 = DIRECTION('',(1.,2.5E-16,0.));
#1539 = ADVANCED_FACE('',(#1540),#1551,.F.);
#1540 = FACE_BOUND('',#1541,.F.);
#1541 = EDGE_LOOP('',(#1542,#1543,#1544,#1550));
#1542 = ORIENTED_EDGE('',*,*,#874,.F.);
#1543 = ORIENTED_EDGE('',*,*,#1504,.T.);
#1544 = ORIENTED_EDGE('',*,*,#1545,.T.);
#1545 = EDGE_CURVE('',#1496,#1520,#1546,.T.);
#1546 = LINE('',#1547,#1548);
#1547 = CARTESIAN_POINT('',(-6.975,39.075,3.));
#1548 = VECTOR('',#1549,1.);
#1549 = DIRECTION('',(1.,0.,0.));
#1550 = ORIENTED_EDGE('',*,*,#1519,.F.);
#1551 = PLANE('',#1552);
#1552 = AXIS2_PLACEMENT_3D('',#1553,#1554,#1555);
#1553 = CARTESIAN_POINT('',(-6.975,39.075,0.));
#1554 = DIRECTION('',(0.,1.,0.));
#1555 = DIRECTION('',(1.,0.,0.));
#1556 = ADVANCED_FACE('',(#1557),#1582,.F.);
#1557 = FACE_BOUND('',#1558,.F.);
#1558 = EDGE_LOOP('',(#1559,#1560,#1568,#1576));
#1559 = ORIENTED_EDGE('',*,*,#908,.F.);
#1560 = ORIENTED_EDGE('',*,*,#1561,.T.);
#1561 = EDGE_CURVE('',#909,#1562,#1564,.T.);
#1562 = VERTEX_POINT('',#1563);
#1563 = CARTESIAN_POINT('',(21.4,-42.4,3.));
#1564 = LINE('',#1565,#1566);
#1565 = CARTESIAN_POINT('',(21.4,-42.4,0.));
#1566 = VECTOR('',#1567,1.);
#1567 = DIRECTION('',(0.,0.,1.));
#1568 = ORIENTED_EDGE('',*,*,#1569,.T.);
#1569 = EDGE_CURVE('',#1562,#1570,#1572,.T.);
#1570 = VERTEX_POINT('',#1571);
#1571 = CARTESIAN_POINT('',(21.4,49.4,3.));
#1572 = LINE('',#1573,#1574);
#1573 = CARTESIAN_POINT('',(21.4,-44.4,3.));
#1574 = VECTOR('',#1575,1.);
#1575 = DIRECTION('',(0.,1.,0.));
#1576 = ORIENTED_EDGE('',*,*,#1577,.F.);
#1577 = EDGE_CURVE('',#911,#1570,#1578,.T.);
#1578 = LINE('',#1579,#1580);
#1579 = CARTESIAN_POINT('',(21.4,49.4,0.));
#1580 = VECTOR('',#1581,1.);
#1581 = DIRECTION('',(0.,0.,1.));
#1582 = PLANE('',#1583);
#1583 = AXIS2_PLACEMENT_3D('',#1584,#1585,#1586);
#1584 = CARTESIAN_POINT('',(21.4,-44.4,0.));
#1585 = DIRECTION('',(-1.,0.,0.));
#1586 = DIRECTION('',(0.,1.,0.));
#1587 = ADVANCED_FACE('',(#1588),#1607,.T.);
#1588 = FACE_BOUND('',#1589,.F.);
#1589 = EDGE_LOOP('',(#1590,#1591,#1599,#1606));
#1590 = ORIENTED_EDGE('',*,*,#918,.T.);
#1591 = ORIENTED_EDGE('',*,*,#1592,.T.);
#1592 = EDGE_CURVE('',#919,#1593,#1595,.T.);
#1593 = VERTEX_POINT('',#1594);
#1594 = CARTESIAN_POINT('',(19.4,-44.4,3.));
#1595 = LINE('',#1596,#1597);
#1596 = CARTESIAN_POINT('',(19.4,-44.4,0.));
#1597 = VECTOR('',#1598,1.);
#1598 = DIRECTION('',(0.,0.,1.));
#1599 = ORIENTED_EDGE('',*,*,#1600,.F.);
#1600 = EDGE_CURVE('',#1562,#1593,#1601,.T.);
#1601 = CIRCLE('',#1602,2.);
#1602 = AXIS2_PLACEMENT_3D('',#1603,#1604,#1605);
#1603 = CARTESIAN_POINT('',(19.4,-42.4,3.));
#1604 = DIRECTION('',(-0.,-0.,-1.));
#1605 = DIRECTION('',(0.,-1.,0.));
#1606 = ORIENTED_EDGE('',*,*,#1561,.F.);
#1607 = CYLINDRICAL_SURFACE('',#1608,2.);
#1608 = AXIS2_PLACEMENT_3D('',#1609,#1610,#1611);
#1609 = CARTESIAN_POINT('',(19.4,-42.4,0.));
#1610 = DIRECTION('',(0.,0.,1.));
#1611 = DIRECTION('',(1.,0.,0.));
#1612 = ADVANCED_FACE('',(#1613),#1632,.T.);
#1613 = FACE_BOUND('',#1614,.T.);
#1614 = EDGE_LOOP('',(#1615,#1616,#1624,#1631));
#1615 = ORIENTED_EDGE('',*,*,#969,.T.);
#1616 = ORIENTED_EDGE('',*,*,#1617,.T.);
#1617 = EDGE_CURVE('',#962,#1618,#1620,.T.);
#1618 = VERTEX_POINT('',#1619);
#1619 = CARTESIAN_POINT('',(19.4,51.4,3.));
#1620 = LINE('',#1621,#1622);
#1621 = CARTESIAN_POINT('',(19.4,51.4,0.));
#1622 = VECTOR('',#1623,1.);
#1623 = DIRECTION('',(0.,0.,1.));
#1624 = ORIENTED_EDGE('',*,*,#1625,.F.);
#1625 = EDGE_CURVE('',#1570,#1618,#1626,.T.);
#1626 = CIRCLE('',#1627,2.);
#1627 = AXIS2_PLACEMENT_3D('',#1628,#1629,#1630);
#1628 = CARTESIAN_POINT('',(19.4,49.4,3.));
#1629 = DIRECTION('',(-0.,0.,1.));
#1630 = DIRECTION('',(0.,-1.,0.));
#1631 = ORIENTED_EDGE('',*,*,#1577,.F.);
#1632 = CYLINDRICAL_SURFACE('',#1633,2.);
#1633 = AXIS2_PLACEMENT_3D('',#1634,#1635,#1636);
#1634 = CARTESIAN_POINT('',(19.4,49.4,0.));
#1635 = DIRECTION('',(0.,0.,1.));
#1636 = DIRECTION('',(1.,0.,0.));
#1637 = ADVANCED_FACE('',(#1638),#1656,.F.);
#1638 = FACE_BOUND('',#1639,.F.);
#1639 = EDGE_LOOP('',(#1640,#1641,#1649,#1655));
#1640 = ORIENTED_EDGE('',*,*,#927,.F.);
#1641 = ORIENTED_EDGE('',*,*,#1642,.T.);
#1642 = EDGE_CURVE('',#928,#1643,#1645,.T.);
#1643 = VERTEX_POINT('',#1644);
#1644 = CARTESIAN_POINT('',(-19.4,-44.4,3.));
#1645 = LINE('',#1646,#1647);
#1646 = CARTESIAN_POINT('',(-19.4,-44.4,0.));
#1647 = VECTOR('',#1648,1.);
#1648 = DIRECTION('',(0.,0.,1.));
#1649 = ORIENTED_EDGE('',*,*,#1650,.T.);
#1650 = EDGE_CURVE('',#1643,#1593,#1651,.T.);
#1651 = LINE('',#1652,#1653);
#1652 = CARTESIAN_POINT('',(-21.4,-44.4,3.));
#1653 = VECTOR('',#1654,1.);
#1654 = DIRECTION('',(1.,0.,0.));
#1655 = ORIENTED_EDGE('',*,*,#1592,.F.);
#1656 = PLANE('',#1657);
#1657 = AXIS2_PLACEMENT_3D('',#1658,#1659,#1660);
#1658 = CARTESIAN_POINT('',(-21.4,-44.4,0.));
#1659 = DIRECTION('',(0.,1.,0.));
#1660 = DIRECTION('',(1.,0.,0.));
#1661 = ADVANCED_FACE('',(#1662),#1680,.F.);
#1662 = FACE_BOUND('',#1663,.F.);
#1663 = EDGE_LOOP('',(#1664,#1665,#1666,#1674));
#1664 = ORIENTED_EDGE('',*,*,#961,.F.);
#1665 = ORIENTED_EDGE('',*,*,#1617,.T.);
#1666 = ORIENTED_EDGE('',*,*,#1667,.T.);
#1667 = EDGE_CURVE('',#1618,#1668,#1670,.T.);
#1668 = VERTEX_POINT('',#1669);
#1669 = CARTESIAN_POINT('',(-19.4,51.4,3.));
#1670 = LINE('',#1671,#1672);
#1671 = CARTESIAN_POINT('',(21.4,51.4,3.));
#1672 = VECTOR('',#1673,1.);
#1673 = DIRECTION('',(-1.,0.,0.));
#1674 = ORIENTED_EDGE('',*,*,#1675,.F.);
#1675 = EDGE_CURVE('',#953,#1668,#1676,.T.);
#1676 = LINE('',#1677,#1678);
#1677 = CARTESIAN_POINT('',(-19.4,51.4,0.));
#1678 = VECTOR('',#1679,1.);
#1679 = DIRECTION('',(0.,0.,1.));
#1680 = PLANE('',#1681);
#1681 = AXIS2_PLACEMENT_3D('',#1682,#1683,#1684);
#1682 = CARTESIAN_POINT('',(21.4,51.4,0.));
#1683 = DIRECTION('',(0.,-1.,0.));
#1684 = DIRECTION('',(-1.,0.,0.));
#1685 = ADVANCED_FACE('',(#1686),#1705,.T.);
#1686 = FACE_BOUND('',#1687,.F.);
#1687 = EDGE_LOOP('',(#1688,#1689,#1697,#1704));
#1688 = ORIENTED_EDGE('',*,*,#935,.T.);
#1689 = ORIENTED_EDGE('',*,*,#1690,.T.);
#1690 = EDGE_CURVE('',#936,#1691,#1693,.T.);
#1691 = VERTEX_POINT('',#1692);
#1692 = CARTESIAN_POINT('',(-21.4,-42.4,3.));
#1693 = LINE('',#1694,#1695);
#1694 = CARTESIAN_POINT('',(-21.4,-42.4,0.));
#1695 = VECTOR('',#1696,1.);
#1696 = DIRECTION('',(0.,0.,1.));
#1697 = ORIENTED_EDGE('',*,*,#1698,.F.);
#1698 = EDGE_CURVE('',#1643,#1691,#1699,.T.);
#1699 = CIRCLE('',#1700,2.);
#1700 = AXIS2_PLACEMENT_3D('',#1701,#1702,#1703);
#1701 = CARTESIAN_POINT('',(-19.4,-42.4,3.));
#1702 = DIRECTION('',(-0.,-0.,-1.));
#1703 = DIRECTION('',(0.,-1.,0.));
#1704 = ORIENTED_EDGE('',*,*,#1642,.F.);
#1705 = CYLINDRICAL_SURFACE('',#1706,2.);
#1706 = AXIS2_PLACEMENT_3D('',#1707,#1708,#1709);
#1707 = CARTESIAN_POINT('',(-19.4,-42.4,0.));
#1708 = DIRECTION('',(0.,0.,1.));
#1709 = DIRECTION('',(0.,-1.,0.));
#1710 = ADVANCED_FACE('',(#1711),#1730,.T.);
#1711 = FACE_BOUND('',#1712,.T.);
#1712 = EDGE_LOOP('',(#1713,#1714,#1722,#1729));
#1713 = ORIENTED_EDGE('',*,*,#952,.T.);
#1714 = ORIENTED_EDGE('',*,*,#1715,.T.);
#1715 = EDGE_CURVE('',#945,#1716,#1718,.T.);
#1716 = VERTEX_POINT('',#1717);
#1717 = CARTESIAN_POINT('',(-21.4,49.4,3.));
#1718 = LINE('',#1719,#1720);
#1719 = CARTESIAN_POINT('',(-21.4,49.4,0.));
#1720 = VECTOR('',#1721,1.);
#1721 = DIRECTION('',(0.,0.,1.));
#1722 = ORIENTED_EDGE('',*,*,#1723,.F.);
#1723 = EDGE_CURVE('',#1668,#1716,#1724,.T.);
#1724 = CIRCLE('',#1725,2.);
#1725 = AXIS2_PLACEMENT_3D('',#1726,#1727,#1728);
#1726 = CARTESIAN_POINT('',(-19.4,49.4,3.));
#1727 = DIRECTION('',(-0.,0.,1.));
#1728 = DIRECTION('',(0.,-1.,0.));
#1729 = ORIENTED_EDGE('',*,*,#1675,.F.);
#1730 = CYLINDRICAL_SURFACE('',#1731,2.);
#1731 = AXIS2_PLACEMENT_3D('',#1732,#1733,#1734);
#1732 = CARTESIAN_POINT('',(-19.4,49.4,0.));
#1733 = DIRECTION('',(0.,0.,1.));
#1734 = DIRECTION('',(0.,1.,0.));
#1735 = ADVANCED_FACE('',(#1736),#1747,.F.);
#1736 = FACE_BOUND('',#1737,.F.);
#1737 = EDGE_LOOP('',(#1738,#1739,#1740,#1746));
#1738 = ORIENTED_EDGE('',*,*,#944,.F.);
#1739 = ORIENTED_EDGE('',*,*,#1715,.T.);
#1740 = ORIENTED_EDGE('',*,*,#1741,.T.);
#1741 = EDGE_CURVE('',#1716,#1691,#1742,.T.);
#1742 = LINE('',#1743,#1744);
#1743 = CARTESIAN_POINT('',(-21.4,51.4,3.));
#1744 = VECTOR('',#1745,1.);
#1745 = DIRECTION('',(0.,-1.,0.));
#1746 = ORIENTED_EDGE('',*,*,#1690,.F.);
#1747 = PLANE('',#1748);
#1748 = AXIS2_PLACEMENT_3D('',#1749,#1750,#1751);
#1749 = CARTESIAN_POINT('',(-21.4,51.4,0.));
#1750 = DIRECTION('',(1.,0.,0.));
#1751 = DIRECTION('',(0.,-1.,0.));
#1752 = ADVANCED_FACE('',(#1753),#1772,.F.);
#1753 = FACE_BOUND('',#1754,.T.);
#1754 = EDGE_LOOP('',(#1755,#1763,#1770,#1771));
#1755 = ORIENTED_EDGE('',*,*,#1756,.T.);
#1756 = EDGE_CURVE('',#979,#1757,#1759,.T.);
#1757 = VERTEX_POINT('',#1758);
#1758 = CARTESIAN_POINT('',(17.85,-39.4,3.));
#1759 = LINE('',#1760,#1761);
#1760 = CARTESIAN_POINT('',(17.85,-39.4,0.));
#1761 = VECTOR('',#1762,1.);
#1762 = DIRECTION('',(0.,0.,1.));
#1763 = ORIENTED_EDGE('',*,*,#1764,.T.);
#1764 = EDGE_CURVE('',#1757,#1757,#1765,.T.);
#1765 = CIRCLE('',#1766,1.45);
#1766 = AXIS2_PLACEMENT_3D('',#1767,#1768,#1769);
#1767 = CARTESIAN_POINT('',(16.4,-39.4,3.));
#1768 = DIRECTION('',(0.,0.,1.));
#1769 = DIRECTION('',(1.,0.,0.));
#1770 = ORIENTED_EDGE('',*,*,#1756,.F.);
#1771 = ORIENTED_EDGE('',*,*,#978,.F.);
#1772 = CYLINDRICAL_SURFACE('',#1773,1.45);
#1773 = AXIS2_PLACEMENT_3D('',#1774,#1775,#1776);
#1774 = CARTESIAN_POINT('',(16.4,-39.4,0.));
#1775 = DIRECTION('',(-0.,-0.,-1.));
#1776 = DIRECTION('',(1.,0.,0.));
#1777 = ADVANCED_FACE('',(#1778),#1797,.F.);
#1778 = FACE_BOUND('',#1779,.T.);
#1779 = EDGE_LOOP('',(#1780,#1788,#1795,#1796));
#1780 = ORIENTED_EDGE('',*,*,#1781,.T.);
#1781 = EDGE_CURVE('',#990,#1782,#1784,.T.);
#1782 = VERTEX_POINT('',#1783);
#1783 = CARTESIAN_POINT('',(-14.95,-39.4,3.));
#1784 = LINE('',#1785,#1786);
#1785 = CARTESIAN_POINT('',(-14.95,-39.4,0.));
#1786 = VECTOR('',#1787,1.);
#1787 = DIRECTION('',(0.,0.,1.));
#1788 = ORIENTED_EDGE('',*,*,#1789,.T.);
#1789 = EDGE_CURVE('',#1782,#1782,#1790,.T.);
#1790 = CIRCLE('',#1791,1.45);
#1791 = AXIS2_PLACEMENT_3D('',#1792,#1793,#1794);
#1792 = CARTESIAN_POINT('',(-16.4,-39.4,3.));
#1793 = DIRECTION('',(0.,0.,1.));
#1794 = DIRECTION('',(1.,0.,0.));
#1795 = ORIENTED_EDGE('',*,*,#1781,.F.);
#1796 = ORIENTED_EDGE('',*,*,#989,.F.);
#1797 = CYLINDRICAL_SURFACE('',#1798,1.45);
#1798 = AXIS2_PLACEMENT_3D('',#1799,#1800,#1801);
#1799 = CARTESIAN_POINT('',(-16.4,-39.4,0.));
#1800 = DIRECTION('',(-0.,-0.,-1.));
#1801 = DIRECTION('',(1.,0.,0.));
#1802 = ADVANCED_FACE('',(#1803),#1822,.F.);
#1803 = FACE_BOUND('',#1804,.T.);
#1804 = EDGE_LOOP('',(#1805,#1813,#1820,#1821));
#1805 = ORIENTED_EDGE('',*,*,#1806,.T.);
#1806 = EDGE_CURVE('',#1001,#1807,#1809,.T.);
#1807 = VERTEX_POINT('',#1808);
#1808 = CARTESIAN_POINT('',(-14.95,46.4,3.));
#1809 = LINE('',#1810,#1811);
#1810 = CARTESIAN_POINT('',(-14.95,46.4,0.));
#1811 = VECTOR('',#1812,1.);
#1812 = DIRECTION('',(0.,0.,1.));
#1813 = ORIENTED_EDGE('',*,*,#1814,.T.);
#1814 = EDGE_CURVE('',#1807,#1807,#1815,.T.);
#1815 = CIRCLE('',#1816,1.45);
#1816 = AXIS2_PLACEMENT_3D('',#1817,#1818,#1819);
#1817 = CARTESIAN_POINT('',(-16.4,46.4,3.));
#1818 = DIRECTION('',(0.,0.,1.));
#1819 = DIRECTION('',(1.,0.,0.));
#1820 = ORIENTED_EDGE('',*,*,#1806,.F.);
#1821 = ORIENTED_EDGE('',*,*,#1000,.F.);
#1822 = CYLINDRICAL_SURFACE('',#1823,1.45);
#1823 = AXIS2_PLACEMENT_3D('',#1824,#1825,#1826);
#1824 = CARTESIAN_POINT('',(-16.4,46.4,0.));
#1825 = DIRECTION('',(-0.,-0.,-1.));
#1826 = DIRECTION('',(1.,0.,0.));
#1827 = ADVANCED_FACE('',(#1828),#1847,.F.);
#1828 = FACE_BOUND('',#1829,.T.);
#1829 = EDGE_LOOP('',(#1830,#1838,#1845,#1846));
#1830 = ORIENTED_EDGE('',*,*,#1831,.T.);
#1831 = EDGE_CURVE('',#1012,#1832,#1834,.T.);
#1832 = VERTEX_POINT('',#1833);
#1833 = CARTESIAN_POINT('',(17.85,46.4,3.));
#1834 = LINE('',#1835,#1836);
#1835 = CARTESIAN_POINT('',(17.85,46.4,0.));
#1836 = VECTOR('',#1837,1.);
#1837 = DIRECTION('',(0.,0.,1.));
#1838 = ORIENTED_EDGE('',*,*,#1839,.T.);
#1839 = EDGE_CURVE('',#1832,#1832,#1840,.T.);
#1840 = CIRCLE('',#1841,1.45);
#1841 = AXIS2_PLACEMENT_3D('',#1842,#1843,#1844);
#1842 = CARTESIAN_POINT('',(16.4,46.4,3.));
#1843 = DIRECTION('',(0.,0.,1.));
#1844 = DIRECTION('',(1.,0.,0.));
#1845 = ORIENTED_EDGE('',*,*,#1831,.F.);
#1846 = ORIENTED_EDGE('',*,*,#1011,.F.);
#1847 = CYLINDRICAL_SURFACE('',#1848,1.45);
#1848 = AXIS2_PLACEMENT_3D('',#1849,#1850,#1851);
#1849 = CARTESIAN_POINT('',(16.4,46.4,0.));
#1850 = DIRECTION('',(-0.,-0.,-1.));
#1851 = DIRECTION('',(1.,0.,0.));
#1852 = ADVANCED_FACE('',(#1853),#1878,.F.);
#1853 = FACE_BOUND('',#1854,.F.);
#1854 = EDGE_LOOP('',(#1855,#1856,#1864,#1872));
#1855 = ORIENTED_EDGE('',*,*,#1022,.F.);
#1856 = ORIENTED_EDGE('',*,*,#1857,.T.);
#1857 = EDGE_CURVE('',#1023,#1858,#1860,.T.);
#1858 = VERTEX_POINT('',#1859);
#1859 = CARTESIAN_POINT('',(-6.975,7.025,3.));
#1860 = LINE('',#1861,#1862);
#1861 = CARTESIAN_POINT('',(-6.975,7.025,0.));
#1862 = VECTOR('',#1863,1.);
#1863 = DIRECTION('',(0.,0.,1.));
#1864 = ORIENTED_EDGE('',*,*,#1865,.T.);
#1865 = EDGE_CURVE('',#1858,#1866,#1868,.T.);
#1866 = VERTEX_POINT('',#1867);
#1867 = CARTESIAN_POINT('',(-6.975,19.025,3.));
#1868 = LINE('',#1869,#1870);
#1869 = CARTESIAN_POINT('',(-6.975,6.025,3.));
#1870 = VECTOR('',#1871,1.);
#1871 = DIRECTION('',(-2.5E-16,1.,0.));
#1872 = ORIENTED_EDGE('',*,*,#1873,.F.);
#1873 = EDGE_CURVE('',#1025,#1866,#1874,.T.);
#1874 = LINE('',#1875,#1876);
#1875 = CARTESIAN_POINT('',(-6.975,19.025,0.));
#1876 = VECTOR('',#1877,1.);
#1877 = DIRECTION('',(0.,0.,1.));
#1878 = PLANE('',#1879);
#1879 = AXIS2_PLACEMENT_3D('',#1880,#1881,#1882);
#1880 = CARTESIAN_POINT('',(-6.975,6.025,0.));
#1881 = DIRECTION('',(-1.,-2.5E-16,0.));
#1882 = DIRECTION('',(-2.5E-16,1.,0.));
#1883 = ADVANCED_FACE('',(#1884),#1903,.F.);
#1884 = FACE_BOUND('',#1885,.F.);
#1885 = EDGE_LOOP('',(#1886,#1887,#1895,#1902));
#1886 = ORIENTED_EDGE('',*,*,#1032,.T.);
#1887 = ORIENTED_EDGE('',*,*,#1888,.T.);
#1888 = EDGE_CURVE('',#1033,#1889,#1891,.T.);
#1889 = VERTEX_POINT('',#1890);
#1890 = CARTESIAN_POINT('',(-5.975,6.025,3.));
#1891 = LINE('',#1892,#1893);
#1892 = CARTESIAN_POINT('',(-5.975,6.025,0.));
#1893 = VECTOR('',#1894,1.);
#1894 = DIRECTION('',(0.,0.,1.));
#1895 = ORIENTED_EDGE('',*,*,#1896,.F.);
#1896 = EDGE_CURVE('',#1858,#1889,#1897,.T.);
#1897 = CIRCLE('',#1898,1.);
#1898 = AXIS2_PLACEMENT_3D('',#1899,#1900,#1901);
#1899 = CARTESIAN_POINT('',(-5.975,7.025,3.));
#1900 = DIRECTION('',(-0.,0.,1.));
#1901 = DIRECTION('',(0.,-1.,0.));
#1902 = ORIENTED_EDGE('',*,*,#1857,.F.);
#1903 = CYLINDRICAL_SURFACE('',#1904,1.);
#1904 = AXIS2_PLACEMENT_3D('',#1905,#1906,#1907);
#1905 = CARTESIAN_POINT('',(-5.975,7.025,0.));
#1906 = DIRECTION('',(0.,0.,1.));
#1907 = DIRECTION('',(-1.,-2.5E-16,0.));
#1908 = ADVANCED_FACE('',(#1909),#1928,.F.);
#1909 = FACE_BOUND('',#1910,.T.);
#1910 = EDGE_LOOP('',(#1911,#1912,#1920,#1927));
#1911 = ORIENTED_EDGE('',*,*,#1083,.T.);
#1912 = ORIENTED_EDGE('',*,*,#1913,.T.);
#1913 = EDGE_CURVE('',#1076,#1914,#1916,.T.);
#1914 = VERTEX_POINT('',#1915);
#1915 = CARTESIAN_POINT('',(-5.975,20.025,3.));
#1916 = LINE('',#1917,#1918);
#1917 = CARTESIAN_POINT('',(-5.975,20.025,0.));
#1918 = VECTOR('',#1919,1.);
#1919 = DIRECTION('',(0.,0.,1.));
#1920 = ORIENTED_EDGE('',*,*,#1921,.F.);
#1921 = EDGE_CURVE('',#1866,#1914,#1922,.T.);
#1922 = CIRCLE('',#1923,1.);
#1923 = AXIS2_PLACEMENT_3D('',#1924,#1925,#1926);
#1924 = CARTESIAN_POINT('',(-5.975,19.025,3.));
#1925 = DIRECTION('',(-0.,-0.,-1.));
#1926 = DIRECTION('',(0.,-1.,0.));
#1927 = ORIENTED_EDGE('',*,*,#1873,.F.);
#1928 = CYLINDRICAL_SURFACE('',#1929,1.);
#1929 = AXIS2_PLACEMENT_3D('',#1930,#1931,#1932);
#1930 = CARTESIAN_POINT('',(-5.975,19.025,0.));
#1931 = DIRECTION('',(0.,0.,1.));
#1932 = DIRECTION('',(-1.,-2.5E-16,0.));
#1933 = ADVANCED_FACE('',(#1934),#1952,.T.);
#1934 = FACE_BOUND('',#1935,.T.);
#1935 = EDGE_LOOP('',(#1936,#1937,#1938,#1946));
#1936 = ORIENTED_EDGE('',*,*,#1041,.F.);
#1937 = ORIENTED_EDGE('',*,*,#1888,.T.);
#1938 = ORIENTED_EDGE('',*,*,#1939,.T.);
#1939 = EDGE_CURVE('',#1889,#1940,#1942,.T.);
#1940 = VERTEX_POINT('',#1941);
#1941 = CARTESIAN_POINT('',(6.025,6.025,3.));
#1942 = LINE('',#1943,#1944);
#1943 = CARTESIAN_POINT('',(-6.975,6.025,3.));
#1944 = VECTOR('',#1945,1.);
#1945 = DIRECTION('',(1.,5.1E-16,0.));
#1946 = ORIENTED_EDGE('',*,*,#1947,.F.);
#1947 = EDGE_CURVE('',#1042,#1940,#1948,.T.);
#1948 = LINE('',#1949,#1950);
#1949 = CARTESIAN_POINT('',(6.025,6.025,0.));
#1950 = VECTOR('',#1951,1.);
#1951 = DIRECTION('',(0.,0.,1.));
#1952 = PLANE('',#1953);
#1953 = AXIS2_PLACEMENT_3D('',#1954,#1955,#1956);
#1954 = CARTESIAN_POINT('',(-6.975,6.025,0.));
#1955 = DIRECTION('',(-5.1E-16,1.,0.));
#1956 = DIRECTION('',(1.,5.1E-16,0.));
#1957 = ADVANCED_FACE('',(#1958),#1976,.F.);
#1958 = FACE_BOUND('',#1959,.F.);
#1959 = EDGE_LOOP('',(#1960,#1961,#1962,#1970));
#1960 = ORIENTED_EDGE('',*,*,#1075,.F.);
#1961 = ORIENTED_EDGE('',*,*,#1913,.T.);
#1962 = ORIENTED_EDGE('',*,*,#1963,.T.);
#1963 = EDGE_CURVE('',#1914,#1964,#1966,.T.);
#1964 = VERTEX_POINT('',#1965);
#1965 = CARTESIAN_POINT('',(6.025,20.025,3.));
#1966 = LINE('',#1967,#1968);
#1967 = CARTESIAN_POINT('',(-6.975,20.025,3.));
#1968 = VECTOR('',#1969,1.);
#1969 = DIRECTION('',(1.,5.1E-16,0.));
#1970 = ORIENTED_EDGE('',*,*,#1971,.F.);
#1971 = EDGE_CURVE('',#1067,#1964,#1972,.T.);
#1972 = LINE('',#1973,#1974);
#1973 = CARTESIAN_POINT('',(6.025,20.025,0.));
#1974 = VECTOR('',#1975,1.);
#1975 = DIRECTION('',(0.,0.,1.));
#1976 = PLANE('',#1977);
#1977 = AXIS2_PLACEMENT_3D('',#1978,#1979,#1980);
#1978 = CARTESIAN_POINT('',(-6.975,20.025,0.));
#1979 = DIRECTION('',(-5.1E-16,1.,0.));
#1980 = DIRECTION('',(1.,5.1E-16,0.));
#1981 = ADVANCED_FACE('',(#1982),#2001,.F.);
#1982 = FACE_BOUND('',#1983,.F.);
#1983 = EDGE_LOOP('',(#1984,#1985,#1993,#2000));
#1984 = ORIENTED_EDGE('',*,*,#1049,.T.);
#1985 = ORIENTED_EDGE('',*,*,#1986,.T.);
#1986 = EDGE_CURVE('',#1050,#1987,#1989,.T.);
#1987 = VERTEX_POINT('',#1988);
#1988 = CARTESIAN_POINT('',(7.025,7.025,3.));
#1989 = LINE('',#1990,#1991);
#1990 = CARTESIAN_POINT('',(7.025,7.025,0.));
#1991 = VECTOR('',#1992,1.);
#1992 = DIRECTION('',(0.,0.,1.));
#1993 = ORIENTED_EDGE('',*,*,#1994,.F.);
#1994 = EDGE_CURVE('',#1940,#1987,#1995,.T.);
#1995 = CIRCLE('',#1996,1.);
#1996 = AXIS2_PLACEMENT_3D('',#1997,#1998,#1999);
#1997 = CARTESIAN_POINT('',(6.025,7.025,3.));
#1998 = DIRECTION('',(-0.,0.,1.));
#1999 = DIRECTION('',(0.,-1.,0.));
#2000 = ORIENTED_EDGE('',*,*,#1947,.F.);
#2001 = CYLINDRICAL_SURFACE('',#2002,1.);
#2002 = AXIS2_PLACEMENT_3D('',#2003,#2004,#2005);
#2003 = CARTESIAN_POINT('',(6.025,7.025,0.));
#2004 = DIRECTION('',(0.,0.,1.));
#2005 = DIRECTION('',(5.1E-16,-1.,0.));
#2006 = ADVANCED_FACE('',(#2007),#2026,.F.);
#2007 = FACE_BOUND('',#2008,.F.);
#2008 = EDGE_LOOP('',(#2009,#2010,#2011,#2020));
#2009 = ORIENTED_EDGE('',*,*,#1066,.T.);
#2010 = ORIENTED_EDGE('',*,*,#1971,.T.);
#2011 = ORIENTED_EDGE('',*,*,#2012,.F.);
#2012 = EDGE_CURVE('',#2013,#1964,#2015,.T.);
#2013 = VERTEX_POINT('',#2014);
#2014 = CARTESIAN_POINT('',(7.025,19.025,3.));
#2015 = CIRCLE('',#2016,1.);
#2016 = AXIS2_PLACEMENT_3D('',#2017,#2018,#2019);
#2017 = CARTESIAN_POINT('',(6.025,19.025,3.));
#2018 = DIRECTION('',(-0.,0.,1.));
#2019 = DIRECTION('',(0.,-1.,0.));
#2020 = ORIENTED_EDGE('',*,*,#2021,.F.);
#2021 = EDGE_CURVE('',#1059,#2013,#2022,.T.);
#2022 = LINE('',#2023,#2024);
#2023 = CARTESIAN_POINT('',(7.025,19.025,0.));
#2024 = VECTOR('',#2025,1.);
#2025 = DIRECTION('',(0.,0.,1.));
#2026 = CYLINDRICAL_SURFACE('',#2027,1.);
#2027 = AXIS2_PLACEMENT_3D('',#2028,#2029,#2030);
#2028 = CARTESIAN_POINT('',(6.025,19.025,0.));
#2029 = DIRECTION('',(0.,0.,1.));
#2030 = DIRECTION('',(1.,0.,-0.));
#2031 = ADVANCED_FACE('',(#2032),#2043,.T.);
#2032 = FACE_BOUND('',#2033,.T.);
#2033 = EDGE_LOOP('',(#2034,#2035,#2036,#2042));
#2034 = ORIENTED_EDGE('',*,*,#1058,.F.);
#2035 = ORIENTED_EDGE('',*,*,#1986,.T.);
#2036 = ORIENTED_EDGE('',*,*,#2037,.T.);
#2037 = EDGE_CURVE('',#1987,#2013,#2038,.T.);
#2038 = LINE('',#2039,#2040);
#2039 = CARTESIAN_POINT('',(7.025,6.025,3.));
#2040 = VECTOR('',#2041,1.);
#2041 = DIRECTION('',(0.,1.,0.));
#2042 = ORIENTED_EDGE('',*,*,#2021,.F.);
#2043 = PLANE('',#2044);
#2044 = AXIS2_PLACEMENT_3D('',#2045,#2046,#2047);
#2045 = CARTESIAN_POINT('',(7.025,6.025,0.));
#2046 = DIRECTION('',(-1.,0.,0.));
#2047 = DIRECTION('',(0.,1.,0.));
#2048 = ADVANCED_FACE('',(#2049),#2074,.T.);
#2049 = FACE_BOUND('',#2050,.T.);
#2050 = EDGE_LOOP('',(#2051,#2052,#2060,#2068));
#2051 = ORIENTED_EDGE('',*,*,#1092,.F.);
#2052 = ORIENTED_EDGE('',*,*,#2053,.T.);
#2053 = EDGE_CURVE('',#1093,#2054,#2056,.T.);
#2054 = VERTEX_POINT('',#2055);
#2055 = CARTESIAN_POINT('',(-5.975,-32.075,3.));
#2056 = LINE('',#2057,#2058);
#2057 = CARTESIAN_POINT('',(-5.975,-32.075,0.));
#2058 = VECTOR('',#2059,1.);
#2059 = DIRECTION('',(0.,0.,1.));
#2060 = ORIENTED_EDGE('',*,*,#2061,.T.);
#2061 = EDGE_CURVE('',#2054,#2062,#2064,.T.);
#2062 = VERTEX_POINT('',#2063);
#2063 = CARTESIAN_POINT('',(6.025,-32.075,3.));
#2064 = LINE('',#2065,#2066);
#2065 = CARTESIAN_POINT('',(-6.975,-32.075,3.));
#2066 = VECTOR('',#2067,1.);
#2067 = DIRECTION('',(1.,5.1E-16,0.));
#2068 = ORIENTED_EDGE('',*,*,#2069,.F.);
#2069 = EDGE_CURVE('',#1095,#2062,#2070,.T.);
#2070 = LINE('',#2071,#2072);
#2071 = CARTESIAN_POINT('',(6.025,-32.075,0.));
#2072 = VECTOR('',#2073,1.);
#2073 = DIRECTION('',(0.,0.,1.));
#2074 = PLANE('',#2075);
#2075 = AXIS2_PLACEMENT_3D('',#2076,#2077,#2078);
#2076 = CARTESIAN_POINT('',(-6.975,-32.075,0.));
#2077 = DIRECTION('',(-5.1E-16,1.,0.));
#2078 = DIRECTION('',(1.,5.1E-16,0.));
#2079 = ADVANCED_FACE('',(#2080),#2099,.F.);
#2080 = FACE_BOUND('',#2081,.T.);
#2081 = EDGE_LOOP('',(#2082,#2083,#2091,#2098));
#2082 = ORIENTED_EDGE('',*,*,#1153,.T.);
#2083 = ORIENTED_EDGE('',*,*,#2084,.T.);
#2084 = EDGE_CURVE('',#1146,#2085,#2087,.T.);
#2085 = VERTEX_POINT('',#2086);
#2086 = CARTESIAN_POINT('',(-6.975,-31.075,3.));
#2087 = LINE('',#2088,#2089);
#2088 = CARTESIAN_POINT('',(-6.975,-31.075,0.));
#2089 = VECTOR('',#2090,1.);
#2090 = DIRECTION('',(0.,0.,1.));
#2091 = ORIENTED_EDGE('',*,*,#2092,.F.);
#2092 = EDGE_CURVE('',#2054,#2085,#2093,.T.);
#2093 = CIRCLE('',#2094,1.);
#2094 = AXIS2_PLACEMENT_3D('',#2095,#2096,#2097);
#2095 = CARTESIAN_POINT('',(-5.975,-31.075,3.));
#2096 = DIRECTION('',(-0.,-0.,-1.));
#2097 = DIRECTION('',(0.,-1.,0.));
#2098 = ORIENTED_EDGE('',*,*,#2053,.F.);
#2099 = CYLINDRICAL_SURFACE('',#2100,1.);
#2100 = AXIS2_PLACEMENT_3D('',#2101,#2102,#2103);
#2101 = CARTESIAN_POINT('',(-5.975,-31.075,0.));
#2102 = DIRECTION('',(0.,0.,1.));
#2103 = DIRECTION('',(5.1E-16,-1.,0.));
#2104 = ADVANCED_FACE('',(#2105),#2124,.F.);
#2105 = FACE_BOUND('',#2106,.F.);
#2106 = EDGE_LOOP('',(#2107,#2108,#2116,#2123));
#2107 = ORIENTED_EDGE('',*,*,#1102,.T.);
#2108 = ORIENTED_EDGE('',*,*,#2109,.T.);
#2109 = EDGE_CURVE('',#1103,#2110,#2112,.T.);
#2110 = VERTEX_POINT('',#2111);
#2111 = CARTESIAN_POINT('',(7.025,-31.075,3.));
#2112 = LINE('',#2113,#2114);
#2113 = CARTESIAN_POINT('',(7.025,-31.075,0.));
#2114 = VECTOR('',#2115,1.);
#2115 = DIRECTION('',(0.,0.,1.));
#2116 = ORIENTED_EDGE('',*,*,#2117,.F.);
#2117 = EDGE_CURVE('',#2062,#2110,#2118,.T.);
#2118 = CIRCLE('',#2119,1.);
#2119 = AXIS2_PLACEMENT_3D('',#2120,#2121,#2122);
#2120 = CARTESIAN_POINT('',(6.025,-31.075,3.));
#2121 = DIRECTION('',(-0.,0.,1.));
#2122 = DIRECTION('',(0.,-1.,0.));
#2123 = ORIENTED_EDGE('',*,*,#2069,.F.);
#2124 = CYLINDRICAL_SURFACE('',#2125,1.);
#2125 = AXIS2_PLACEMENT_3D('',#2126,#2127,#2128);
#2126 = CARTESIAN_POINT('',(6.025,-31.075,0.));
#2127 = DIRECTION('',(0.,0.,1.));
#2128 = DIRECTION('',(5.1E-16,-1.,0.));
#2129 = ADVANCED_FACE('',(#2130),#2148,.F.);
#2130 = FACE_BOUND('',#2131,.F.);
#2131 = EDGE_LOOP('',(#2132,#2133,#2134,#2142));
#2132 = ORIENTED_EDGE('',*,*,#1145,.F.);
#2133 = ORIENTED_EDGE('',*,*,#2084,.T.);
#2134 = ORIENTED_EDGE('',*,*,#2135,.T.);
#2135 = EDGE_CURVE('',#2085,#2136,#2138,.T.);
#2136 = VERTEX_POINT('',#2137);
#2137 = CARTESIAN_POINT('',(-6.975,-19.075,3.));
#2138 = LINE('',#2139,#2140);
#2139 = CARTESIAN_POINT('',(-6.975,-32.075,3.));
#2140 = VECTOR('',#2141,1.);
#2141 = DIRECTION('',(-2.5E-16,1.,0.));
#2142 = ORIENTED_EDGE('',*,*,#2143,.F.);
#2143 = EDGE_CURVE('',#1137,#2136,#2144,.T.);
#2144 = LINE('',#2145,#2146);
#2145 = CARTESIAN_POINT('',(-6.975,-19.075,0.));
#2146 = VECTOR('',#2147,1.);
#2147 = DIRECTION('',(0.,0.,1.));
#2148 = PLANE('',#2149);
#2149 = AXIS2_PLACEMENT_3D('',#2150,#2151,#2152);
#2150 = CARTESIAN_POINT('',(-6.975,-32.075,0.));
#2151 = DIRECTION('',(-1.,-2.5E-16,0.));
#2152 = DIRECTION('',(-2.5E-16,1.,0.));
#2153 = ADVANCED_FACE('',(#2154),#2172,.T.);
#2154 = FACE_BOUND('',#2155,.T.);
#2155 = EDGE_LOOP('',(#2156,#2157,#2158,#2166));
#2156 = ORIENTED_EDGE('',*,*,#1111,.F.);
#2157 = ORIENTED_EDGE('',*,*,#2109,.T.);
#2158 = ORIENTED_EDGE('',*,*,#2159,.T.);
#2159 = EDGE_CURVE('',#2110,#2160,#2162,.T.);
#2160 = VERTEX_POINT('',#2161);
#2161 = CARTESIAN_POINT('',(7.025,-19.075,3.));
#2162 = LINE('',#2163,#2164);
#2163 = CARTESIAN_POINT('',(7.025,-32.075,3.));
#2164 = VECTOR('',#2165,1.);
#2165 = DIRECTION('',(-2.5E-16,1.,0.));
#2166 = ORIENTED_EDGE('',*,*,#2167,.F.);
#2167 = EDGE_CURVE('',#1112,#2160,#2168,.T.);
#2168 = LINE('',#2169,#2170);
#2169 = CARTESIAN_POINT('',(7.025,-19.075,0.));
#2170 = VECTOR('',#2171,1.);
#2171 = DIRECTION('',(0.,0.,1.));
#2172 = PLANE('',#2173);
#2173 = AXIS2_PLACEMENT_3D('',#2174,#2175,#2176);
#2174 = CARTESIAN_POINT('',(7.025,-32.075,0.));
#2175 = DIRECTION('',(-1.,-2.5E-16,0.));
#2176 = DIRECTION('',(-2.5E-16,1.,0.));
#2177 = ADVANCED_FACE('',(#2178),#2197,.F.);
#2178 = FACE_BOUND('',#2179,.F.);
#2179 = EDGE_LOOP('',(#2180,#2181,#2182,#2191));
#2180 = ORIENTED_EDGE('',*,*,#1136,.T.);
#2181 = ORIENTED_EDGE('',*,*,#2143,.T.);
#2182 = ORIENTED_EDGE('',*,*,#2183,.F.);
#2183 = EDGE_CURVE('',#2184,#2136,#2186,.T.);
#2184 = VERTEX_POINT('',#2185);
#2185 = CARTESIAN_POINT('',(-5.975,-18.075,3.));
#2186 = CIRCLE('',#2187,1.);
#2187 = AXIS2_PLACEMENT_3D('',#2188,#2189,#2190);
#2188 = CARTESIAN_POINT('',(-5.975,-19.075,3.));
#2189 = DIRECTION('',(-0.,0.,1.));
#2190 = DIRECTION('',(0.,-1.,0.));
#2191 = ORIENTED_EDGE('',*,*,#2192,.F.);
#2192 = EDGE_CURVE('',#1129,#2184,#2193,.T.);
#2193 = LINE('',#2194,#2195);
#2194 = CARTESIAN_POINT('',(-5.975,-18.075,0.));
#2195 = VECTOR('',#2196,1.);
#2196 = DIRECTION('',(0.,0.,1.));
#2197 = CYLINDRICAL_SURFACE('',#2198,1.);
#2198 = AXIS2_PLACEMENT_3D('',#2199,#2200,#2201);
#2199 = CARTESIAN_POINT('',(-5.975,-19.075,0.));
#2200 = DIRECTION('',(0.,0.,1.));
#2201 = DIRECTION('',(-2.5E-16,1.,0.));
#2202 = ADVANCED_FACE('',(#2203),#2222,.F.);
#2203 = FACE_BOUND('',#2204,.F.);
#2204 = EDGE_LOOP('',(#2205,#2206,#2214,#2221));
#2205 = ORIENTED_EDGE('',*,*,#1119,.T.);
#2206 = ORIENTED_EDGE('',*,*,#2207,.T.);
#2207 = EDGE_CURVE('',#1120,#2208,#2210,.T.);
#2208 = VERTEX_POINT('',#2209);
#2209 = CARTESIAN_POINT('',(6.025,-18.075,3.));
#2210 = LINE('',#2211,#2212);
#2211 = CARTESIAN_POINT('',(6.025,-18.075,0.));
#2212 = VECTOR('',#2213,1.);
#2213 = DIRECTION('',(0.,0.,1.));
#2214 = ORIENTED_EDGE('',*,*,#2215,.F.);
#2215 = EDGE_CURVE('',#2160,#2208,#2216,.T.);
#2216 = CIRCLE('',#2217,1.);
#2217 = AXIS2_PLACEMENT_3D('',#2218,#2219,#2220);
#2218 = CARTESIAN_POINT('',(6.025,-19.075,3.));
#2219 = DIRECTION('',(-0.,0.,1.));
#2220 = DIRECTION('',(0.,-1.,0.));
#2221 = ORIENTED_EDGE('',*,*,#2167,.F.);
#2222 = CYLINDRICAL_SURFACE('',#2223,1.);
#2223 = AXIS2_PLACEMENT_3D('',#2224,#2225,#2226);
#2224 = CARTESIAN_POINT('',(6.025,-19.075,0.));
#2225 = DIRECTION('',(0.,0.,1.));
#2226 = DIRECTION('',(1.,2.5E-16,-0.));
#2227 = ADVANCED_FACE('',(#2228),#2239,.F.);
#2228 = FACE_BOUND('',#2229,.F.);
#2229 = EDGE_LOOP('',(#2230,#2231,#2232,#2238));
#2230 = ORIENTED_EDGE('',*,*,#1128,.F.);
#2231 = ORIENTED_EDGE('',*,*,#2192,.T.);
#2232 = ORIENTED_EDGE('',*,*,#2233,.T.);
#2233 = EDGE_CURVE('',#2184,#2208,#2234,.T.);
#2234 = LINE('',#2235,#2236);
#2235 = CARTESIAN_POINT('',(-6.975,-18.075,3.));
#2236 = VECTOR('',#2237,1.);
#2237 = DIRECTION('',(1.,2.5E-16,0.));
#2238 = ORIENTED_EDGE('',*,*,#2207,.F.);
#2239 = PLANE('',#2240);
#2240 = AXIS2_PLACEMENT_3D('',#2241,#2242,#2243);
#2241 = CARTESIAN_POINT('',(-6.975,-18.075,0.));
#2242 = DIRECTION('',(-2.5E-16,1.,0.));
#2243 = DIRECTION('',(1.,2.5E-16,0.));
#2244 = ADVANCED_FACE('',(#2245,#2255,#2265,#2275,#2278,#2281,#2284,
    #2287,#2297),#2307,.T.);
#2245 = FACE_BOUND('',#2246,.T.);
#2246 = EDGE_LOOP('',(#2247,#2248,#2249,#2250,#2251,#2252,#2253,#2254));
#2247 = ORIENTED_EDGE('',*,*,#1177,.T.);
#2248 = ORIENTED_EDGE('',*,*,#1233,.T.);
#2249 = ORIENTED_EDGE('',*,*,#1275,.T.);
#2250 = ORIENTED_EDGE('',*,*,#1324,.F.);
#2251 = ORIENTED_EDGE('',*,*,#1349,.F.);
#2252 = ORIENTED_EDGE('',*,*,#1306,.F.);
#2253 = ORIENTED_EDGE('',*,*,#1251,.F.);
#2254 = ORIENTED_EDGE('',*,*,#1208,.F.);
#2255 = FACE_BOUND('',#2256,.T.);
#2256 = EDGE_LOOP('',(#2257,#2258,#2259,#2260,#2261,#2262,#2263,#2264));
#2257 = ORIENTED_EDGE('',*,*,#1373,.F.);
#2258 = ORIENTED_EDGE('',*,*,#1404,.T.);
#2259 = ORIENTED_EDGE('',*,*,#1447,.T.);
#2260 = ORIENTED_EDGE('',*,*,#1495,.F.);
#2261 = ORIENTED_EDGE('',*,*,#1545,.T.);
#2262 = ORIENTED_EDGE('',*,*,#1527,.F.);
#2263 = ORIENTED_EDGE('',*,*,#1471,.F.);
#2264 = ORIENTED_EDGE('',*,*,#1429,.F.);
#2265 = FACE_BOUND('',#2266,.T.);
#2266 = EDGE_LOOP('',(#2267,#2268,#2269,#2270,#2271,#2272,#2273,#2274));
#2267 = ORIENTED_EDGE('',*,*,#1569,.T.);
#2268 = ORIENTED_EDGE('',*,*,#1625,.T.);
#2269 = ORIENTED_EDGE('',*,*,#1667,.T.);
#2270 = ORIENTED_EDGE('',*,*,#1723,.T.);
#2271 = ORIENTED_EDGE('',*,*,#1741,.T.);
#2272 = ORIENTED_EDGE('',*,*,#1698,.F.);
#2273 = ORIENTED_EDGE('',*,*,#1650,.T.);
#2274 = ORIENTED_EDGE('',*,*,#1600,.F.);
#2275 = FACE_BOUND('',#2276,.T.);
#2276 = EDGE_LOOP('',(#2277));
#2277 = ORIENTED_EDGE('',*,*,#1764,.F.);
#2278 = FACE_BOUND('',#2279,.T.);
#2279 = EDGE_LOOP('',(#2280));
#2280 = ORIENTED_EDGE('',*,*,#1789,.F.);
#2281 = FACE_BOUND('',#2282,.T.);
#2282 = EDGE_LOOP('',(#2283));
#2283 = ORIENTED_EDGE('',*,*,#1814,.F.);
#2284 = FACE_BOUND('',#2285,.T.);
#2285 = EDGE_LOOP('',(#2286));
#2286 = ORIENTED_EDGE('',*,*,#1839,.F.);
#2287 = FACE_BOUND('',#2288,.T.);
#2288 = EDGE_LOOP('',(#2289,#2290,#2291,#2292,#2293,#2294,#2295,#2296));
#2289 = ORIENTED_EDGE('',*,*,#1865,.T.);
#2290 = ORIENTED_EDGE('',*,*,#1921,.T.);
#2291 = ORIENTED_EDGE('',*,*,#1963,.T.);
#2292 = ORIENTED_EDGE('',*,*,#2012,.F.);
#2293 = ORIENTED_EDGE('',*,*,#2037,.F.);
#2294 = ORIENTED_EDGE('',*,*,#1994,.F.);
#2295 = ORIENTED_EDGE('',*,*,#1939,.F.);
#2296 = ORIENTED_EDGE('',*,*,#1896,.F.);
#2297 = FACE_BOUND('',#2298,.T.);
#2298 = EDGE_LOOP('',(#2299,#2300,#2301,#2302,#2303,#2304,#2305,#2306));
#2299 = ORIENTED_EDGE('',*,*,#2061,.F.);
#2300 = ORIENTED_EDGE('',*,*,#2092,.T.);
#2301 = ORIENTED_EDGE('',*,*,#2135,.T.);
#2302 = ORIENTED_EDGE('',*,*,#2183,.F.);
#2303 = ORIENTED_EDGE('',*,*,#2233,.T.);
#2304 = ORIENTED_EDGE('',*,*,#2215,.F.);
#2305 = ORIENTED_EDGE('',*,*,#2159,.F.);
#2306 = ORIENTED_EDGE('',*,*,#2117,.F.);
#2307 = PLANE('',#2308);
#2308 = AXIS2_PLACEMENT_3D('',#2309,#2310,#2311);
#2309 = CARTESIAN_POINT('',(3.9E-15,3.5,3.));
#2310 = DIRECTION('',(0.,0.,1.));
#2311 = DIRECTION('',(1.,0.,0.));
#2312 = ( GEOMETRIC_REPRESENTATION_CONTEXT(3) 
GLOBAL_UNCERTAINTY_ASSIGNED_CONTEXT((#2316)) 
GLOBAL_UNIT_ASSIGNED_CONTEXT((#2313,#2314,#2315)) REPRESENTATION_CONTEXT
('Context #1','3D Context with UNIT and UNCERTAINTY') );
#2313 = ( LENGTH_UNIT() NAMED_UNIT(*) SI_UNIT(.MILLI.,.METRE.) );
#2314 = ( NAMED_UNIT(*) PLANE_ANGLE_UNIT() SI_UNIT($,.RADIAN.) );
#2315 = ( NAMED_UNIT(*) SI_UNIT($,.STERADIAN.) SOLID_ANGLE_UNIT() );
#2316 = UNCERTAINTY_MEASURE_WITH_UNIT(LENGTH_MEASURE(1.E-07),#2313,
  'distance_accuracy_value','confusion accuracy');
#2317 = CONTEXT_DEPENDENT_SHAPE_REPRESENTATION(#2318,#2320);
#2318 = ( REPRESENTATION_RELATIONSHIP('','',#761,#10) 
REPRESENTATION_RELATIONSHIP_WITH_TRANSFORMATION(#2319) 
SHAPE_REPRESENTATION_RELATIONSHIP() );
#2319 = ITEM_DEFINED_TRANSFORMATION('','',#11,#19);
#2320 = PRODUCT_DEFINITION_SHAPE('Placement','Placement of an item',
  #2321);
#2321 = NEXT_ASSEMBLY_USAGE_OCCURRENCE('2','topplate','',#5,#756,$);
#2322 = PRODUCT_RELATED_PRODUCT_CATEGORY('part',$,(#758));
#2323 = MECHANICAL_DESIGN_GEOMETRIC_PRESENTATION_REPRESENTATION('',(
    #2324),#2312);
#2324 = STYLED_ITEM('color',(#2325),#762);
#2325 = PRESENTATION_STYLE_ASSIGNMENT((#2326,#2332));
#2326 = SURFACE_STYLE_USAGE(.BOTH.,#2327);
#2327 = SURFACE_SIDE_STYLE('',(#2328));
#2328 = SURFACE_STYLE_FILL_AREA(#2329);
#2329 = FILL_AREA_STYLE('',(#2330));
#2330 = FILL_AREA_STYLE_COLOUR('',#2331);
#2331 = COLOUR_RGB('',0.447058818107,0.474509808674,0.501960817233);
#2332 = CURVE_STYLE('',#2333,POSITIVE_LENGTH_MEASURE(0.1),#2334);
#2333 = DRAUGHTING_PRE_DEFINED_CURVE_FONT('continuous');
#2334 = COLOUR_RGB('',9.803921802644E-02,9.803921802644E-02,
  9.803921802644E-02);
#2335 = MECHANICAL_DESIGN_GEOMETRIC_PRESENTATION_REPRESENTATION('',(
    #2336),#743);
#2336 = STYLED_ITEM('color',(#2337),#37);
#2337 = PRESENTATION_STYLE_ASSIGNMENT((#2338,#2343));
#2338 = SURFACE_STYLE_USAGE(.BOTH.,#2339);
#2339 = SURFACE_SIDE_STYLE('',(#2340));
#2340 = SURFACE_STYLE_FILL_AREA(#2341);
#2341 = FILL_AREA_STYLE('',(#2342));
#2342 = FILL_AREA_STYLE_COLOUR('',#2331);
#2343 = CURVE_STYLE('',#2344,POSITIVE_LENGTH_MEASURE(0.1),#2334);
#2344 = DRAUGHTING_PRE_DEFINED_CURVE_FONT('continuous');
ENDSEC;
END-ISO-10303-21;
