ISO-10303-21;
HEADER;
FILE_DESCRIPTION(('FreeCAD Model'),'2;1');
FILE_NAME('Open CASCADE Shape Model','2026-08-12T20:38:34',('Author'),(
    ''),'Open CASCADE STEP processor 7.8','FreeCAD','Unknown');
FILE_SCHEMA(('AUTOMOTIVE_DESIGN { 1 0 10303 214 1 1 1 1 }'));
ENDSEC;
DATA;
#1 = APPLICATION_PROTOCOL_DEFINITION('international standard',
  'automotive_design',2000,#2);
#2 = APPLICATION_CONTEXT(
  'core data for automotive mechanical design processes');
#3 = SHAPE_DEFINITION_REPRESENTATION(#4,#10);
#4 = PRODUCT_DEFINITION_SHAPE('','',#5);
#5 = PRODUCT_DEFINITION('design','',#6,#9);
#6 = PRODUCT_DEFINITION_FORMATION('','',#7);
#7 = PRODUCT('mainplate','mainplate','',(#8));
#8 = PRODUCT_CONTEXT('',#2,'mechanical');
#9 = PRODUCT_DEFINITION_CONTEXT('part definition',#2,'design');
#10 = ADVANCED_BREP_SHAPE_REPRESENTATION('',(#11,#15),#1612);
#11 = AXIS2_PLACEMENT_3D('',#12,#13,#14);
#12 = CARTESIAN_POINT('',(0.,0.,0.));
#13 = DIRECTION('',(0.,0.,1.));
#14 = DIRECTION('',(1.,0.,-0.));
#15 = MANIFOLD_SOLID_BREP('',#16);
#16 = CLOSED_SHELL('',(#17,#139,#172,#339,#370,#395,#420,#503,#534,#558,
    #576,#782,#799,#823,#847,#879,#919,#943,#990,#1014,#1038,#1055,#1072
    ,#1097,#1114,#1130,#1146,#1162,#1178,#1211,#1235,#1259,#1277,#1294,
    #1319,#1336,#1354,#1366,#1390,#1415,#1433,#1456,#1468,#1486,#1504,
    #1522,#1540,#1552,#1564,#1576,#1588,#1600));
#17 = ADVANCED_FACE('',(#18),#134,.T.);
#18 = FACE_BOUND('',#19,.T.);
#19 = EDGE_LOOP('',(#20,#30,#38,#46,#54,#62,#71,#79,#87,#95,#103,#111,
    #120,#128));
#20 = ORIENTED_EDGE('',*,*,#21,.F.);
#21 = EDGE_CURVE('',#22,#24,#26,.T.);
#22 = VERTEX_POINT('',#23);
#23 = CARTESIAN_POINT('',(21.4,-42.4,-10.));
#24 = VERTEX_POINT('',#25);
#25 = CARTESIAN_POINT('',(21.4,-42.4,2.));
#26 = LINE('',#27,#28);
#27 = CARTESIAN_POINT('',(21.4,-42.4,-10.));
#28 = VECTOR('',#29,1.);
#29 = DIRECTION('',(0.,0.,1.));
#30 = ORIENTED_EDGE('',*,*,#31,.T.);
#31 = EDGE_CURVE('',#22,#32,#34,.T.);
#32 = VERTEX_POINT('',#33);
#33 = CARTESIAN_POINT('',(21.4,49.4,-10.));
#34 = LINE('',#35,#36);
#35 = CARTESIAN_POINT('',(21.4,-44.4,-10.));
#36 = VECTOR('',#37,1.);
#37 = DIRECTION('',(0.,1.,0.));
#38 = ORIENTED_EDGE('',*,*,#39,.T.);
#39 = EDGE_CURVE('',#32,#40,#42,.T.);
#40 = VERTEX_POINT('',#41);
#41 = CARTESIAN_POINT('',(21.4,49.4,2.));
#42 = LINE('',#43,#44);
#43 = CARTESIAN_POINT('',(21.4,49.4,-10.));
#44 = VECTOR('',#45,1.);
#45 = DIRECTION('',(0.,0.,1.));
#46 = ORIENTED_EDGE('',*,*,#47,.F.);
#47 = EDGE_CURVE('',#48,#40,#50,.T.);
#48 = VERTEX_POINT('',#49);
#49 = CARTESIAN_POINT('',(21.4,41.4,2.));
#50 = LINE('',#51,#52);
#51 = CARTESIAN_POINT('',(21.4,41.4,2.));
#52 = VECTOR('',#53,1.);
#53 = DIRECTION('',(0.,1.,0.));
#54 = ORIENTED_EDGE('',*,*,#55,.T.);
#55 = EDGE_CURVE('',#48,#56,#58,.T.);
#56 = VERTEX_POINT('',#57);
#57 = CARTESIAN_POINT('',(21.4,41.4,1.));
#58 = LINE('',#59,#60);
#59 = CARTESIAN_POINT('',(21.4,41.4,-1.75));
#60 = VECTOR('',#61,1.);
#61 = DIRECTION('',(0.,0.,-1.));
#62 = ORIENTED_EDGE('',*,*,#63,.F.);
#63 = EDGE_CURVE('',#64,#56,#66,.T.);
#64 = VERTEX_POINT('',#65);
#65 = CARTESIAN_POINT('',(21.4,40.4,0.));
#66 = CIRCLE('',#67,1.);
#67 = AXIS2_PLACEMENT_3D('',#68,#69,#70);
#68 = CARTESIAN_POINT('',(21.4,40.4,1.));
#69 = DIRECTION('',(1.,-0.,0.));
#70 = DIRECTION('',(0.,0.,-1.));
#71 = ORIENTED_EDGE('',*,*,#72,.T.);
#72 = EDGE_CURVE('',#64,#73,#75,.T.);
#73 = VERTEX_POINT('',#74);
#74 = CARTESIAN_POINT('',(21.4,39.4,0.));
#75 = LINE('',#76,#77);
#76 = CARTESIAN_POINT('',(21.4,19.95,0.));
#77 = VECTOR('',#78,1.);
#78 = DIRECTION('',(0.,-1.,0.));
#79 = ORIENTED_EDGE('',*,*,#80,.F.);
#80 = EDGE_CURVE('',#81,#73,#83,.T.);
#81 = VERTEX_POINT('',#82);
#82 = CARTESIAN_POINT('',(21.4,39.4,3.));
#83 = LINE('',#84,#85);
#84 = CARTESIAN_POINT('',(21.4,39.4,-1.75));
#85 = VECTOR('',#86,1.);
#86 = DIRECTION('',(0.,0.,-1.));
#87 = ORIENTED_EDGE('',*,*,#88,.F.);
#88 = EDGE_CURVE('',#89,#81,#91,.T.);
#89 = VERTEX_POINT('',#90);
#90 = CARTESIAN_POINT('',(21.4,33.4,3.));
#91 = LINE('',#92,#93);
#92 = CARTESIAN_POINT('',(21.4,-44.4,3.));
#93 = VECTOR('',#94,1.);
#94 = DIRECTION('',(0.,1.,0.));
#95 = ORIENTED_EDGE('',*,*,#96,.F.);
#96 = EDGE_CURVE('',#97,#89,#99,.T.);
#97 = VERTEX_POINT('',#98);
#98 = CARTESIAN_POINT('',(21.4,33.4,0.));
#99 = LINE('',#100,#101);
#100 = CARTESIAN_POINT('',(21.4,33.4,-1.75));
#101 = VECTOR('',#102,1.);
#102 = DIRECTION('',(0.,0.,1.));
#103 = ORIENTED_EDGE('',*,*,#104,.T.);
#104 = EDGE_CURVE('',#97,#105,#107,.T.);
#105 = VERTEX_POINT('',#106);
#106 = CARTESIAN_POINT('',(21.4,32.4,0.));
#107 = LINE('',#108,#109);
#108 = CARTESIAN_POINT('',(21.4,19.95,0.));
#109 = VECTOR('',#110,1.);
#110 = DIRECTION('',(0.,-1.,0.));
#111 = ORIENTED_EDGE('',*,*,#112,.T.);
#112 = EDGE_CURVE('',#105,#113,#115,.T.);
#113 = VERTEX_POINT('',#114);
#114 = CARTESIAN_POINT('',(21.4,31.4,1.));
#115 = CIRCLE('',#116,1.);
#116 = AXIS2_PLACEMENT_3D('',#117,#118,#119);
#117 = CARTESIAN_POINT('',(21.4,32.4,1.));
#118 = DIRECTION('',(-1.,0.,0.));
#119 = DIRECTION('',(0.,0.,1.));
#120 = ORIENTED_EDGE('',*,*,#121,.T.);
#121 = EDGE_CURVE('',#113,#122,#124,.T.);
#122 = VERTEX_POINT('',#123);
#123 = CARTESIAN_POINT('',(21.4,31.4,2.));
#124 = LINE('',#125,#126);
#125 = CARTESIAN_POINT('',(21.4,31.4,-1.75));
#126 = VECTOR('',#127,1.);
#127 = DIRECTION('',(0.,0.,1.));
#128 = ORIENTED_EDGE('',*,*,#129,.F.);
#129 = EDGE_CURVE('',#24,#122,#130,.T.);
#130 = LINE('',#131,#132);
#131 = CARTESIAN_POINT('',(21.4,-42.4,2.));
#132 = VECTOR('',#133,1.);
#133 = DIRECTION('',(0.,1.,0.));
#134 = PLANE('',#135);
#135 = AXIS2_PLACEMENT_3D('',#136,#137,#138);
#136 = CARTESIAN_POINT('',(21.4,3.5,-3.5));
#137 = DIRECTION('',(1.,0.,0.));
#138 = DIRECTION('',(0.,0.,1.));
#139 = ADVANCED_FACE('',(#140),#167,.T.);
#140 = FACE_BOUND('',#141,.F.);
#141 = EDGE_LOOP('',(#142,#143,#152,#160));
#142 = ORIENTED_EDGE('',*,*,#21,.F.);
#143 = ORIENTED_EDGE('',*,*,#144,.T.);
#144 = EDGE_CURVE('',#22,#145,#147,.T.);
#145 = VERTEX_POINT('',#146);
#146 = CARTESIAN_POINT('',(19.4,-44.4,-10.));
#147 = CIRCLE('',#148,2.);
#148 = AXIS2_PLACEMENT_3D('',#149,#150,#151);
#149 = CARTESIAN_POINT('',(19.4,-42.4,-10.));
#150 = DIRECTION('',(-0.,-0.,-1.));
#151 = DIRECTION('',(0.,-1.,0.));
#152 = ORIENTED_EDGE('',*,*,#153,.T.);
#153 = EDGE_CURVE('',#145,#154,#156,.T.);
#154 = VERTEX_POINT('',#155);
#155 = CARTESIAN_POINT('',(19.4,-44.4,2.));
#156 = LINE('',#157,#158);
#157 = CARTESIAN_POINT('',(19.4,-44.4,-10.));
#158 = VECTOR('',#159,1.);
#159 = DIRECTION('',(0.,0.,1.));
#160 = ORIENTED_EDGE('',*,*,#161,.T.);
#161 = EDGE_CURVE('',#154,#24,#162,.T.);
#162 = CIRCLE('',#163,2.);
#163 = AXIS2_PLACEMENT_3D('',#164,#165,#166);
#164 = CARTESIAN_POINT('',(19.4,-42.4,2.));
#165 = DIRECTION('',(-0.,0.,1.));
#166 = DIRECTION('',(0.,-1.,0.));
#167 = CYLINDRICAL_SURFACE('',#168,2.);
#168 = AXIS2_PLACEMENT_3D('',#169,#170,#171);
#169 = CARTESIAN_POINT('',(19.4,-42.4,-10.));
#170 = DIRECTION('',(0.,0.,1.));
#171 = DIRECTION('',(1.,0.,0.));
#172 = ADVANCED_FACE('',(#173,#290,#301,#312,#323),#334,.F.);
#173 = FACE_BOUND('',#174,.F.);
#174 = EDGE_LOOP('',(#175,#186,#194,#203,#209,#210,#211,#220,#228,#236,
    #244,#252,#260,#268,#276,#284));
#175 = ORIENTED_EDGE('',*,*,#176,.T.);
#176 = EDGE_CURVE('',#177,#179,#181,.T.);
#177 = VERTEX_POINT('',#178);
#178 = CARTESIAN_POINT('',(-19.4,51.4,-10.));
#179 = VERTEX_POINT('',#180);
#180 = CARTESIAN_POINT('',(-21.4,49.4,-10.));
#181 = CIRCLE('',#182,2.);
#182 = AXIS2_PLACEMENT_3D('',#183,#184,#185);
#183 = CARTESIAN_POINT('',(-19.4,49.4,-10.));
#184 = DIRECTION('',(0.,-0.,1.));
#185 = DIRECTION('',(0.,1.,0.));
#186 = ORIENTED_EDGE('',*,*,#187,.T.);
#187 = EDGE_CURVE('',#179,#188,#190,.T.);
#188 = VERTEX_POINT('',#189);
#189 = CARTESIAN_POINT('',(-21.4,-42.4,-10.));
#190 = LINE('',#191,#192);
#191 = CARTESIAN_POINT('',(-21.4,51.4,-10.));
#192 = VECTOR('',#193,1.);
#193 = DIRECTION('',(0.,-1.,0.));
#194 = ORIENTED_EDGE('',*,*,#195,.T.);
#195 = EDGE_CURVE('',#188,#196,#198,.T.);
#196 = VERTEX_POINT('',#197);
#197 = CARTESIAN_POINT('',(-19.4,-44.4,-10.));
#198 = CIRCLE('',#199,2.);
#199 = AXIS2_PLACEMENT_3D('',#200,#201,#202);
#200 = CARTESIAN_POINT('',(-19.4,-42.4,-10.));
#201 = DIRECTION('',(0.,-0.,1.));
#202 = DIRECTION('',(0.,1.,0.));
#203 = ORIENTED_EDGE('',*,*,#204,.T.);
#204 = EDGE_CURVE('',#196,#145,#205,.T.);
#205 = LINE('',#206,#207);
#206 = CARTESIAN_POINT('',(-21.4,-44.4,-10.));
#207 = VECTOR('',#208,1.);
#208 = DIRECTION('',(1.,0.,0.));
#209 = ORIENTED_EDGE('',*,*,#144,.F.);
#210 = ORIENTED_EDGE('',*,*,#31,.T.);
#211 = ORIENTED_EDGE('',*,*,#212,.F.);
#212 = EDGE_CURVE('',#213,#32,#215,.T.);
#213 = VERTEX_POINT('',#214);
#214 = CARTESIAN_POINT('',(19.4,51.4,-10.));
#215 = CIRCLE('',#216,2.);
#216 = AXIS2_PLACEMENT_3D('',#217,#218,#219);
#217 = CARTESIAN_POINT('',(19.4,49.4,-10.));
#218 = DIRECTION('',(-0.,-0.,-1.));
#219 = DIRECTION('',(0.,-1.,0.));
#220 = ORIENTED_EDGE('',*,*,#221,.T.);
#221 = EDGE_CURVE('',#213,#222,#224,.T.);
#222 = VERTEX_POINT('',#223);
#223 = CARTESIAN_POINT('',(7.4,51.4,-10.));
#224 = LINE('',#225,#226);
#225 = CARTESIAN_POINT('',(21.4,51.4,-10.));
#226 = VECTOR('',#227,1.);
#227 = DIRECTION('',(-1.,0.,0.));
#228 = ORIENTED_EDGE('',*,*,#229,.T.);
#229 = EDGE_CURVE('',#222,#230,#232,.T.);
#230 = VERTEX_POINT('',#231);
#231 = CARTESIAN_POINT('',(7.4,41.4,-10.));
#232 = LINE('',#233,#234);
#233 = CARTESIAN_POINT('',(7.4,51.4,-10.));
#234 = VECTOR('',#235,1.);
#235 = DIRECTION('',(0.,-1.,2.2E-16));
#236 = ORIENTED_EDGE('',*,*,#237,.F.);
#237 = EDGE_CURVE('',#238,#230,#240,.T.);
#238 = VERTEX_POINT('',#239);
#239 = CARTESIAN_POINT('',(11.4,41.4,-10.));
#240 = LINE('',#241,#242);
#241 = CARTESIAN_POINT('',(11.4,41.4,-10.));
#242 = VECTOR('',#243,1.);
#243 = DIRECTION('',(-1.,0.,0.));
#244 = ORIENTED_EDGE('',*,*,#245,.F.);
#245 = EDGE_CURVE('',#246,#238,#248,.T.);
#246 = VERTEX_POINT('',#247);
#247 = CARTESIAN_POINT('',(11.4,-34.4,-10.));
#248 = LINE('',#249,#250);
#249 = CARTESIAN_POINT('',(11.4,-34.4,-10.));
#250 = VECTOR('',#251,1.);
#251 = DIRECTION('',(0.,1.,0.));
#252 = ORIENTED_EDGE('',*,*,#253,.F.);
#253 = EDGE_CURVE('',#254,#246,#256,.T.);
#254 = VERTEX_POINT('',#255);
#255 = CARTESIAN_POINT('',(-11.4,-34.4,-10.));
#256 = LINE('',#257,#258);
#257 = CARTESIAN_POINT('',(-11.4,-34.4,-10.));
#258 = VECTOR('',#259,1.);
#259 = DIRECTION('',(1.,0.,0.));
#260 = ORIENTED_EDGE('',*,*,#261,.F.);
#261 = EDGE_CURVE('',#262,#254,#264,.T.);
#262 = VERTEX_POINT('',#263);
#263 = CARTESIAN_POINT('',(-11.4,41.4,-10.));
#264 = LINE('',#265,#266);
#265 = CARTESIAN_POINT('',(-11.4,41.4,-10.));
#266 = VECTOR('',#267,1.);
#267 = DIRECTION('',(0.,-1.,0.));
#268 = ORIENTED_EDGE('',*,*,#269,.F.);
#269 = EDGE_CURVE('',#270,#262,#272,.T.);
#270 = VERTEX_POINT('',#271);
#271 = CARTESIAN_POINT('',(-7.4,41.4,-10.));
#272 = LINE('',#273,#274);
#273 = CARTESIAN_POINT('',(11.4,41.4,-10.));
#274 = VECTOR('',#275,1.);
#275 = DIRECTION('',(-1.,0.,0.));
#276 = ORIENTED_EDGE('',*,*,#277,.F.);
#277 = EDGE_CURVE('',#278,#270,#280,.T.);
#278 = VERTEX_POINT('',#279);
#279 = CARTESIAN_POINT('',(-7.4,51.4,-10.));
#280 = LINE('',#281,#282);
#281 = CARTESIAN_POINT('',(-7.4,51.4,-10.));
#282 = VECTOR('',#283,1.);
#283 = DIRECTION('',(0.,-1.,2.2E-16));
#284 = ORIENTED_EDGE('',*,*,#285,.T.);
#285 = EDGE_CURVE('',#278,#177,#286,.T.);
#286 = LINE('',#287,#288);
#287 = CARTESIAN_POINT('',(21.4,51.4,-10.));
#288 = VECTOR('',#289,1.);
#289 = DIRECTION('',(-1.,0.,0.));
#290 = FACE_BOUND('',#291,.F.);
#291 = EDGE_LOOP('',(#292));
#292 = ORIENTED_EDGE('',*,*,#293,.F.);
#293 = EDGE_CURVE('',#294,#294,#296,.T.);
#294 = VERTEX_POINT('',#295);
#295 = CARTESIAN_POINT('',(-14.95,-39.4,-10.));
#296 = CIRCLE('',#297,1.45);
#297 = AXIS2_PLACEMENT_3D('',#298,#299,#300);
#298 = CARTESIAN_POINT('',(-16.4,-39.4,-10.));
#299 = DIRECTION('',(0.,0.,1.));
#300 = DIRECTION('',(1.,0.,0.));
#301 = FACE_BOUND('',#302,.F.);
#302 = EDGE_LOOP('',(#303));
#303 = ORIENTED_EDGE('',*,*,#304,.F.);
#304 = EDGE_CURVE('',#305,#305,#307,.T.);
#305 = VERTEX_POINT('',#306);
#306 = CARTESIAN_POINT('',(17.85,-39.4,-10.));
#307 = CIRCLE('',#308,1.45);
#308 = AXIS2_PLACEMENT_3D('',#309,#310,#311);
#309 = CARTESIAN_POINT('',(16.4,-39.4,-10.));
#310 = DIRECTION('',(0.,0.,1.));
#311 = DIRECTION('',(1.,0.,0.));
#312 = FACE_BOUND('',#313,.F.);
#313 = EDGE_LOOP('',(#314));
#314 = ORIENTED_EDGE('',*,*,#315,.F.);
#315 = EDGE_CURVE('',#316,#316,#318,.T.);
#316 = VERTEX_POINT('',#317);
#317 = CARTESIAN_POINT('',(-14.95,46.4,-10.));
#318 = CIRCLE('',#319,1.45);
#319 = AXIS2_PLACEMENT_3D('',#320,#321,#322);
#320 = CARTESIAN_POINT('',(-16.4,46.4,-10.));
#321 = DIRECTION('',(0.,0.,1.));
#322 = DIRECTION('',(1.,0.,0.));
#323 = FACE_BOUND('',#324,.F.);
#324 = EDGE_LOOP('',(#325));
#325 = ORIENTED_EDGE('',*,*,#326,.F.);
#326 = EDGE_CURVE('',#327,#327,#329,.T.);
#327 = VERTEX_POINT('',#328);
#328 = CARTESIAN_POINT('',(17.85,46.4,-10.));
#329 = CIRCLE('',#330,1.45);
#330 = AXIS2_PLACEMENT_3D('',#331,#332,#333);
#331 = CARTESIAN_POINT('',(16.4,46.4,-10.));
#332 = DIRECTION('',(0.,0.,1.));
#333 = DIRECTION('',(1.,0.,0.));
#334 = PLANE('',#335);
#335 = AXIS2_PLACEMENT_3D('',#336,#337,#338);
#336 = CARTESIAN_POINT('',(3.23E-15,3.5,-10.));
#337 = DIRECTION('',(0.,0.,1.));
#338 = DIRECTION('',(1.,0.,0.));
#339 = ADVANCED_FACE('',(#340),#365,.F.);
#340 = FACE_BOUND('',#341,.F.);
#341 = EDGE_LOOP('',(#342,#352,#358,#359));
#342 = ORIENTED_EDGE('',*,*,#343,.F.);
#343 = EDGE_CURVE('',#344,#346,#348,.T.);
#344 = VERTEX_POINT('',#345);
#345 = CARTESIAN_POINT('',(29.4,31.4,1.));
#346 = VERTEX_POINT('',#347);
#347 = CARTESIAN_POINT('',(29.4,31.4,2.));
#348 = LINE('',#349,#350);
#349 = CARTESIAN_POINT('',(29.4,31.4,0.));
#350 = VECTOR('',#351,1.);
#351 = DIRECTION('',(0.,0.,1.));
#352 = ORIENTED_EDGE('',*,*,#353,.F.);
#353 = EDGE_CURVE('',#113,#344,#354,.T.);
#354 = LINE('',#355,#356);
#355 = CARTESIAN_POINT('',(21.4,31.4,1.));
#356 = VECTOR('',#357,1.);
#357 = DIRECTION('',(1.,0.,0.));
#358 = ORIENTED_EDGE('',*,*,#121,.T.);
#359 = ORIENTED_EDGE('',*,*,#360,.T.);
#360 = EDGE_CURVE('',#122,#346,#361,.T.);
#361 = LINE('',#362,#363);
#362 = CARTESIAN_POINT('',(21.4,31.4,2.));
#363 = VECTOR('',#364,1.);
#364 = DIRECTION('',(1.,0.,0.));
#365 = PLANE('',#366);
#366 = AXIS2_PLACEMENT_3D('',#367,#368,#369);
#367 = CARTESIAN_POINT('',(13.4,31.4,0.));
#368 = DIRECTION('',(0.,1.,0.));
#369 = DIRECTION('',(1.,0.,0.));
#370 = ADVANCED_FACE('',(#371),#390,.T.);
#371 = FACE_BOUND('',#372,.F.);
#372 = EDGE_LOOP('',(#373,#381,#382,#383));
#373 = ORIENTED_EDGE('',*,*,#374,.F.);
#374 = EDGE_CURVE('',#213,#375,#377,.T.);
#375 = VERTEX_POINT('',#376);
#376 = CARTESIAN_POINT('',(19.4,51.4,2.));
#377 = LINE('',#378,#379);
#378 = CARTESIAN_POINT('',(19.4,51.4,-10.));
#379 = VECTOR('',#380,1.);
#380 = DIRECTION('',(0.,0.,1.));
#381 = ORIENTED_EDGE('',*,*,#212,.T.);
#382 = ORIENTED_EDGE('',*,*,#39,.T.);
#383 = ORIENTED_EDGE('',*,*,#384,.T.);
#384 = EDGE_CURVE('',#40,#375,#385,.T.);
#385 = CIRCLE('',#386,2.);
#386 = AXIS2_PLACEMENT_3D('',#387,#388,#389);
#387 = CARTESIAN_POINT('',(19.4,49.4,2.));
#388 = DIRECTION('',(0.,-0.,1.));
#389 = DIRECTION('',(1.,3.55E-15,0.));
#390 = CYLINDRICAL_SURFACE('',#391,2.);
#391 = AXIS2_PLACEMENT_3D('',#392,#393,#394);
#392 = CARTESIAN_POINT('',(19.4,49.4,-10.));
#393 = DIRECTION('',(0.,0.,1.));
#394 = DIRECTION('',(0.,1.,0.));
#395 = ADVANCED_FACE('',(#396),#415,.T.);
#396 = FACE_BOUND('',#397,.F.);
#397 = EDGE_LOOP('',(#398,#399,#400,#409));
#398 = ORIENTED_EDGE('',*,*,#112,.T.);
#399 = ORIENTED_EDGE('',*,*,#353,.T.);
#400 = ORIENTED_EDGE('',*,*,#401,.F.);
#401 = EDGE_CURVE('',#402,#344,#404,.T.);
#402 = VERTEX_POINT('',#403);
#403 = CARTESIAN_POINT('',(29.4,32.4,0.));
#404 = CIRCLE('',#405,1.);
#405 = AXIS2_PLACEMENT_3D('',#406,#407,#408);
#406 = CARTESIAN_POINT('',(29.4,32.4,1.));
#407 = DIRECTION('',(-1.,-0.,-0.));
#408 = DIRECTION('',(0.,0.,-1.));
#409 = ORIENTED_EDGE('',*,*,#410,.F.);
#410 = EDGE_CURVE('',#105,#402,#411,.T.);
#411 = LINE('',#412,#413);
#412 = CARTESIAN_POINT('',(21.4,32.4,-2.2E-16));
#413 = VECTOR('',#414,1.);
#414 = DIRECTION('',(1.,0.,0.));
#415 = CYLINDRICAL_SURFACE('',#416,1.);
#416 = AXIS2_PLACEMENT_3D('',#417,#418,#419);
#417 = CARTESIAN_POINT('',(21.4,32.4,1.));
#418 = DIRECTION('',(1.,0.,0.));
#419 = DIRECTION('',(0.,0.,-1.));
#420 = ADVANCED_FACE('',(#421),#498,.F.);
#421 = FACE_BOUND('',#422,.F.);
#422 = EDGE_LOOP('',(#423,#424,#425,#434,#442,#451,#457,#458,#466,#475,
    #483,#492));
#423 = ORIENTED_EDGE('',*,*,#104,.T.);
#424 = ORIENTED_EDGE('',*,*,#410,.T.);
#425 = ORIENTED_EDGE('',*,*,#426,.T.);
#426 = EDGE_CURVE('',#402,#427,#429,.T.);
#427 = VERTEX_POINT('',#428);
#428 = CARTESIAN_POINT('',(30.4,33.4,0.));
#429 = CIRCLE('',#430,1.);
#430 = AXIS2_PLACEMENT_3D('',#431,#432,#433);
#431 = CARTESIAN_POINT('',(29.4,33.4,0.));
#432 = DIRECTION('',(-0.,0.,1.));
#433 = DIRECTION('',(0.,-1.,0.));
#434 = ORIENTED_EDGE('',*,*,#435,.T.);
#435 = EDGE_CURVE('',#427,#436,#438,.T.);
#436 = VERTEX_POINT('',#437);
#437 = CARTESIAN_POINT('',(30.4,39.4,0.));
#438 = LINE('',#439,#440);
#439 = CARTESIAN_POINT('',(30.4,33.4,-2.2E-16));
#440 = VECTOR('',#441,1.);
#441 = DIRECTION('',(0.,1.,0.));
#442 = ORIENTED_EDGE('',*,*,#443,.T.);
#443 = EDGE_CURVE('',#436,#444,#446,.T.);
#444 = VERTEX_POINT('',#445);
#445 = CARTESIAN_POINT('',(29.4,40.4,0.));
#446 = CIRCLE('',#447,1.);
#447 = AXIS2_PLACEMENT_3D('',#448,#449,#450);
#448 = CARTESIAN_POINT('',(29.4,39.4,0.));
#449 = DIRECTION('',(0.,0.,1.));
#450 = DIRECTION('',(1.,0.,0.));
#451 = ORIENTED_EDGE('',*,*,#452,.T.);
#452 = EDGE_CURVE('',#444,#64,#453,.T.);
#453 = LINE('',#454,#455);
#454 = CARTESIAN_POINT('',(29.4,40.4,-2.2E-16));
#455 = VECTOR('',#456,1.);
#456 = DIRECTION('',(-1.,0.,0.));
#457 = ORIENTED_EDGE('',*,*,#72,.T.);
#458 = ORIENTED_EDGE('',*,*,#459,.F.);
#459 = EDGE_CURVE('',#460,#73,#462,.T.);
#460 = VERTEX_POINT('',#461);
#461 = CARTESIAN_POINT('',(28.4,39.4,0.));
#462 = LINE('',#463,#464);
#463 = CARTESIAN_POINT('',(28.4,39.4,0.));
#464 = VECTOR('',#465,1.);
#465 = DIRECTION('',(-1.,0.,0.));
#466 = ORIENTED_EDGE('',*,*,#467,.F.);
#467 = EDGE_CURVE('',#468,#460,#470,.T.);
#468 = VERTEX_POINT('',#469);
#469 = CARTESIAN_POINT('',(29.4,38.4,0.));
#470 = CIRCLE('',#471,1.);
#471 = AXIS2_PLACEMENT_3D('',#472,#473,#474);
#472 = CARTESIAN_POINT('',(28.4,38.4,0.));
#473 = DIRECTION('',(0.,0.,1.));
#474 = DIRECTION('',(1.,0.,0.));
#475 = ORIENTED_EDGE('',*,*,#476,.F.);
#476 = EDGE_CURVE('',#477,#468,#479,.T.);
#477 = VERTEX_POINT('',#478);
#478 = CARTESIAN_POINT('',(29.4,34.4,0.));
#479 = LINE('',#480,#481);
#480 = CARTESIAN_POINT('',(29.4,34.4,0.));
#481 = VECTOR('',#482,1.);
#482 = DIRECTION('',(0.,1.,0.));
#483 = ORIENTED_EDGE('',*,*,#484,.F.);
#484 = EDGE_CURVE('',#485,#477,#487,.T.);
#485 = VERTEX_POINT('',#486);
#486 = CARTESIAN_POINT('',(28.4,33.4,0.));
#487 = CIRCLE('',#488,1.);
#488 = AXIS2_PLACEMENT_3D('',#489,#490,#491);
#489 = CARTESIAN_POINT('',(28.4,34.4,0.));
#490 = DIRECTION('',(0.,0.,1.));
#491 = DIRECTION('',(1.,0.,0.));
#492 = ORIENTED_EDGE('',*,*,#493,.F.);
#493 = EDGE_CURVE('',#97,#485,#494,.T.);
#494 = LINE('',#495,#496);
#495 = CARTESIAN_POINT('',(14.4,33.4,0.));
#496 = VECTOR('',#497,1.);
#497 = DIRECTION('',(1.,0.,0.));
#498 = PLANE('',#499);
#499 = AXIS2_PLACEMENT_3D('',#500,#501,#502);
#500 = CARTESIAN_POINT('',(21.4,36.4,0.));
#501 = DIRECTION('',(0.,0.,1.));
#502 = DIRECTION('',(1.,0.,0.));
#503 = ADVANCED_FACE('',(#504),#529,.F.);
#504 = FACE_BOUND('',#505,.F.);
#505 = EDGE_LOOP('',(#506,#507,#515,#523));
#506 = ORIENTED_EDGE('',*,*,#55,.T.);
#507 = ORIENTED_EDGE('',*,*,#508,.F.);
#508 = EDGE_CURVE('',#509,#56,#511,.T.);
#509 = VERTEX_POINT('',#510);
#510 = CARTESIAN_POINT('',(29.4,41.4,1.));
#511 = LINE('',#512,#513);
#512 = CARTESIAN_POINT('',(29.4,41.4,1.));
#513 = VECTOR('',#514,1.);
#514 = DIRECTION('',(-1.,0.,0.));
#515 = ORIENTED_EDGE('',*,*,#516,.T.);
#516 = EDGE_CURVE('',#509,#517,#519,.T.);
#517 = VERTEX_POINT('',#518);
#518 = CARTESIAN_POINT('',(29.4,41.4,2.));
#519 = LINE('',#520,#521);
#520 = CARTESIAN_POINT('',(29.4,41.4,0.));
#521 = VECTOR('',#522,1.);
#522 = DIRECTION('',(0.,0.,1.));
#523 = ORIENTED_EDGE('',*,*,#524,.T.);
#524 = EDGE_CURVE('',#517,#48,#525,.T.);
#525 = LINE('',#526,#527);
#526 = CARTESIAN_POINT('',(29.4,41.4,2.));
#527 = VECTOR('',#528,1.);
#528 = DIRECTION('',(-1.,0.,0.));
#529 = PLANE('',#530);
#530 = AXIS2_PLACEMENT_3D('',#531,#532,#533);
#531 = CARTESIAN_POINT('',(29.4,41.4,0.));
#532 = DIRECTION('',(0.,-1.,0.));
#533 = DIRECTION('',(-1.,0.,0.));
#534 = ADVANCED_FACE('',(#535),#553,.T.);
#535 = FACE_BOUND('',#536,.T.);
#536 = EDGE_LOOP('',(#537,#538,#539,#547));
#537 = ORIENTED_EDGE('',*,*,#493,.F.);
#538 = ORIENTED_EDGE('',*,*,#96,.T.);
#539 = ORIENTED_EDGE('',*,*,#540,.T.);
#540 = EDGE_CURVE('',#89,#541,#543,.T.);
#541 = VERTEX_POINT('',#542);
#542 = CARTESIAN_POINT('',(28.4,33.4,3.));
#543 = LINE('',#544,#545);
#544 = CARTESIAN_POINT('',(14.4,33.4,3.));
#545 = VECTOR('',#546,1.);
#546 = DIRECTION('',(1.,0.,0.));
#547 = ORIENTED_EDGE('',*,*,#548,.F.);
#548 = EDGE_CURVE('',#485,#541,#549,.T.);
#549 = LINE('',#550,#551);
#550 = CARTESIAN_POINT('',(28.4,33.4,0.));
#551 = VECTOR('',#552,1.);
#552 = DIRECTION('',(0.,0.,1.));
#553 = PLANE('',#554);
#554 = AXIS2_PLACEMENT_3D('',#555,#556,#557);
#555 = CARTESIAN_POINT('',(14.4,33.4,0.));
#556 = DIRECTION('',(0.,1.,0.));
#557 = DIRECTION('',(1.,0.,0.));
#558 = ADVANCED_FACE('',(#559),#571,.T.);
#559 = FACE_BOUND('',#560,.F.);
#560 = EDGE_LOOP('',(#561,#568,#569,#570));
#561 = ORIENTED_EDGE('',*,*,#562,.T.);
#562 = EDGE_CURVE('',#444,#509,#563,.T.);
#563 = CIRCLE('',#564,1.);
#564 = AXIS2_PLACEMENT_3D('',#565,#566,#567);
#565 = CARTESIAN_POINT('',(29.4,40.4,1.));
#566 = DIRECTION('',(1.,-2.8E-16,0.));
#567 = DIRECTION('',(2.8E-16,1.,0.));
#568 = ORIENTED_EDGE('',*,*,#508,.T.);
#569 = ORIENTED_EDGE('',*,*,#63,.F.);
#570 = ORIENTED_EDGE('',*,*,#452,.F.);
#571 = CYLINDRICAL_SURFACE('',#572,1.);
#572 = AXIS2_PLACEMENT_3D('',#573,#574,#575);
#573 = CARTESIAN_POINT('',(29.4,40.4,1.));
#574 = DIRECTION('',(-1.,0.,0.));
#575 = DIRECTION('',(0.,0.,-1.));
#576 = ADVANCED_FACE('',(#577,#697,#733,#744,#755,#766),#777,.T.);
#577 = FACE_BOUND('',#578,.T.);
#578 = EDGE_LOOP('',(#579,#589,#597,#606,#614,#623,#631,#640,#648,#657,
    #665,#673,#682,#690));
#579 = ORIENTED_EDGE('',*,*,#580,.T.);
#580 = EDGE_CURVE('',#581,#583,#585,.T.);
#581 = VERTEX_POINT('',#582);
#582 = CARTESIAN_POINT('',(29.4,40.4,3.));
#583 = VERTEX_POINT('',#584);
#584 = CARTESIAN_POINT('',(20.4,40.4,3.));
#585 = LINE('',#586,#587);
#586 = CARTESIAN_POINT('',(29.4,40.4,3.));
#587 = VECTOR('',#588,1.);
#588 = DIRECTION('',(-1.,0.,0.));
#589 = ORIENTED_EDGE('',*,*,#590,.T.);
#590 = EDGE_CURVE('',#583,#591,#593,.T.);
#591 = VERTEX_POINT('',#592);
#592 = CARTESIAN_POINT('',(20.4,49.4,3.));
#593 = LINE('',#594,#595);
#594 = CARTESIAN_POINT('',(20.4,40.4,3.));
#595 = VECTOR('',#596,1.);
#596 = DIRECTION('',(0.,1.,0.));
#597 = ORIENTED_EDGE('',*,*,#598,.T.);
#598 = EDGE_CURVE('',#591,#599,#601,.T.);
#599 = VERTEX_POINT('',#600);
#600 = CARTESIAN_POINT('',(19.4,50.4,3.));
#601 = CIRCLE('',#602,1.);
#602 = AXIS2_PLACEMENT_3D('',#603,#604,#605);
#603 = CARTESIAN_POINT('',(19.4,49.4,3.));
#604 = DIRECTION('',(0.,-0.,1.));
#605 = DIRECTION('',(1.,3.55E-15,0.));
#606 = ORIENTED_EDGE('',*,*,#607,.T.);
#607 = EDGE_CURVE('',#599,#608,#610,.T.);
#608 = VERTEX_POINT('',#609);
#609 = CARTESIAN_POINT('',(-19.4,50.4,3.));
#610 = LINE('',#611,#612);
#611 = CARTESIAN_POINT('',(19.4,50.4,3.));
#612 = VECTOR('',#613,1.);
#613 = DIRECTION('',(-1.,0.,0.));
#614 = ORIENTED_EDGE('',*,*,#615,.T.);
#615 = EDGE_CURVE('',#608,#616,#618,.T.);
#616 = VERTEX_POINT('',#617);
#617 = CARTESIAN_POINT('',(-20.4,49.4,3.));
#618 = CIRCLE('',#619,1.);
#619 = AXIS2_PLACEMENT_3D('',#620,#621,#622);
#620 = CARTESIAN_POINT('',(-19.4,49.4,3.));
#621 = DIRECTION('',(0.,-0.,1.));
#622 = DIRECTION('',(0.,1.,0.));
#623 = ORIENTED_EDGE('',*,*,#624,.T.);
#624 = EDGE_CURVE('',#616,#625,#627,.T.);
#625 = VERTEX_POINT('',#626);
#626 = CARTESIAN_POINT('',(-20.4,-42.4,3.));
#627 = LINE('',#628,#629);
#628 = CARTESIAN_POINT('',(-20.4,49.4,3.));
#629 = VECTOR('',#630,1.);
#630 = DIRECTION('',(0.,-1.,0.));
#631 = ORIENTED_EDGE('',*,*,#632,.T.);
#632 = EDGE_CURVE('',#625,#633,#635,.T.);
#633 = VERTEX_POINT('',#634);
#634 = CARTESIAN_POINT('',(-19.4,-43.4,3.));
#635 = CIRCLE('',#636,1.);
#636 = AXIS2_PLACEMENT_3D('',#637,#638,#639);
#637 = CARTESIAN_POINT('',(-19.4,-42.4,3.));
#638 = DIRECTION('',(0.,0.,1.));
#639 = DIRECTION('',(-1.,0.,0.));
#640 = ORIENTED_EDGE('',*,*,#641,.T.);
#641 = EDGE_CURVE('',#633,#642,#644,.T.);
#642 = VERTEX_POINT('',#643);
#643 = CARTESIAN_POINT('',(19.4,-43.4,3.));
#644 = LINE('',#645,#646);
#645 = CARTESIAN_POINT('',(-19.4,-43.4,3.));
#646 = VECTOR('',#647,1.);
#647 = DIRECTION('',(1.,0.,0.));
#648 = ORIENTED_EDGE('',*,*,#649,.T.);
#649 = EDGE_CURVE('',#642,#650,#652,.T.);
#650 = VERTEX_POINT('',#651);
#651 = CARTESIAN_POINT('',(20.4,-42.4,3.));
#652 = CIRCLE('',#653,1.);
#653 = AXIS2_PLACEMENT_3D('',#654,#655,#656);
#654 = CARTESIAN_POINT('',(19.4,-42.4,3.));
#655 = DIRECTION('',(-0.,0.,1.));
#656 = DIRECTION('',(0.,-1.,0.));
#657 = ORIENTED_EDGE('',*,*,#658,.T.);
#658 = EDGE_CURVE('',#650,#659,#661,.T.);
#659 = VERTEX_POINT('',#660);
#660 = CARTESIAN_POINT('',(20.4,32.399999880791,3.));
#661 = LINE('',#662,#663);
#662 = CARTESIAN_POINT('',(20.4,-42.4,3.));
#663 = VECTOR('',#664,1.);
#664 = DIRECTION('',(0.,1.,0.));
#665 = ORIENTED_EDGE('',*,*,#666,.F.);
#666 = EDGE_CURVE('',#667,#659,#669,.T.);
#667 = VERTEX_POINT('',#668);
#668 = CARTESIAN_POINT('',(29.4,32.4,3.));
#669 = LINE('',#670,#671);
#670 = CARTESIAN_POINT('',(21.4,32.4,3.));
#671 = VECTOR('',#672,1.);
#672 = DIRECTION('',(-1.,-0.,-0.));
#673 = ORIENTED_EDGE('',*,*,#674,.T.);
#674 = EDGE_CURVE('',#667,#675,#677,.T.);
#675 = VERTEX_POINT('',#676);
#676 = CARTESIAN_POINT('',(30.4,33.4,3.));
#677 = CIRCLE('',#678,1.);
#678 = AXIS2_PLACEMENT_3D('',#679,#680,#681);
#679 = CARTESIAN_POINT('',(29.4,33.4,3.));
#680 = DIRECTION('',(-0.,0.,1.));
#681 = DIRECTION('',(0.,-1.,0.));
#682 = ORIENTED_EDGE('',*,*,#683,.T.);
#683 = EDGE_CURVE('',#675,#684,#686,.T.);
#684 = VERTEX_POINT('',#685);
#685 = CARTESIAN_POINT('',(30.4,39.4,3.));
#686 = LINE('',#687,#688);
#687 = CARTESIAN_POINT('',(30.4,33.4,3.));
#688 = VECTOR('',#689,1.);
#689 = DIRECTION('',(0.,1.,0.));
#690 = ORIENTED_EDGE('',*,*,#691,.T.);
#691 = EDGE_CURVE('',#684,#581,#692,.T.);
#692 = CIRCLE('',#693,1.);
#693 = AXIS2_PLACEMENT_3D('',#694,#695,#696);
#694 = CARTESIAN_POINT('',(29.4,39.4,3.));
#695 = DIRECTION('',(0.,0.,1.));
#696 = DIRECTION('',(1.,0.,0.));
#697 = FACE_BOUND('',#698,.T.);
#698 = EDGE_LOOP('',(#699,#700,#701,#709,#718,#726));
#699 = ORIENTED_EDGE('',*,*,#540,.F.);
#700 = ORIENTED_EDGE('',*,*,#88,.T.);
#701 = ORIENTED_EDGE('',*,*,#702,.F.);
#702 = EDGE_CURVE('',#703,#81,#705,.T.);
#703 = VERTEX_POINT('',#704);
#704 = CARTESIAN_POINT('',(28.4,39.4,3.));
#705 = LINE('',#706,#707);
#706 = CARTESIAN_POINT('',(28.4,39.4,3.));
#707 = VECTOR('',#708,1.);
#708 = DIRECTION('',(-1.,0.,0.));
#709 = ORIENTED_EDGE('',*,*,#710,.F.);
#710 = EDGE_CURVE('',#711,#703,#713,.T.);
#711 = VERTEX_POINT('',#712);
#712 = CARTESIAN_POINT('',(29.4,38.4,3.));
#713 = CIRCLE('',#714,1.);
#714 = AXIS2_PLACEMENT_3D('',#715,#716,#717);
#715 = CARTESIAN_POINT('',(28.4,38.4,3.));
#716 = DIRECTION('',(0.,0.,1.));
#717 = DIRECTION('',(1.,0.,0.));
#718 = ORIENTED_EDGE('',*,*,#719,.F.);
#719 = EDGE_CURVE('',#720,#711,#722,.T.);
#720 = VERTEX_POINT('',#721);
#721 = CARTESIAN_POINT('',(29.4,34.4,3.));
#722 = LINE('',#723,#724);
#723 = CARTESIAN_POINT('',(29.4,34.4,3.));
#724 = VECTOR('',#725,1.);
#725 = DIRECTION('',(0.,1.,0.));
#726 = ORIENTED_EDGE('',*,*,#727,.F.);
#727 = EDGE_CURVE('',#541,#720,#728,.T.);
#728 = CIRCLE('',#729,1.);
#729 = AXIS2_PLACEMENT_3D('',#730,#731,#732);
#730 = CARTESIAN_POINT('',(28.4,34.4,3.));
#731 = DIRECTION('',(0.,0.,1.));
#732 = DIRECTION('',(1.,0.,0.));
#733 = FACE_BOUND('',#734,.T.);
#734 = EDGE_LOOP('',(#735));
#735 = ORIENTED_EDGE('',*,*,#736,.F.);
#736 = EDGE_CURVE('',#737,#737,#739,.T.);
#737 = VERTEX_POINT('',#738);
#738 = CARTESIAN_POINT('',(-14.95,-39.4,3.));
#739 = CIRCLE('',#740,1.45);
#740 = AXIS2_PLACEMENT_3D('',#741,#742,#743);
#741 = CARTESIAN_POINT('',(-16.4,-39.4,3.));
#742 = DIRECTION('',(0.,0.,1.));
#743 = DIRECTION('',(1.,0.,0.));
#744 = FACE_BOUND('',#745,.T.);
#745 = EDGE_LOOP('',(#746));
#746 = ORIENTED_EDGE('',*,*,#747,.F.);
#747 = EDGE_CURVE('',#748,#748,#750,.T.);
#748 = VERTEX_POINT('',#749);
#749 = CARTESIAN_POINT('',(17.85,-39.4,3.));
#750 = CIRCLE('',#751,1.45);
#751 = AXIS2_PLACEMENT_3D('',#752,#753,#754);
#752 = CARTESIAN_POINT('',(16.4,-39.4,3.));
#753 = DIRECTION('',(0.,0.,1.));
#754 = DIRECTION('',(1.,0.,0.));
#755 = FACE_BOUND('',#756,.T.);
#756 = EDGE_LOOP('',(#757));
#757 = ORIENTED_EDGE('',*,*,#758,.F.);
#758 = EDGE_CURVE('',#759,#759,#761,.T.);
#759 = VERTEX_POINT('',#760);
#760 = CARTESIAN_POINT('',(-14.95,46.4,3.));
#761 = CIRCLE('',#762,1.45);
#762 = AXIS2_PLACEMENT_3D('',#763,#764,#765);
#763 = CARTESIAN_POINT('',(-16.4,46.4,3.));
#764 = DIRECTION('',(0.,0.,1.));
#765 = DIRECTION('',(1.,0.,0.));
#766 = FACE_BOUND('',#767,.T.);
#767 = EDGE_LOOP('',(#768));
#768 = ORIENTED_EDGE('',*,*,#769,.F.);
#769 = EDGE_CURVE('',#770,#770,#772,.T.);
#770 = VERTEX_POINT('',#771);
#771 = CARTESIAN_POINT('',(17.85,46.4,3.));
#772 = CIRCLE('',#773,1.45);
#773 = AXIS2_PLACEMENT_3D('',#774,#775,#776);
#774 = CARTESIAN_POINT('',(16.4,46.4,3.));
#775 = DIRECTION('',(0.,0.,1.));
#776 = DIRECTION('',(1.,0.,0.));
#777 = PLANE('',#778);
#778 = AXIS2_PLACEMENT_3D('',#779,#780,#781);
#779 = CARTESIAN_POINT('',(1.957099666272,5.553090194955,3.));
#780 = DIRECTION('',(0.,0.,1.));
#781 = DIRECTION('',(1.,0.,0.));
#782 = ADVANCED_FACE('',(#783),#794,.T.);
#783 = FACE_BOUND('',#784,.T.);
#784 = EDGE_LOOP('',(#785,#786,#792,#793));
#785 = ORIENTED_EDGE('',*,*,#459,.F.);
#786 = ORIENTED_EDGE('',*,*,#787,.T.);
#787 = EDGE_CURVE('',#460,#703,#788,.T.);
#788 = LINE('',#789,#790);
#789 = CARTESIAN_POINT('',(28.4,39.4,0.));
#790 = VECTOR('',#791,1.);
#791 = DIRECTION('',(0.,0.,1.));
#792 = ORIENTED_EDGE('',*,*,#702,.T.);
#793 = ORIENTED_EDGE('',*,*,#80,.T.);
#794 = PLANE('',#795);
#795 = AXIS2_PLACEMENT_3D('',#796,#797,#798);
#796 = CARTESIAN_POINT('',(28.4,39.4,0.));
#797 = DIRECTION('',(0.,-1.,0.));
#798 = DIRECTION('',(-1.,0.,0.));
#799 = ADVANCED_FACE('',(#800),#818,.T.);
#800 = FACE_BOUND('',#801,.T.);
#801 = EDGE_LOOP('',(#802,#809,#810,#817));
#802 = ORIENTED_EDGE('',*,*,#803,.F.);
#803 = EDGE_CURVE('',#154,#642,#804,.T.);
#804 = CIRCLE('',#805,1.);
#805 = AXIS2_PLACEMENT_3D('',#806,#807,#808);
#806 = CARTESIAN_POINT('',(19.4,-43.4,2.));
#807 = DIRECTION('',(-1.,0.,0.));
#808 = DIRECTION('',(0.,-1.,0.));
#809 = ORIENTED_EDGE('',*,*,#161,.T.);
#810 = ORIENTED_EDGE('',*,*,#811,.T.);
#811 = EDGE_CURVE('',#24,#650,#812,.T.);
#812 = CIRCLE('',#813,1.);
#813 = AXIS2_PLACEMENT_3D('',#814,#815,#816);
#814 = CARTESIAN_POINT('',(20.4,-42.4,2.));
#815 = DIRECTION('',(-6.E-17,-1.,0.));
#816 = DIRECTION('',(1.,-6.E-17,0.));
#817 = ORIENTED_EDGE('',*,*,#649,.F.);
#818 = TOROIDAL_SURFACE('',#819,1.,1.);
#819 = AXIS2_PLACEMENT_3D('',#820,#821,#822);
#820 = CARTESIAN_POINT('',(19.4,-42.4,2.));
#821 = DIRECTION('',(0.,0.,1.));
#822 = DIRECTION('',(0.,-1.,0.));
#823 = ADVANCED_FACE('',(#824),#842,.T.);
#824 = FACE_BOUND('',#825,.T.);
#825 = EDGE_LOOP('',(#826,#834,#835,#836));
#826 = ORIENTED_EDGE('',*,*,#827,.T.);
#827 = EDGE_CURVE('',#828,#196,#830,.T.);
#828 = VERTEX_POINT('',#829);
#829 = CARTESIAN_POINT('',(-19.4,-44.4,2.));
#830 = LINE('',#831,#832);
#831 = CARTESIAN_POINT('',(-19.4,-44.4,3.));
#832 = VECTOR('',#833,1.);
#833 = DIRECTION('',(-0.,-0.,-1.));
#834 = ORIENTED_EDGE('',*,*,#204,.T.);
#835 = ORIENTED_EDGE('',*,*,#153,.T.);
#836 = ORIENTED_EDGE('',*,*,#837,.F.);
#837 = EDGE_CURVE('',#828,#154,#838,.T.);
#838 = LINE('',#839,#840);
#839 = CARTESIAN_POINT('',(-19.4,-44.4,2.));
#840 = VECTOR('',#841,1.);
#841 = DIRECTION('',(1.,0.,0.));
#842 = PLANE('',#843);
#843 = AXIS2_PLACEMENT_3D('',#844,#845,#846);
#844 = CARTESIAN_POINT('',(3.06E-15,-44.4,-3.5));
#845 = DIRECTION('',(-0.,-1.,-0.));
#846 = DIRECTION('',(0.,0.,-1.));
#847 = ADVANCED_FACE('',(#848),#874,.T.);
#848 = FACE_BOUND('',#849,.F.);
#849 = EDGE_LOOP('',(#850,#858,#867,#873));
#850 = ORIENTED_EDGE('',*,*,#851,.F.);
#851 = EDGE_CURVE('',#852,#177,#854,.T.);
#852 = VERTEX_POINT('',#853);
#853 = CARTESIAN_POINT('',(-19.4,51.4,2.));
#854 = LINE('',#855,#856);
#855 = CARTESIAN_POINT('',(-19.4,51.4,3.));
#856 = VECTOR('',#857,1.);
#857 = DIRECTION('',(-0.,-0.,-1.));
#858 = ORIENTED_EDGE('',*,*,#859,.T.);
#859 = EDGE_CURVE('',#852,#860,#862,.T.);
#860 = VERTEX_POINT('',#861);
#861 = CARTESIAN_POINT('',(-21.4,49.4,2.));
#862 = CIRCLE('',#863,2.);
#863 = AXIS2_PLACEMENT_3D('',#864,#865,#866);
#864 = CARTESIAN_POINT('',(-19.4,49.4,2.));
#865 = DIRECTION('',(0.,-0.,1.));
#866 = DIRECTION('',(0.,1.,0.));
#867 = ORIENTED_EDGE('',*,*,#868,.T.);
#868 = EDGE_CURVE('',#860,#179,#869,.T.);
#869 = LINE('',#870,#871);
#870 = CARTESIAN_POINT('',(-21.4,49.4,3.));
#871 = VECTOR('',#872,1.);
#872 = DIRECTION('',(-0.,-0.,-1.));
#873 = ORIENTED_EDGE('',*,*,#176,.F.);
#874 = CYLINDRICAL_SURFACE('',#875,2.);
#875 = AXIS2_PLACEMENT_3D('',#876,#877,#878);
#876 = CARTESIAN_POINT('',(-19.4,49.4,3.));
#877 = DIRECTION('',(-0.,-0.,-1.));
#878 = DIRECTION('',(0.,1.,0.));
#879 = ADVANCED_FACE('',(#880),#914,.T.);
#880 = FACE_BOUND('',#881,.T.);
#881 = EDGE_LOOP('',(#882,#883,#884,#892,#900,#906,#907,#908));
#882 = ORIENTED_EDGE('',*,*,#374,.F.);
#883 = ORIENTED_EDGE('',*,*,#221,.T.);
#884 = ORIENTED_EDGE('',*,*,#885,.F.);
#885 = EDGE_CURVE('',#886,#222,#888,.T.);
#886 = VERTEX_POINT('',#887);
#887 = CARTESIAN_POINT('',(7.4,51.4,-3.));
#888 = LINE('',#889,#890);
#889 = CARTESIAN_POINT('',(7.4,51.4,-3.));
#890 = VECTOR('',#891,1.);
#891 = DIRECTION('',(0.,0.,-1.));
#892 = ORIENTED_EDGE('',*,*,#893,.F.);
#893 = EDGE_CURVE('',#894,#886,#896,.T.);
#894 = VERTEX_POINT('',#895);
#895 = CARTESIAN_POINT('',(-7.4,51.4,-3.));
#896 = LINE('',#897,#898);
#897 = CARTESIAN_POINT('',(-7.4,51.4,-3.));
#898 = VECTOR('',#899,1.);
#899 = DIRECTION('',(1.,0.,0.));
#900 = ORIENTED_EDGE('',*,*,#901,.F.);
#901 = EDGE_CURVE('',#278,#894,#902,.T.);
#902 = LINE('',#903,#904);
#903 = CARTESIAN_POINT('',(-7.4,51.4,-10.));
#904 = VECTOR('',#905,1.);
#905 = DIRECTION('',(0.,0.,1.));
#906 = ORIENTED_EDGE('',*,*,#285,.T.);
#907 = ORIENTED_EDGE('',*,*,#851,.F.);
#908 = ORIENTED_EDGE('',*,*,#909,.F.);
#909 = EDGE_CURVE('',#375,#852,#910,.T.);
#910 = LINE('',#911,#912);
#911 = CARTESIAN_POINT('',(19.4,51.4,2.));
#912 = VECTOR('',#913,1.);
#913 = DIRECTION('',(-1.,0.,0.));
#914 = PLANE('',#915);
#915 = AXIS2_PLACEMENT_3D('',#916,#917,#918);
#916 = CARTESIAN_POINT('',(4.07E-15,51.4,-3.5));
#917 = DIRECTION('',(0.,1.,0.));
#918 = DIRECTION('',(0.,0.,1.));
#919 = ADVANCED_FACE('',(#920),#938,.F.);
#920 = FACE_BOUND('',#921,.F.);
#921 = EDGE_LOOP('',(#922,#923,#924,#932));
#922 = ORIENTED_EDGE('',*,*,#901,.F.);
#923 = ORIENTED_EDGE('',*,*,#277,.T.);
#924 = ORIENTED_EDGE('',*,*,#925,.F.);
#925 = EDGE_CURVE('',#926,#270,#928,.T.);
#926 = VERTEX_POINT('',#927);
#927 = CARTESIAN_POINT('',(-7.4,41.4,-3.));
#928 = LINE('',#929,#930);
#929 = CARTESIAN_POINT('',(-7.4,41.4,-5.));
#930 = VECTOR('',#931,1.);
#931 = DIRECTION('',(0.,0.,-1.));
#932 = ORIENTED_EDGE('',*,*,#933,.F.);
#933 = EDGE_CURVE('',#894,#926,#934,.T.);
#934 = LINE('',#935,#936);
#935 = CARTESIAN_POINT('',(-7.4,51.4,-3.));
#936 = VECTOR('',#937,1.);
#937 = DIRECTION('',(0.,-1.,2.2E-16));
#938 = PLANE('',#939);
#939 = AXIS2_PLACEMENT_3D('',#940,#941,#942);
#940 = CARTESIAN_POINT('',(-7.4,51.4,-10.));
#941 = DIRECTION('',(-1.,0.,0.));
#942 = DIRECTION('',(0.,2.2E-16,1.));
#943 = ADVANCED_FACE('',(#944),#985,.F.);
#944 = FACE_BOUND('',#945,.F.);
#945 = EDGE_LOOP('',(#946,#956,#962,#963,#971,#977,#978,#979));
#946 = ORIENTED_EDGE('',*,*,#947,.F.);
#947 = EDGE_CURVE('',#948,#950,#952,.T.);
#948 = VERTEX_POINT('',#949);
#949 = CARTESIAN_POINT('',(11.4,41.4,0.));
#950 = VERTEX_POINT('',#951);
#951 = CARTESIAN_POINT('',(-11.4,41.4,0.));
#952 = LINE('',#953,#954);
#953 = CARTESIAN_POINT('',(11.4,41.4,0.));
#954 = VECTOR('',#955,1.);
#955 = DIRECTION('',(-1.,0.,0.));
#956 = ORIENTED_EDGE('',*,*,#957,.T.);
#957 = EDGE_CURVE('',#948,#238,#958,.T.);
#958 = LINE('',#959,#960);
#959 = CARTESIAN_POINT('',(11.4,41.4,0.));
#960 = VECTOR('',#961,1.);
#961 = DIRECTION('',(-0.,-0.,-1.));
#962 = ORIENTED_EDGE('',*,*,#237,.T.);
#963 = ORIENTED_EDGE('',*,*,#964,.T.);
#964 = EDGE_CURVE('',#230,#965,#967,.T.);
#965 = VERTEX_POINT('',#966);
#966 = CARTESIAN_POINT('',(7.4,41.4,-3.));
#967 = LINE('',#968,#969);
#968 = CARTESIAN_POINT('',(7.4,41.4,-1.5));
#969 = VECTOR('',#970,1.);
#970 = DIRECTION('',(0.,0.,1.));
#971 = ORIENTED_EDGE('',*,*,#972,.T.);
#972 = EDGE_CURVE('',#965,#926,#973,.T.);
#973 = LINE('',#974,#975);
#974 = CARTESIAN_POINT('',(2.,41.4,-3.));
#975 = VECTOR('',#976,1.);
#976 = DIRECTION('',(-1.,0.,0.));
#977 = ORIENTED_EDGE('',*,*,#925,.T.);
#978 = ORIENTED_EDGE('',*,*,#269,.T.);
#979 = ORIENTED_EDGE('',*,*,#980,.F.);
#980 = EDGE_CURVE('',#950,#262,#981,.T.);
#981 = LINE('',#982,#983);
#982 = CARTESIAN_POINT('',(-11.4,41.4,0.));
#983 = VECTOR('',#984,1.);
#984 = DIRECTION('',(-0.,-0.,-1.));
#985 = PLANE('',#986);
#986 = AXIS2_PLACEMENT_3D('',#987,#988,#989);
#987 = CARTESIAN_POINT('',(11.4,41.4,0.));
#988 = DIRECTION('',(0.,1.,0.));
#989 = DIRECTION('',(-1.,0.,0.));
#990 = ADVANCED_FACE('',(#991),#1009,.F.);
#991 = FACE_BOUND('',#992,.F.);
#992 = EDGE_LOOP('',(#993,#994,#995,#1003));
#993 = ORIENTED_EDGE('',*,*,#980,.T.);
#994 = ORIENTED_EDGE('',*,*,#261,.T.);
#995 = ORIENTED_EDGE('',*,*,#996,.F.);
#996 = EDGE_CURVE('',#997,#254,#999,.T.);
#997 = VERTEX_POINT('',#998);
#998 = CARTESIAN_POINT('',(-11.4,-34.4,0.));
#999 = LINE('',#1000,#1001);
#1000 = CARTESIAN_POINT('',(-11.4,-34.4,0.));
#1001 = VECTOR('',#1002,1.);
#1002 = DIRECTION('',(-0.,-0.,-1.));
#1003 = ORIENTED_EDGE('',*,*,#1004,.F.);
#1004 = EDGE_CURVE('',#950,#997,#1005,.T.);
#1005 = LINE('',#1006,#1007);
#1006 = CARTESIAN_POINT('',(-11.4,41.4,0.));
#1007 = VECTOR('',#1008,1.);
#1008 = DIRECTION('',(0.,-1.,0.));
#1009 = PLANE('',#1010);
#1010 = AXIS2_PLACEMENT_3D('',#1011,#1012,#1013);
#1011 = CARTESIAN_POINT('',(-11.4,41.4,0.));
#1012 = DIRECTION('',(-1.,0.,0.));
#1013 = DIRECTION('',(0.,-1.,0.));
#1014 = ADVANCED_FACE('',(#1015),#1033,.F.);
#1015 = FACE_BOUND('',#1016,.F.);
#1016 = EDGE_LOOP('',(#1017,#1018,#1019,#1027));
#1017 = ORIENTED_EDGE('',*,*,#996,.T.);
#1018 = ORIENTED_EDGE('',*,*,#253,.T.);
#1019 = ORIENTED_EDGE('',*,*,#1020,.F.);
#1020 = EDGE_CURVE('',#1021,#246,#1023,.T.);
#1021 = VERTEX_POINT('',#1022);
#1022 = CARTESIAN_POINT('',(11.4,-34.4,0.));
#1023 = LINE('',#1024,#1025);
#1024 = CARTESIAN_POINT('',(11.4,-34.4,0.));
#1025 = VECTOR('',#1026,1.);
#1026 = DIRECTION('',(-0.,-0.,-1.));
#1027 = ORIENTED_EDGE('',*,*,#1028,.F.);
#1028 = EDGE_CURVE('',#997,#1021,#1029,.T.);
#1029 = LINE('',#1030,#1031);
#1030 = CARTESIAN_POINT('',(-11.4,-34.4,0.));
#1031 = VECTOR('',#1032,1.);
#1032 = DIRECTION('',(1.,0.,0.));
#1033 = PLANE('',#1034);
#1034 = AXIS2_PLACEMENT_3D('',#1035,#1036,#1037);
#1035 = CARTESIAN_POINT('',(-11.4,-34.4,0.));
#1036 = DIRECTION('',(0.,-1.,0.));
#1037 = DIRECTION('',(1.,0.,0.));
#1038 = ADVANCED_FACE('',(#1039),#1050,.F.);
#1039 = FACE_BOUND('',#1040,.F.);
#1040 = EDGE_LOOP('',(#1041,#1042,#1043,#1044));
#1041 = ORIENTED_EDGE('',*,*,#1020,.T.);
#1042 = ORIENTED_EDGE('',*,*,#245,.T.);
#1043 = ORIENTED_EDGE('',*,*,#957,.F.);
#1044 = ORIENTED_EDGE('',*,*,#1045,.F.);
#1045 = EDGE_CURVE('',#1021,#948,#1046,.T.);
#1046 = LINE('',#1047,#1048);
#1047 = CARTESIAN_POINT('',(11.4,-34.4,0.));
#1048 = VECTOR('',#1049,1.);
#1049 = DIRECTION('',(0.,1.,0.));
#1050 = PLANE('',#1051);
#1051 = AXIS2_PLACEMENT_3D('',#1052,#1053,#1054);
#1052 = CARTESIAN_POINT('',(11.4,-34.4,0.));
#1053 = DIRECTION('',(1.,0.,0.));
#1054 = DIRECTION('',(0.,1.,0.));
#1055 = ADVANCED_FACE('',(#1056),#1067,.F.);
#1056 = FACE_BOUND('',#1057,.F.);
#1057 = EDGE_LOOP('',(#1058,#1059,#1065,#1066));
#1058 = ORIENTED_EDGE('',*,*,#885,.F.);
#1059 = ORIENTED_EDGE('',*,*,#1060,.T.);
#1060 = EDGE_CURVE('',#886,#965,#1061,.T.);
#1061 = LINE('',#1062,#1063);
#1062 = CARTESIAN_POINT('',(7.4,51.4,-3.));
#1063 = VECTOR('',#1064,1.);
#1064 = DIRECTION('',(0.,-1.,2.2E-16));
#1065 = ORIENTED_EDGE('',*,*,#964,.F.);
#1066 = ORIENTED_EDGE('',*,*,#229,.F.);
#1067 = PLANE('',#1068);
#1068 = AXIS2_PLACEMENT_3D('',#1069,#1070,#1071);
#1069 = CARTESIAN_POINT('',(7.4,51.4,-3.));
#1070 = DIRECTION('',(1.,0.,0.));
#1071 = DIRECTION('',(0.,-2.2E-16,-1.));
#1072 = ADVANCED_FACE('',(#1073),#1092,.T.);
#1073 = FACE_BOUND('',#1074,.F.);
#1074 = EDGE_LOOP('',(#1075,#1083,#1090,#1091));
#1075 = ORIENTED_EDGE('',*,*,#1076,.F.);
#1076 = EDGE_CURVE('',#1077,#188,#1079,.T.);
#1077 = VERTEX_POINT('',#1078);
#1078 = CARTESIAN_POINT('',(-21.4,-42.4,2.));
#1079 = LINE('',#1080,#1081);
#1080 = CARTESIAN_POINT('',(-21.4,-42.4,3.));
#1081 = VECTOR('',#1082,1.);
#1082 = DIRECTION('',(-0.,-0.,-1.));
#1083 = ORIENTED_EDGE('',*,*,#1084,.T.);
#1084 = EDGE_CURVE('',#1077,#828,#1085,.T.);
#1085 = CIRCLE('',#1086,2.);
#1086 = AXIS2_PLACEMENT_3D('',#1087,#1088,#1089);
#1087 = CARTESIAN_POINT('',(-19.4,-42.4,2.));
#1088 = DIRECTION('',(0.,0.,1.));
#1089 = DIRECTION('',(-1.,0.,0.));
#1090 = ORIENTED_EDGE('',*,*,#827,.T.);
#1091 = ORIENTED_EDGE('',*,*,#195,.F.);
#1092 = CYLINDRICAL_SURFACE('',#1093,2.);
#1093 = AXIS2_PLACEMENT_3D('',#1094,#1095,#1096);
#1094 = CARTESIAN_POINT('',(-19.4,-42.4,3.));
#1095 = DIRECTION('',(-0.,-0.,-1.));
#1096 = DIRECTION('',(-1.,0.,0.));
#1097 = ADVANCED_FACE('',(#1098),#1109,.T.);
#1098 = FACE_BOUND('',#1099,.T.);
#1099 = EDGE_LOOP('',(#1100,#1101,#1102,#1103));
#1100 = ORIENTED_EDGE('',*,*,#868,.T.);
#1101 = ORIENTED_EDGE('',*,*,#187,.T.);
#1102 = ORIENTED_EDGE('',*,*,#1076,.F.);
#1103 = ORIENTED_EDGE('',*,*,#1104,.F.);
#1104 = EDGE_CURVE('',#860,#1077,#1105,.T.);
#1105 = LINE('',#1106,#1107);
#1106 = CARTESIAN_POINT('',(-21.4,49.4,2.));
#1107 = VECTOR('',#1108,1.);
#1108 = DIRECTION('',(0.,-1.,0.));
#1109 = PLANE('',#1110);
#1110 = AXIS2_PLACEMENT_3D('',#1111,#1112,#1113);
#1111 = CARTESIAN_POINT('',(-21.4,3.5,-3.5));
#1112 = DIRECTION('',(-1.,-0.,-0.));
#1113 = DIRECTION('',(0.,0.,-1.));
#1114 = ADVANCED_FACE('',(#1115),#1125,.F.);
#1115 = FACE_BOUND('',#1116,.T.);
#1116 = EDGE_LOOP('',(#1117,#1118,#1123,#1124));
#1117 = ORIENTED_EDGE('',*,*,#293,.F.);
#1118 = ORIENTED_EDGE('',*,*,#1119,.F.);
#1119 = EDGE_CURVE('',#737,#294,#1120,.T.);
#1120 = B_SPLINE_CURVE_WITH_KNOTS('',1,(#1121,#1122),.UNSPECIFIED.,.F.,
  .F.,(2,2),(-3.,10.),.PIECEWISE_BEZIER_KNOTS.);
#1121 = CARTESIAN_POINT('',(-14.95,-39.4,3.));
#1122 = CARTESIAN_POINT('',(-14.95,-39.4,-10.));
#1123 = ORIENTED_EDGE('',*,*,#736,.T.);
#1124 = ORIENTED_EDGE('',*,*,#1119,.T.);
#1125 = CYLINDRICAL_SURFACE('',#1126,1.45);
#1126 = AXIS2_PLACEMENT_3D('',#1127,#1128,#1129);
#1127 = CARTESIAN_POINT('',(-16.4,-39.4,0.));
#1128 = DIRECTION('',(-0.,-0.,-1.));
#1129 = DIRECTION('',(1.,0.,0.));
#1130 = ADVANCED_FACE('',(#1131),#1141,.F.);
#1131 = FACE_BOUND('',#1132,.T.);
#1132 = EDGE_LOOP('',(#1133,#1134,#1139,#1140));
#1133 = ORIENTED_EDGE('',*,*,#304,.F.);
#1134 = ORIENTED_EDGE('',*,*,#1135,.F.);
#1135 = EDGE_CURVE('',#748,#305,#1136,.T.);
#1136 = B_SPLINE_CURVE_WITH_KNOTS('',1,(#1137,#1138),.UNSPECIFIED.,.F.,
  .F.,(2,2),(-3.,10.),.PIECEWISE_BEZIER_KNOTS.);
#1137 = CARTESIAN_POINT('',(17.85,-39.4,3.));
#1138 = CARTESIAN_POINT('',(17.85,-39.4,-10.));
#1139 = ORIENTED_EDGE('',*,*,#747,.T.);
#1140 = ORIENTED_EDGE('',*,*,#1135,.T.);
#1141 = CYLINDRICAL_SURFACE('',#1142,1.45);
#1142 = AXIS2_PLACEMENT_3D('',#1143,#1144,#1145);
#1143 = CARTESIAN_POINT('',(16.4,-39.4,0.));
#1144 = DIRECTION('',(-0.,-0.,-1.));
#1145 = DIRECTION('',(1.,0.,0.));
#1146 = ADVANCED_FACE('',(#1147),#1157,.F.);
#1147 = FACE_BOUND('',#1148,.T.);
#1148 = EDGE_LOOP('',(#1149,#1150,#1155,#1156));
#1149 = ORIENTED_EDGE('',*,*,#315,.F.);
#1150 = ORIENTED_EDGE('',*,*,#1151,.F.);
#1151 = EDGE_CURVE('',#759,#316,#1152,.T.);
#1152 = B_SPLINE_CURVE_WITH_KNOTS('',1,(#1153,#1154),.UNSPECIFIED.,.F.,
  .F.,(2,2),(-3.,10.),.PIECEWISE_BEZIER_KNOTS.);
#1153 = CARTESIAN_POINT('',(-14.95,46.4,3.));
#1154 = CARTESIAN_POINT('',(-14.95,46.4,-10.));
#1155 = ORIENTED_EDGE('',*,*,#758,.T.);
#1156 = ORIENTED_EDGE('',*,*,#1151,.T.);
#1157 = CYLINDRICAL_SURFACE('',#1158,1.45);
#1158 = AXIS2_PLACEMENT_3D('',#1159,#1160,#1161);
#1159 = CARTESIAN_POINT('',(-16.4,46.4,0.));
#1160 = DIRECTION('',(-0.,-0.,-1.));
#1161 = DIRECTION('',(1.,0.,0.));
#1162 = ADVANCED_FACE('',(#1163),#1173,.F.);
#1163 = FACE_BOUND('',#1164,.T.);
#1164 = EDGE_LOOP('',(#1165,#1166,#1171,#1172));
#1165 = ORIENTED_EDGE('',*,*,#326,.F.);
#1166 = ORIENTED_EDGE('',*,*,#1167,.F.);
#1167 = EDGE_CURVE('',#770,#327,#1168,.T.);
#1168 = B_SPLINE_CURVE_WITH_KNOTS('',1,(#1169,#1170),.UNSPECIFIED.,.F.,
  .F.,(2,2),(-3.,10.),.PIECEWISE_BEZIER_KNOTS.);
#1169 = CARTESIAN_POINT('',(17.85,46.4,3.));
#1170 = CARTESIAN_POINT('',(17.85,46.4,-10.));
#1171 = ORIENTED_EDGE('',*,*,#769,.T.);
#1172 = ORIENTED_EDGE('',*,*,#1167,.T.);
#1173 = CYLINDRICAL_SURFACE('',#1174,1.45);
#1174 = AXIS2_PLACEMENT_3D('',#1175,#1176,#1177);
#1175 = CARTESIAN_POINT('',(16.4,46.4,0.));
#1176 = DIRECTION('',(-0.,-0.,-1.));
#1177 = DIRECTION('',(1.,0.,0.));
#1178 = ADVANCED_FACE('',(#1179),#1206,.T.);
#1179 = FACE_BOUND('',#1180,.F.);
#1180 = EDGE_LOOP('',(#1181,#1182,#1191,#1199));
#1181 = ORIENTED_EDGE('',*,*,#343,.T.);
#1182 = ORIENTED_EDGE('',*,*,#1183,.T.);
#1183 = EDGE_CURVE('',#346,#1184,#1186,.T.);
#1184 = VERTEX_POINT('',#1185);
#1185 = CARTESIAN_POINT('',(31.4,33.4,2.));
#1186 = CIRCLE('',#1187,2.);
#1187 = AXIS2_PLACEMENT_3D('',#1188,#1189,#1190);
#1188 = CARTESIAN_POINT('',(29.4,33.4,2.));
#1189 = DIRECTION('',(-0.,0.,1.));
#1190 = DIRECTION('',(0.,-1.,0.));
#1191 = ORIENTED_EDGE('',*,*,#1192,.F.);
#1192 = EDGE_CURVE('',#1193,#1184,#1195,.T.);
#1193 = VERTEX_POINT('',#1194);
#1194 = CARTESIAN_POINT('',(31.4,33.4,1.));
#1195 = LINE('',#1196,#1197);
#1196 = CARTESIAN_POINT('',(31.4,33.4,0.));
#1197 = VECTOR('',#1198,1.);
#1198 = DIRECTION('',(0.,0.,1.));
#1199 = ORIENTED_EDGE('',*,*,#1200,.F.);
#1200 = EDGE_CURVE('',#344,#1193,#1201,.T.);
#1201 = CIRCLE('',#1202,2.);
#1202 = AXIS2_PLACEMENT_3D('',#1203,#1204,#1205);
#1203 = CARTESIAN_POINT('',(29.4,33.4,1.));
#1204 = DIRECTION('',(-0.,0.,1.));
#1205 = DIRECTION('',(0.,-1.,0.));
#1206 = CYLINDRICAL_SURFACE('',#1207,2.);
#1207 = AXIS2_PLACEMENT_3D('',#1208,#1209,#1210);
#1208 = CARTESIAN_POINT('',(29.4,33.4,0.));
#1209 = DIRECTION('',(-0.,-0.,-1.));
#1210 = DIRECTION('',(1.,0.,0.));
#1211 = ADVANCED_FACE('',(#1212),#1230,.T.);
#1212 = FACE_BOUND('',#1213,.T.);
#1213 = EDGE_LOOP('',(#1214,#1221,#1222,#1229));
#1214 = ORIENTED_EDGE('',*,*,#1215,.F.);
#1215 = EDGE_CURVE('',#122,#659,#1216,.T.);
#1216 = ELLIPSE('',#1217,1.414213562373,1.);
#1217 = AXIS2_PLACEMENT_3D('',#1218,#1219,#1220);
#1218 = CARTESIAN_POINT('',(20.4,32.4,2.));
#1219 = DIRECTION('',(-0.707106781187,-0.707106781187,-0.));
#1220 = DIRECTION('',(-0.707106781187,0.707106781187,0.));
#1221 = ORIENTED_EDGE('',*,*,#360,.T.);
#1222 = ORIENTED_EDGE('',*,*,#1223,.F.);
#1223 = EDGE_CURVE('',#667,#346,#1224,.T.);
#1224 = CIRCLE('',#1225,1.);
#1225 = AXIS2_PLACEMENT_3D('',#1226,#1227,#1228);
#1226 = CARTESIAN_POINT('',(29.4,32.4,2.));
#1227 = DIRECTION('',(1.,0.,-0.));
#1228 = DIRECTION('',(0.,0.,1.));
#1229 = ORIENTED_EDGE('',*,*,#666,.T.);
#1230 = CYLINDRICAL_SURFACE('',#1231,1.);
#1231 = AXIS2_PLACEMENT_3D('',#1232,#1233,#1234);
#1232 = CARTESIAN_POINT('',(21.4,32.4,2.));
#1233 = DIRECTION('',(1.,0.,0.));
#1234 = DIRECTION('',(0.,0.,1.));
#1235 = ADVANCED_FACE('',(#1236),#1254,.T.);
#1236 = FACE_BOUND('',#1237,.T.);
#1237 = EDGE_LOOP('',(#1238,#1245,#1246,#1253));
#1238 = ORIENTED_EDGE('',*,*,#1239,.F.);
#1239 = EDGE_CURVE('',#40,#591,#1240,.T.);
#1240 = CIRCLE('',#1241,1.);
#1241 = AXIS2_PLACEMENT_3D('',#1242,#1243,#1244);
#1242 = CARTESIAN_POINT('',(20.4,49.4,2.));
#1243 = DIRECTION('',(0.,-1.,0.));
#1244 = DIRECTION('',(1.,0.,0.));
#1245 = ORIENTED_EDGE('',*,*,#384,.T.);
#1246 = ORIENTED_EDGE('',*,*,#1247,.T.);
#1247 = EDGE_CURVE('',#375,#599,#1248,.T.);
#1248 = CIRCLE('',#1249,1.);
#1249 = AXIS2_PLACEMENT_3D('',#1250,#1251,#1252);
#1250 = CARTESIAN_POINT('',(19.4,50.4,2.));
#1251 = DIRECTION('',(1.,3.49E-15,-0.));
#1252 = DIRECTION('',(-3.49E-15,1.,0.));
#1253 = ORIENTED_EDGE('',*,*,#598,.F.);
#1254 = TOROIDAL_SURFACE('',#1255,1.,1.);
#1255 = AXIS2_PLACEMENT_3D('',#1256,#1257,#1258);
#1256 = CARTESIAN_POINT('',(19.4,49.4,2.));
#1257 = DIRECTION('',(0.,0.,1.));
#1258 = DIRECTION('',(1.,3.55E-15,-0.));
#1259 = ADVANCED_FACE('',(#1260),#1272,.T.);
#1260 = FACE_BOUND('',#1261,.T.);
#1261 = EDGE_LOOP('',(#1262,#1263,#1264,#1271));
#1262 = ORIENTED_EDGE('',*,*,#401,.F.);
#1263 = ORIENTED_EDGE('',*,*,#426,.T.);
#1264 = ORIENTED_EDGE('',*,*,#1265,.T.);
#1265 = EDGE_CURVE('',#427,#1193,#1266,.T.);
#1266 = CIRCLE('',#1267,1.);
#1267 = AXIS2_PLACEMENT_3D('',#1268,#1269,#1270);
#1268 = CARTESIAN_POINT('',(30.4,33.4,1.));
#1269 = DIRECTION('',(8.3E-16,-1.,0.));
#1270 = DIRECTION('',(1.,8.3E-16,0.));
#1271 = ORIENTED_EDGE('',*,*,#1200,.F.);
#1272 = TOROIDAL_SURFACE('',#1273,1.,1.);
#1273 = AXIS2_PLACEMENT_3D('',#1274,#1275,#1276);
#1274 = CARTESIAN_POINT('',(29.4,33.4,1.));
#1275 = DIRECTION('',(0.,0.,1.));
#1276 = DIRECTION('',(0.,-1.,0.));
#1277 = ADVANCED_FACE('',(#1278),#1289,.F.);
#1278 = FACE_BOUND('',#1279,.T.);
#1279 = EDGE_LOOP('',(#1280,#1281,#1282,#1288));
#1280 = ORIENTED_EDGE('',*,*,#548,.T.);
#1281 = ORIENTED_EDGE('',*,*,#727,.T.);
#1282 = ORIENTED_EDGE('',*,*,#1283,.F.);
#1283 = EDGE_CURVE('',#477,#720,#1284,.T.);
#1284 = LINE('',#1285,#1286);
#1285 = CARTESIAN_POINT('',(29.4,34.4,0.));
#1286 = VECTOR('',#1287,1.);
#1287 = DIRECTION('',(0.,0.,1.));
#1288 = ORIENTED_EDGE('',*,*,#484,.F.);
#1289 = CYLINDRICAL_SURFACE('',#1290,1.);
#1290 = AXIS2_PLACEMENT_3D('',#1291,#1292,#1293);
#1291 = CARTESIAN_POINT('',(28.4,34.4,0.));
#1292 = DIRECTION('',(-0.,-0.,-1.));
#1293 = DIRECTION('',(1.,0.,0.));
#1294 = ADVANCED_FACE('',(#1295),#1314,.T.);
#1295 = FACE_BOUND('',#1296,.F.);
#1296 = EDGE_LOOP('',(#1297,#1298,#1306,#1313));
#1297 = ORIENTED_EDGE('',*,*,#1265,.T.);
#1298 = ORIENTED_EDGE('',*,*,#1299,.T.);
#1299 = EDGE_CURVE('',#1193,#1300,#1302,.T.);
#1300 = VERTEX_POINT('',#1301);
#1301 = CARTESIAN_POINT('',(31.4,39.4,1.));
#1302 = LINE('',#1303,#1304);
#1303 = CARTESIAN_POINT('',(31.4,33.4,1.));
#1304 = VECTOR('',#1305,1.);
#1305 = DIRECTION('',(0.,1.,0.));
#1306 = ORIENTED_EDGE('',*,*,#1307,.F.);
#1307 = EDGE_CURVE('',#436,#1300,#1308,.T.);
#1308 = CIRCLE('',#1309,1.);
#1309 = AXIS2_PLACEMENT_3D('',#1310,#1311,#1312);
#1310 = CARTESIAN_POINT('',(30.4,39.4,1.));
#1311 = DIRECTION('',(0.,-1.,0.));
#1312 = DIRECTION('',(0.,0.,-1.));
#1313 = ORIENTED_EDGE('',*,*,#435,.F.);
#1314 = CYLINDRICAL_SURFACE('',#1315,1.);
#1315 = AXIS2_PLACEMENT_3D('',#1316,#1317,#1318);
#1316 = CARTESIAN_POINT('',(30.4,33.4,1.));
#1317 = DIRECTION('',(0.,1.,0.));
#1318 = DIRECTION('',(0.,0.,-1.));
#1319 = ADVANCED_FACE('',(#1320),#1331,.T.);
#1320 = FACE_BOUND('',#1321,.T.);
#1321 = EDGE_LOOP('',(#1322,#1323,#1324,#1330));
#1322 = ORIENTED_EDGE('',*,*,#1283,.T.);
#1323 = ORIENTED_EDGE('',*,*,#719,.T.);
#1324 = ORIENTED_EDGE('',*,*,#1325,.F.);
#1325 = EDGE_CURVE('',#468,#711,#1326,.T.);
#1326 = LINE('',#1327,#1328);
#1327 = CARTESIAN_POINT('',(29.4,38.4,0.));
#1328 = VECTOR('',#1329,1.);
#1329 = DIRECTION('',(0.,0.,1.));
#1330 = ORIENTED_EDGE('',*,*,#476,.F.);
#1331 = PLANE('',#1332);
#1332 = AXIS2_PLACEMENT_3D('',#1333,#1334,#1335);
#1333 = CARTESIAN_POINT('',(29.4,34.4,0.));
#1334 = DIRECTION('',(-1.,0.,0.));
#1335 = DIRECTION('',(0.,1.,0.));
#1336 = ADVANCED_FACE('',(#1337),#1349,.T.);
#1337 = FACE_BOUND('',#1338,.T.);
#1338 = EDGE_LOOP('',(#1339,#1340,#1341,#1342));
#1339 = ORIENTED_EDGE('',*,*,#1307,.F.);
#1340 = ORIENTED_EDGE('',*,*,#443,.T.);
#1341 = ORIENTED_EDGE('',*,*,#562,.T.);
#1342 = ORIENTED_EDGE('',*,*,#1343,.F.);
#1343 = EDGE_CURVE('',#1300,#509,#1344,.T.);
#1344 = CIRCLE('',#1345,2.);
#1345 = AXIS2_PLACEMENT_3D('',#1346,#1347,#1348);
#1346 = CARTESIAN_POINT('',(29.4,39.4,1.));
#1347 = DIRECTION('',(0.,0.,1.));
#1348 = DIRECTION('',(1.,0.,0.));
#1349 = TOROIDAL_SURFACE('',#1350,1.,1.);
#1350 = AXIS2_PLACEMENT_3D('',#1351,#1352,#1353);
#1351 = CARTESIAN_POINT('',(29.4,39.4,1.));
#1352 = DIRECTION('',(0.,0.,1.));
#1353 = DIRECTION('',(1.,0.,0.));
#1354 = ADVANCED_FACE('',(#1355),#1361,.F.);
#1355 = FACE_BOUND('',#1356,.T.);
#1356 = EDGE_LOOP('',(#1357,#1358,#1359,#1360));
#1357 = ORIENTED_EDGE('',*,*,#1325,.T.);
#1358 = ORIENTED_EDGE('',*,*,#710,.T.);
#1359 = ORIENTED_EDGE('',*,*,#787,.F.);
#1360 = ORIENTED_EDGE('',*,*,#467,.F.);
#1361 = CYLINDRICAL_SURFACE('',#1362,1.);
#1362 = AXIS2_PLACEMENT_3D('',#1363,#1364,#1365);
#1363 = CARTESIAN_POINT('',(28.4,38.4,0.));
#1364 = DIRECTION('',(-0.,-0.,-1.));
#1365 = DIRECTION('',(1.,0.,0.));
#1366 = ADVANCED_FACE('',(#1367),#1385,.T.);
#1367 = FACE_BOUND('',#1368,.T.);
#1368 = EDGE_LOOP('',(#1369,#1376,#1377,#1384));
#1369 = ORIENTED_EDGE('',*,*,#1370,.T.);
#1370 = EDGE_CURVE('',#48,#583,#1371,.T.);
#1371 = ELLIPSE('',#1372,1.414213562373,1.);
#1372 = AXIS2_PLACEMENT_3D('',#1373,#1374,#1375);
#1373 = CARTESIAN_POINT('',(20.4,40.4,2.));
#1374 = DIRECTION('',(0.707106781187,-0.707106781187,0.));
#1375 = DIRECTION('',(0.707106781187,0.707106781187,0.));
#1376 = ORIENTED_EDGE('',*,*,#580,.F.);
#1377 = ORIENTED_EDGE('',*,*,#1378,.T.);
#1378 = EDGE_CURVE('',#581,#517,#1379,.T.);
#1379 = CIRCLE('',#1380,1.);
#1380 = AXIS2_PLACEMENT_3D('',#1381,#1382,#1383);
#1381 = CARTESIAN_POINT('',(29.4,40.4,2.));
#1382 = DIRECTION('',(-1.,2.8E-16,0.));
#1383 = DIRECTION('',(2.8E-16,1.,0.));
#1384 = ORIENTED_EDGE('',*,*,#524,.T.);
#1385 = CYLINDRICAL_SURFACE('',#1386,1.);
#1386 = AXIS2_PLACEMENT_3D('',#1387,#1388,#1389);
#1387 = CARTESIAN_POINT('',(29.4,40.4,2.));
#1388 = DIRECTION('',(-1.,0.,0.));
#1389 = DIRECTION('',(0.,0.,1.));
#1390 = ADVANCED_FACE('',(#1391),#1410,.T.);
#1391 = FACE_BOUND('',#1392,.F.);
#1392 = EDGE_LOOP('',(#1393,#1401,#1408,#1409));
#1393 = ORIENTED_EDGE('',*,*,#1394,.T.);
#1394 = EDGE_CURVE('',#1300,#1395,#1397,.T.);
#1395 = VERTEX_POINT('',#1396);
#1396 = CARTESIAN_POINT('',(31.4,39.4,2.));
#1397 = LINE('',#1398,#1399);
#1398 = CARTESIAN_POINT('',(31.4,39.4,0.));
#1399 = VECTOR('',#1400,1.);
#1400 = DIRECTION('',(0.,0.,1.));
#1401 = ORIENTED_EDGE('',*,*,#1402,.T.);
#1402 = EDGE_CURVE('',#1395,#517,#1403,.T.);
#1403 = CIRCLE('',#1404,2.);
#1404 = AXIS2_PLACEMENT_3D('',#1405,#1406,#1407);
#1405 = CARTESIAN_POINT('',(29.4,39.4,2.));
#1406 = DIRECTION('',(0.,0.,1.));
#1407 = DIRECTION('',(1.,0.,0.));
#1408 = ORIENTED_EDGE('',*,*,#516,.F.);
#1409 = ORIENTED_EDGE('',*,*,#1343,.F.);
#1410 = CYLINDRICAL_SURFACE('',#1411,2.);
#1411 = AXIS2_PLACEMENT_3D('',#1412,#1413,#1414);
#1412 = CARTESIAN_POINT('',(29.4,39.4,0.));
#1413 = DIRECTION('',(-0.,-0.,-1.));
#1414 = DIRECTION('',(1.,0.,0.));
#1415 = ADVANCED_FACE('',(#1416),#1428,.T.);
#1416 = FACE_BOUND('',#1417,.F.);
#1417 = EDGE_LOOP('',(#1418,#1425,#1426,#1427));
#1418 = ORIENTED_EDGE('',*,*,#1419,.F.);
#1419 = EDGE_CURVE('',#684,#1395,#1420,.T.);
#1420 = CIRCLE('',#1421,1.);
#1421 = AXIS2_PLACEMENT_3D('',#1422,#1423,#1424);
#1422 = CARTESIAN_POINT('',(30.4,39.4,2.));
#1423 = DIRECTION('',(0.,1.,0.));
#1424 = DIRECTION('',(0.,0.,1.));
#1425 = ORIENTED_EDGE('',*,*,#691,.T.);
#1426 = ORIENTED_EDGE('',*,*,#1378,.T.);
#1427 = ORIENTED_EDGE('',*,*,#1402,.F.);
#1428 = TOROIDAL_SURFACE('',#1429,1.,1.);
#1429 = AXIS2_PLACEMENT_3D('',#1430,#1431,#1432);
#1430 = CARTESIAN_POINT('',(29.4,39.4,2.));
#1431 = DIRECTION('',(-0.,-0.,-1.));
#1432 = DIRECTION('',(1.,0.,0.));
#1433 = ADVANCED_FACE('',(#1434),#1451,.T.);
#1434 = FACE_BOUND('',#1435,.T.);
#1435 = EDGE_LOOP('',(#1436,#1443,#1449,#1450));
#1436 = ORIENTED_EDGE('',*,*,#1437,.T.);
#1437 = EDGE_CURVE('',#675,#1184,#1438,.T.);
#1438 = CIRCLE('',#1439,1.);
#1439 = AXIS2_PLACEMENT_3D('',#1440,#1441,#1442);
#1440 = CARTESIAN_POINT('',(30.4,33.4,2.));
#1441 = DIRECTION('',(-8.3E-16,1.,0.));
#1442 = DIRECTION('',(1.,8.3E-16,0.));
#1443 = ORIENTED_EDGE('',*,*,#1444,.T.);
#1444 = EDGE_CURVE('',#1184,#1395,#1445,.T.);
#1445 = LINE('',#1446,#1447);
#1446 = CARTESIAN_POINT('',(31.4,33.4,2.));
#1447 = VECTOR('',#1448,1.);
#1448 = DIRECTION('',(0.,1.,0.));
#1449 = ORIENTED_EDGE('',*,*,#1419,.F.);
#1450 = ORIENTED_EDGE('',*,*,#683,.F.);
#1451 = CYLINDRICAL_SURFACE('',#1452,1.);
#1452 = AXIS2_PLACEMENT_3D('',#1453,#1454,#1455);
#1453 = CARTESIAN_POINT('',(30.4,33.4,2.));
#1454 = DIRECTION('',(0.,1.,0.));
#1455 = DIRECTION('',(0.,0.,1.));
#1456 = ADVANCED_FACE('',(#1457),#1463,.T.);
#1457 = FACE_BOUND('',#1458,.F.);
#1458 = EDGE_LOOP('',(#1459,#1460,#1461,#1462));
#1459 = ORIENTED_EDGE('',*,*,#1223,.F.);
#1460 = ORIENTED_EDGE('',*,*,#674,.T.);
#1461 = ORIENTED_EDGE('',*,*,#1437,.T.);
#1462 = ORIENTED_EDGE('',*,*,#1183,.F.);
#1463 = TOROIDAL_SURFACE('',#1464,1.,1.);
#1464 = AXIS2_PLACEMENT_3D('',#1465,#1466,#1467);
#1465 = CARTESIAN_POINT('',(29.4,33.4,2.));
#1466 = DIRECTION('',(-0.,-0.,-1.));
#1467 = DIRECTION('',(0.,-1.,0.));
#1468 = ADVANCED_FACE('',(#1469),#1481,.T.);
#1469 = FACE_BOUND('',#1470,.F.);
#1470 = EDGE_LOOP('',(#1471,#1472,#1473,#1480));
#1471 = ORIENTED_EDGE('',*,*,#1247,.T.);
#1472 = ORIENTED_EDGE('',*,*,#607,.T.);
#1473 = ORIENTED_EDGE('',*,*,#1474,.F.);
#1474 = EDGE_CURVE('',#852,#608,#1475,.T.);
#1475 = CIRCLE('',#1476,1.);
#1476 = AXIS2_PLACEMENT_3D('',#1477,#1478,#1479);
#1477 = CARTESIAN_POINT('',(-19.4,50.4,2.));
#1478 = DIRECTION('',(1.,0.,0.));
#1479 = DIRECTION('',(-0.,1.,0.));
#1480 = ORIENTED_EDGE('',*,*,#909,.F.);
#1481 = CYLINDRICAL_SURFACE('',#1482,1.);
#1482 = AXIS2_PLACEMENT_3D('',#1483,#1484,#1485);
#1483 = CARTESIAN_POINT('',(19.4,50.4,2.));
#1484 = DIRECTION('',(-1.,0.,0.));
#1485 = DIRECTION('',(0.,1.,0.));
#1486 = ADVANCED_FACE('',(#1487),#1499,.T.);
#1487 = FACE_BOUND('',#1488,.T.);
#1488 = EDGE_LOOP('',(#1489,#1490,#1491,#1498));
#1489 = ORIENTED_EDGE('',*,*,#1474,.F.);
#1490 = ORIENTED_EDGE('',*,*,#859,.T.);
#1491 = ORIENTED_EDGE('',*,*,#1492,.T.);
#1492 = EDGE_CURVE('',#860,#616,#1493,.T.);
#1493 = CIRCLE('',#1494,1.);
#1494 = AXIS2_PLACEMENT_3D('',#1495,#1496,#1497);
#1495 = CARTESIAN_POINT('',(-20.4,49.4,2.));
#1496 = DIRECTION('',(6.E-17,1.,-0.));
#1497 = DIRECTION('',(-1.,6.E-17,0.));
#1498 = ORIENTED_EDGE('',*,*,#615,.F.);
#1499 = TOROIDAL_SURFACE('',#1500,1.,1.);
#1500 = AXIS2_PLACEMENT_3D('',#1501,#1502,#1503);
#1501 = CARTESIAN_POINT('',(-19.4,49.4,2.));
#1502 = DIRECTION('',(0.,0.,1.));
#1503 = DIRECTION('',(0.,1.,0.));
#1504 = ADVANCED_FACE('',(#1505),#1517,.T.);
#1505 = FACE_BOUND('',#1506,.F.);
#1506 = EDGE_LOOP('',(#1507,#1508,#1509,#1516));
#1507 = ORIENTED_EDGE('',*,*,#1492,.T.);
#1508 = ORIENTED_EDGE('',*,*,#624,.T.);
#1509 = ORIENTED_EDGE('',*,*,#1510,.F.);
#1510 = EDGE_CURVE('',#1077,#625,#1511,.T.);
#1511 = CIRCLE('',#1512,1.);
#1512 = AXIS2_PLACEMENT_3D('',#1513,#1514,#1515);
#1513 = CARTESIAN_POINT('',(-20.4,-42.4,2.));
#1514 = DIRECTION('',(0.,1.,-0.));
#1515 = DIRECTION('',(-1.,0.,0.));
#1516 = ORIENTED_EDGE('',*,*,#1104,.F.);
#1517 = CYLINDRICAL_SURFACE('',#1518,1.);
#1518 = AXIS2_PLACEMENT_3D('',#1519,#1520,#1521);
#1519 = CARTESIAN_POINT('',(-20.4,49.4,2.));
#1520 = DIRECTION('',(0.,-1.,0.));
#1521 = DIRECTION('',(-1.,0.,0.));
#1522 = ADVANCED_FACE('',(#1523),#1535,.T.);
#1523 = FACE_BOUND('',#1524,.T.);
#1524 = EDGE_LOOP('',(#1525,#1526,#1527,#1534));
#1525 = ORIENTED_EDGE('',*,*,#1510,.F.);
#1526 = ORIENTED_EDGE('',*,*,#1084,.T.);
#1527 = ORIENTED_EDGE('',*,*,#1528,.T.);
#1528 = EDGE_CURVE('',#828,#633,#1529,.T.);
#1529 = CIRCLE('',#1530,1.);
#1530 = AXIS2_PLACEMENT_3D('',#1531,#1532,#1533);
#1531 = CARTESIAN_POINT('',(-19.4,-43.4,2.));
#1532 = DIRECTION('',(-1.,6.E-17,0.));
#1533 = DIRECTION('',(-6.E-17,-1.,0.));
#1534 = ORIENTED_EDGE('',*,*,#632,.F.);
#1535 = TOROIDAL_SURFACE('',#1536,1.,1.);
#1536 = AXIS2_PLACEMENT_3D('',#1537,#1538,#1539);
#1537 = CARTESIAN_POINT('',(-19.4,-42.4,2.));
#1538 = DIRECTION('',(0.,0.,1.));
#1539 = DIRECTION('',(-1.,0.,0.));
#1540 = ADVANCED_FACE('',(#1541),#1547,.T.);
#1541 = FACE_BOUND('',#1542,.F.);
#1542 = EDGE_LOOP('',(#1543,#1544,#1545,#1546));
#1543 = ORIENTED_EDGE('',*,*,#1528,.T.);
#1544 = ORIENTED_EDGE('',*,*,#641,.T.);
#1545 = ORIENTED_EDGE('',*,*,#803,.F.);
#1546 = ORIENTED_EDGE('',*,*,#837,.F.);
#1547 = CYLINDRICAL_SURFACE('',#1548,1.);
#1548 = AXIS2_PLACEMENT_3D('',#1549,#1550,#1551);
#1549 = CARTESIAN_POINT('',(-19.4,-43.4,2.));
#1550 = DIRECTION('',(1.,0.,0.));
#1551 = DIRECTION('',(0.,-1.,0.));
#1552 = ADVANCED_FACE('',(#1553),#1559,.F.);
#1553 = FACE_BOUND('',#1554,.F.);
#1554 = EDGE_LOOP('',(#1555,#1556,#1557,#1558));
#1555 = ORIENTED_EDGE('',*,*,#893,.F.);
#1556 = ORIENTED_EDGE('',*,*,#933,.T.);
#1557 = ORIENTED_EDGE('',*,*,#972,.F.);
#1558 = ORIENTED_EDGE('',*,*,#1060,.F.);
#1559 = PLANE('',#1560);
#1560 = AXIS2_PLACEMENT_3D('',#1561,#1562,#1563);
#1561 = CARTESIAN_POINT('',(-7.4,51.4,-3.));
#1562 = DIRECTION('',(0.,2.2E-16,1.));
#1563 = DIRECTION('',(1.,0.,0.));
#1564 = ADVANCED_FACE('',(#1565),#1571,.T.);
#1565 = FACE_BOUND('',#1566,.T.);
#1566 = EDGE_LOOP('',(#1567,#1568,#1569,#1570));
#1567 = ORIENTED_EDGE('',*,*,#1004,.F.);
#1568 = ORIENTED_EDGE('',*,*,#947,.F.);
#1569 = ORIENTED_EDGE('',*,*,#1045,.F.);
#1570 = ORIENTED_EDGE('',*,*,#1028,.F.);
#1571 = PLANE('',#1572);
#1572 = AXIS2_PLACEMENT_3D('',#1573,#1574,#1575);
#1573 = CARTESIAN_POINT('',(4.92E-15,3.5,0.));
#1574 = DIRECTION('',(-0.,-0.,-1.));
#1575 = DIRECTION('',(-1.,0.,0.));
#1576 = ADVANCED_FACE('',(#1577),#1583,.F.);
#1577 = FACE_BOUND('',#1578,.F.);
#1578 = EDGE_LOOP('',(#1579,#1580,#1581,#1582));
#1579 = ORIENTED_EDGE('',*,*,#1192,.T.);
#1580 = ORIENTED_EDGE('',*,*,#1444,.T.);
#1581 = ORIENTED_EDGE('',*,*,#1394,.F.);
#1582 = ORIENTED_EDGE('',*,*,#1299,.F.);
#1583 = PLANE('',#1584);
#1584 = AXIS2_PLACEMENT_3D('',#1585,#1586,#1587);
#1585 = CARTESIAN_POINT('',(31.4,33.4,0.));
#1586 = DIRECTION('',(-1.,0.,0.));
#1587 = DIRECTION('',(0.,1.,0.));
#1588 = ADVANCED_FACE('',(#1589),#1595,.T.);
#1589 = FACE_BOUND('',#1590,.F.);
#1590 = EDGE_LOOP('',(#1591,#1592,#1593,#1594));
#1591 = ORIENTED_EDGE('',*,*,#1215,.F.);
#1592 = ORIENTED_EDGE('',*,*,#129,.F.);
#1593 = ORIENTED_EDGE('',*,*,#811,.T.);
#1594 = ORIENTED_EDGE('',*,*,#658,.T.);
#1595 = CYLINDRICAL_SURFACE('',#1596,1.);
#1596 = AXIS2_PLACEMENT_3D('',#1597,#1598,#1599);
#1597 = CARTESIAN_POINT('',(20.4,-42.4,2.));
#1598 = DIRECTION('',(0.,1.,0.));
#1599 = DIRECTION('',(1.,0.,0.));
#1600 = ADVANCED_FACE('',(#1601),#1607,.T.);
#1601 = FACE_BOUND('',#1602,.F.);
#1602 = EDGE_LOOP('',(#1603,#1604,#1605,#1606));
#1603 = ORIENTED_EDGE('',*,*,#1239,.F.);
#1604 = ORIENTED_EDGE('',*,*,#47,.F.);
#1605 = ORIENTED_EDGE('',*,*,#1370,.T.);
#1606 = ORIENTED_EDGE('',*,*,#590,.T.);
#1607 = CYLINDRICAL_SURFACE('',#1608,1.);
#1608 = AXIS2_PLACEMENT_3D('',#1609,#1610,#1611);
#1609 = CARTESIAN_POINT('',(20.4,41.4,2.));
#1610 = DIRECTION('',(0.,1.,0.));
#1611 = DIRECTION('',(1.,0.,0.));
#1612 = ( GEOMETRIC_REPRESENTATION_CONTEXT(3) 
GLOBAL_UNCERTAINTY_ASSIGNED_CONTEXT((#1616)) 
GLOBAL_UNIT_ASSIGNED_CONTEXT((#1613,#1614,#1615)) REPRESENTATION_CONTEXT
('Context #1','3D Context with UNIT and UNCERTAINTY') );
#1613 = ( LENGTH_UNIT() NAMED_UNIT(*) SI_UNIT(.MILLI.,.METRE.) );
#1614 = ( NAMED_UNIT(*) PLANE_ANGLE_UNIT() SI_UNIT($,.RADIAN.) );
#1615 = ( NAMED_UNIT(*) SI_UNIT($,.STERADIAN.) SOLID_ANGLE_UNIT() );
#1616 = UNCERTAINTY_MEASURE_WITH_UNIT(LENGTH_MEASURE(1.E-05),#1613,
  'distance_accuracy_value','confusion accuracy');
#1617 = PRODUCT_RELATED_PRODUCT_CATEGORY('part',$,(#7));
#1618 = MECHANICAL_DESIGN_GEOMETRIC_PRESENTATION_REPRESENTATION('',(
    #1619),#1612);
#1619 = STYLED_ITEM('color',(#1620),#15);
#1620 = PRESENTATION_STYLE_ASSIGNMENT((#1621,#1627));
#1621 = SURFACE_STYLE_USAGE(.BOTH.,#1622);
#1622 = SURFACE_SIDE_STYLE('',(#1623));
#1623 = SURFACE_STYLE_FILL_AREA(#1624);
#1624 = FILL_AREA_STYLE('',(#1625));
#1625 = FILL_AREA_STYLE_COLOUR('',#1626);
#1626 = COLOUR_RGB('',0.447058818107,0.474509808674,0.501960817233);
#1627 = CURVE_STYLE('',#1628,POSITIVE_LENGTH_MEASURE(0.1),#1629);
#1628 = DRAUGHTING_PRE_DEFINED_CURVE_FONT('continuous');
#1629 = COLOUR_RGB('',9.803921802644E-02,9.803921802644E-02,
  9.803921802644E-02);
ENDSEC;
END-ISO-10303-21;
