ISO-10303-21;
HEADER;
FILE_DESCRIPTION(('FreeCAD Model'),'2;1');
FILE_NAME('Open CASCADE Shape Model','2026-08-12T20:38:08',('Author'),(
    ''),'Open CASCADE STEP processor 7.8','FreeCAD','Unknown');
FILE_SCHEMA(('AUTOMOTIVE_DESIGN { 1 0 10303 214 1 1 1 1 }'));
ENDSEC;
DATA;
#1 = APPLICATION_PROTOCOL_DEFINITION('international standard',
  'automotive_design',2000,#2);
#2 = APPLICATION_CONTEXT(
  'core data for automotive mechanical design processes');
#3 = SHAPE_DEFINITION_REPRESENTATION(#4,#10);
#4 = PRODUCT_DEFINITION_SHAPE('','',#5);
#5 = PRODUCT_DEFINITION('design','',#6,#9);
#6 = PRODUCT_DEFINITION_FORMATION('','',#7);
#7 = PRODUCT('topplate','topplate','',(#8));
#8 = PRODUCT_CONTEXT('',#2,'mechanical');
#9 = PRODUCT_DEFINITION_CONTEXT('part definition',#2,'design');
#10 = ADVANCED_BREP_SHAPE_REPRESENTATION('',(#11,#15),#1769);
#11 = AXIS2_PLACEMENT_3D('',#12,#13,#14);
#12 = CARTESIAN_POINT('',(0.,0.,0.));
#13 = DIRECTION('',(0.,0.,1.));
#14 = DIRECTION('',(1.,0.,-0.));
#15 = MANIFOLD_SOLID_BREP('',#16);
#16 = CLOSED_SHELL('',(#17,#417,#450,#476,#502,#527,#552,#578,#604,#621,
    #652,#677,#702,#726,#750,#775,#800,#817,#848,#873,#898,#922,#946,
    #971,#996,#1013,#1038,#1063,#1088,#1113,#1144,#1169,#1194,#1218,
    #1242,#1267,#1292,#1309,#1340,#1365,#1390,#1414,#1438,#1463,#1488,
    #1505,#1536,#1561,#1586,#1610,#1634,#1659,#1684,#1701));
#17 = ADVANCED_FACE('',(#18,#88,#158,#228,#239,#250,#261,#272,#342),#412
  ,.T.);
#18 = FACE_BOUND('',#19,.T.);
#19 = EDGE_LOOP('',(#20,#30,#39,#47,#56,#64,#73,#81));
#20 = ORIENTED_EDGE('',*,*,#21,.F.);
#21 = EDGE_CURVE('',#22,#24,#26,.T.);
#22 = VERTEX_POINT('',#23);
#23 = CARTESIAN_POINT('',(20.4,-42.4,0.));
#24 = VERTEX_POINT('',#25);
#25 = CARTESIAN_POINT('',(20.4,49.4,0.));
#26 = LINE('',#27,#28);
#27 = CARTESIAN_POINT('',(20.4,-42.4,-2.2E-16));
#28 = VECTOR('',#29,1.);
#29 = DIRECTION('',(0.,1.,0.));
#30 = ORIENTED_EDGE('',*,*,#31,.F.);
#31 = EDGE_CURVE('',#32,#22,#34,.T.);
#32 = VERTEX_POINT('',#33);
#33 = CARTESIAN_POINT('',(19.4,-43.4,0.));
#34 = CIRCLE('',#35,1.);
#35 = AXIS2_PLACEMENT_3D('',#36,#37,#38);
#36 = CARTESIAN_POINT('',(19.4,-42.4,0.));
#37 = DIRECTION('',(-0.,0.,1.));
#38 = DIRECTION('',(0.,-1.,0.));
#39 = ORIENTED_EDGE('',*,*,#40,.F.);
#40 = EDGE_CURVE('',#41,#32,#43,.T.);
#41 = VERTEX_POINT('',#42);
#42 = CARTESIAN_POINT('',(-19.4,-43.4,0.));
#43 = LINE('',#44,#45);
#44 = CARTESIAN_POINT('',(-19.4,-43.4,-2.2E-16));
#45 = VECTOR('',#46,1.);
#46 = DIRECTION('',(1.,0.,0.));
#47 = ORIENTED_EDGE('',*,*,#48,.F.);
#48 = EDGE_CURVE('',#49,#41,#51,.T.);
#49 = VERTEX_POINT('',#50);
#50 = CARTESIAN_POINT('',(-20.4,-42.4,-0.));
#51 = CIRCLE('',#52,1.);
#52 = AXIS2_PLACEMENT_3D('',#53,#54,#55);
#53 = CARTESIAN_POINT('',(-19.4,-42.4,0.));
#54 = DIRECTION('',(0.,0.,1.));
#55 = DIRECTION('',(-1.,0.,0.));
#56 = ORIENTED_EDGE('',*,*,#57,.F.);
#57 = EDGE_CURVE('',#58,#49,#60,.T.);
#58 = VERTEX_POINT('',#59);
#59 = CARTESIAN_POINT('',(-20.4,49.4,0.));
#60 = LINE('',#61,#62);
#61 = CARTESIAN_POINT('',(-20.4,49.4,-2.2E-16));
#62 = VECTOR('',#63,1.);
#63 = DIRECTION('',(0.,-1.,0.));
#64 = ORIENTED_EDGE('',*,*,#65,.F.);
#65 = EDGE_CURVE('',#66,#58,#68,.T.);
#66 = VERTEX_POINT('',#67);
#67 = CARTESIAN_POINT('',(-19.4,50.4,0.));
#68 = CIRCLE('',#69,1.);
#69 = AXIS2_PLACEMENT_3D('',#70,#71,#72);
#70 = CARTESIAN_POINT('',(-19.4,49.4,0.));
#71 = DIRECTION('',(0.,-0.,1.));
#72 = DIRECTION('',(0.,1.,0.));
#73 = ORIENTED_EDGE('',*,*,#74,.F.);
#74 = EDGE_CURVE('',#75,#66,#77,.T.);
#75 = VERTEX_POINT('',#76);
#76 = CARTESIAN_POINT('',(19.4,50.4,0.));
#77 = LINE('',#78,#79);
#78 = CARTESIAN_POINT('',(19.4,50.4,-2.2E-16));
#79 = VECTOR('',#80,1.);
#80 = DIRECTION('',(-1.,0.,0.));
#81 = ORIENTED_EDGE('',*,*,#82,.F.);
#82 = EDGE_CURVE('',#24,#75,#83,.T.);
#83 = CIRCLE('',#84,1.);
#84 = AXIS2_PLACEMENT_3D('',#85,#86,#87);
#85 = CARTESIAN_POINT('',(19.4,49.4,0.));
#86 = DIRECTION('',(0.,0.,1.));
#87 = DIRECTION('',(1.,0.,-0.));
#88 = FACE_BOUND('',#89,.T.);
#89 = EDGE_LOOP('',(#90,#100,#109,#117,#126,#134,#143,#151));
#90 = ORIENTED_EDGE('',*,*,#91,.F.);
#91 = EDGE_CURVE('',#92,#94,#96,.T.);
#92 = VERTEX_POINT('',#93);
#93 = CARTESIAN_POINT('',(-6.975,-12.025,0.));
#94 = VERTEX_POINT('',#95);
#95 = CARTESIAN_POINT('',(-6.975,-2.499999999999E-02,0.));
#96 = LINE('',#97,#98);
#97 = CARTESIAN_POINT('',(-6.975,-13.025,0.));
#98 = VECTOR('',#99,1.);
#99 = DIRECTION('',(-1.9E-16,1.,0.));
#100 = ORIENTED_EDGE('',*,*,#101,.T.);
#101 = EDGE_CURVE('',#92,#102,#104,.T.);
#102 = VERTEX_POINT('',#103);
#103 = CARTESIAN_POINT('',(-5.975,-13.025,0.));
#104 = CIRCLE('',#105,1.);
#105 = AXIS2_PLACEMENT_3D('',#106,#107,#108);
#106 = CARTESIAN_POINT('',(-5.975,-12.025,0.));
#107 = DIRECTION('',(-0.,0.,1.));
#108 = DIRECTION('',(0.,-1.,0.));
#109 = ORIENTED_EDGE('',*,*,#110,.T.);
#110 = EDGE_CURVE('',#102,#111,#113,.T.);
#111 = VERTEX_POINT('',#112);
#112 = CARTESIAN_POINT('',(6.025,-13.025,0.));
#113 = LINE('',#114,#115);
#114 = CARTESIAN_POINT('',(-6.975,-13.025,0.));
#115 = VECTOR('',#116,1.);
#116 = DIRECTION('',(1.,2.5E-16,0.));
#117 = ORIENTED_EDGE('',*,*,#118,.T.);
#118 = EDGE_CURVE('',#111,#119,#121,.T.);
#119 = VERTEX_POINT('',#120);
#120 = CARTESIAN_POINT('',(7.025,-12.025,0.));
#121 = CIRCLE('',#122,1.);
#122 = AXIS2_PLACEMENT_3D('',#123,#124,#125);
#123 = CARTESIAN_POINT('',(6.025,-12.025,0.));
#124 = DIRECTION('',(-0.,0.,1.));
#125 = DIRECTION('',(0.,-1.,0.));
#126 = ORIENTED_EDGE('',*,*,#127,.T.);
#127 = EDGE_CURVE('',#119,#128,#130,.T.);
#128 = VERTEX_POINT('',#129);
#129 = CARTESIAN_POINT('',(7.025,-2.499999999998E-02,0.));
#130 = LINE('',#131,#132);
#131 = CARTESIAN_POINT('',(7.025,-13.025,0.));
#132 = VECTOR('',#133,1.);
#133 = DIRECTION('',(-2.5E-16,1.,0.));
#134 = ORIENTED_EDGE('',*,*,#135,.T.);
#135 = EDGE_CURVE('',#128,#136,#138,.T.);
#136 = VERTEX_POINT('',#137);
#137 = CARTESIAN_POINT('',(6.025,0.975,0.));
#138 = CIRCLE('',#139,1.);
#139 = AXIS2_PLACEMENT_3D('',#140,#141,#142);
#140 = CARTESIAN_POINT('',(6.025,-2.499999999998E-02,0.));
#141 = DIRECTION('',(-0.,0.,1.));
#142 = DIRECTION('',(0.,-1.,0.));
#143 = ORIENTED_EDGE('',*,*,#144,.F.);
#144 = EDGE_CURVE('',#145,#136,#147,.T.);
#145 = VERTEX_POINT('',#146);
#146 = CARTESIAN_POINT('',(-5.975,0.975,0.));
#147 = LINE('',#148,#149);
#148 = CARTESIAN_POINT('',(-6.975,0.975,0.));
#149 = VECTOR('',#150,1.);
#150 = DIRECTION('',(1.,5.1E-16,0.));
#151 = ORIENTED_EDGE('',*,*,#152,.F.);
#152 = EDGE_CURVE('',#94,#145,#153,.T.);
#153 = CIRCLE('',#154,1.);
#154 = AXIS2_PLACEMENT_3D('',#155,#156,#157);
#155 = CARTESIAN_POINT('',(-5.975,-2.499999999999E-02,0.));
#156 = DIRECTION('',(-0.,-0.,-1.));
#157 = DIRECTION('',(0.,-1.,0.));
#158 = FACE_BOUND('',#159,.T.);
#159 = EDGE_LOOP('',(#160,#170,#179,#187,#196,#204,#213,#221));
#160 = ORIENTED_EDGE('',*,*,#161,.T.);
#161 = EDGE_CURVE('',#162,#164,#166,.T.);
#162 = VERTEX_POINT('',#163);
#163 = CARTESIAN_POINT('',(-5.975,25.075,0.));
#164 = VERTEX_POINT('',#165);
#165 = CARTESIAN_POINT('',(6.025,25.075,0.));
#166 = LINE('',#167,#168);
#167 = CARTESIAN_POINT('',(-6.975,25.075,0.));
#168 = VECTOR('',#169,1.);
#169 = DIRECTION('',(1.,5.1E-16,0.));
#170 = ORIENTED_EDGE('',*,*,#171,.T.);
#171 = EDGE_CURVE('',#164,#172,#174,.T.);
#172 = VERTEX_POINT('',#173);
#173 = CARTESIAN_POINT('',(7.025,26.075,0.));
#174 = CIRCLE('',#175,1.);
#175 = AXIS2_PLACEMENT_3D('',#176,#177,#178);
#176 = CARTESIAN_POINT('',(6.025,26.075,0.));
#177 = DIRECTION('',(-0.,0.,1.));
#178 = DIRECTION('',(0.,-1.,0.));
#179 = ORIENTED_EDGE('',*,*,#180,.T.);
#180 = EDGE_CURVE('',#172,#181,#183,.T.);
#181 = VERTEX_POINT('',#182);
#182 = CARTESIAN_POINT('',(7.025,38.075,0.));
#183 = LINE('',#184,#185);
#184 = CARTESIAN_POINT('',(7.025,25.075,0.));
#185 = VECTOR('',#186,1.);
#186 = DIRECTION('',(-2.5E-16,1.,0.));
#187 = ORIENTED_EDGE('',*,*,#188,.T.);
#188 = EDGE_CURVE('',#181,#189,#191,.T.);
#189 = VERTEX_POINT('',#190);
#190 = CARTESIAN_POINT('',(6.025,39.075,0.));
#191 = CIRCLE('',#192,1.);
#192 = AXIS2_PLACEMENT_3D('',#193,#194,#195);
#193 = CARTESIAN_POINT('',(6.025,38.075,0.));
#194 = DIRECTION('',(-0.,0.,1.));
#195 = DIRECTION('',(0.,-1.,0.));
#196 = ORIENTED_EDGE('',*,*,#197,.F.);
#197 = EDGE_CURVE('',#198,#189,#200,.T.);
#198 = VERTEX_POINT('',#199);
#199 = CARTESIAN_POINT('',(-5.975,39.075,0.));
#200 = LINE('',#201,#202);
#201 = CARTESIAN_POINT('',(-6.975,39.075,0.));
#202 = VECTOR('',#203,1.);
#203 = DIRECTION('',(1.,0.,0.));
#204 = ORIENTED_EDGE('',*,*,#205,.T.);
#205 = EDGE_CURVE('',#198,#206,#208,.T.);
#206 = VERTEX_POINT('',#207);
#207 = CARTESIAN_POINT('',(-6.975,38.075,0.));
#208 = CIRCLE('',#209,1.);
#209 = AXIS2_PLACEMENT_3D('',#210,#211,#212);
#210 = CARTESIAN_POINT('',(-5.975,38.075,0.));
#211 = DIRECTION('',(-0.,0.,1.));
#212 = DIRECTION('',(0.,-1.,0.));
#213 = ORIENTED_EDGE('',*,*,#214,.F.);
#214 = EDGE_CURVE('',#215,#206,#217,.T.);
#215 = VERTEX_POINT('',#216);
#216 = CARTESIAN_POINT('',(-6.975,26.075,0.));
#217 = LINE('',#218,#219);
#218 = CARTESIAN_POINT('',(-6.975,25.075,0.));
#219 = VECTOR('',#220,1.);
#220 = DIRECTION('',(-1.9E-16,1.,0.));
#221 = ORIENTED_EDGE('',*,*,#222,.F.);
#222 = EDGE_CURVE('',#162,#215,#223,.T.);
#223 = CIRCLE('',#224,1.);
#224 = AXIS2_PLACEMENT_3D('',#225,#226,#227);
#225 = CARTESIAN_POINT('',(-5.975,26.075,0.));
#226 = DIRECTION('',(-0.,-0.,-1.));
#227 = DIRECTION('',(0.,-1.,0.));
#228 = FACE_BOUND('',#229,.T.);
#229 = EDGE_LOOP('',(#230));
#230 = ORIENTED_EDGE('',*,*,#231,.T.);
#231 = EDGE_CURVE('',#232,#232,#234,.T.);
#232 = VERTEX_POINT('',#233);
#233 = CARTESIAN_POINT('',(17.85,-39.4,0.));
#234 = CIRCLE('',#235,1.45);
#235 = AXIS2_PLACEMENT_3D('',#236,#237,#238);
#236 = CARTESIAN_POINT('',(16.4,-39.4,0.));
#237 = DIRECTION('',(0.,0.,1.));
#238 = DIRECTION('',(1.,0.,0.));
#239 = FACE_BOUND('',#240,.T.);
#240 = EDGE_LOOP('',(#241));
#241 = ORIENTED_EDGE('',*,*,#242,.T.);
#242 = EDGE_CURVE('',#243,#243,#245,.T.);
#243 = VERTEX_POINT('',#244);
#244 = CARTESIAN_POINT('',(-14.95,-39.4,0.));
#245 = CIRCLE('',#246,1.45);
#246 = AXIS2_PLACEMENT_3D('',#247,#248,#249);
#247 = CARTESIAN_POINT('',(-16.4,-39.4,0.));
#248 = DIRECTION('',(0.,0.,1.));
#249 = DIRECTION('',(1.,0.,0.));
#250 = FACE_BOUND('',#251,.T.);
#251 = EDGE_LOOP('',(#252));
#252 = ORIENTED_EDGE('',*,*,#253,.T.);
#253 = EDGE_CURVE('',#254,#254,#256,.T.);
#254 = VERTEX_POINT('',#255);
#255 = CARTESIAN_POINT('',(-14.95,46.4,0.));
#256 = CIRCLE('',#257,1.45);
#257 = AXIS2_PLACEMENT_3D('',#258,#259,#260);
#258 = CARTESIAN_POINT('',(-16.4,46.4,0.));
#259 = DIRECTION('',(0.,0.,1.));
#260 = DIRECTION('',(1.,0.,0.));
#261 = FACE_BOUND('',#262,.T.);
#262 = EDGE_LOOP('',(#263));
#263 = ORIENTED_EDGE('',*,*,#264,.T.);
#264 = EDGE_CURVE('',#265,#265,#267,.T.);
#265 = VERTEX_POINT('',#266);
#266 = CARTESIAN_POINT('',(17.85,46.4,0.));
#267 = CIRCLE('',#268,1.45);
#268 = AXIS2_PLACEMENT_3D('',#269,#270,#271);
#269 = CARTESIAN_POINT('',(16.4,46.4,0.));
#270 = DIRECTION('',(0.,0.,1.));
#271 = DIRECTION('',(1.,0.,0.));
#272 = FACE_BOUND('',#273,.T.);
#273 = EDGE_LOOP('',(#274,#284,#293,#301,#310,#318,#327,#335));
#274 = ORIENTED_EDGE('',*,*,#275,.F.);
#275 = EDGE_CURVE('',#276,#278,#280,.T.);
#276 = VERTEX_POINT('',#277);
#277 = CARTESIAN_POINT('',(-6.975,7.025,0.));
#278 = VERTEX_POINT('',#279);
#279 = CARTESIAN_POINT('',(-6.975,19.025,0.));
#280 = LINE('',#281,#282);
#281 = CARTESIAN_POINT('',(-6.975,6.025,0.));
#282 = VECTOR('',#283,1.);
#283 = DIRECTION('',(-2.5E-16,1.,0.));
#284 = ORIENTED_EDGE('',*,*,#285,.T.);
#285 = EDGE_CURVE('',#276,#286,#288,.T.);
#286 = VERTEX_POINT('',#287);
#287 = CARTESIAN_POINT('',(-5.975,6.025,0.));
#288 = CIRCLE('',#289,1.);
#289 = AXIS2_PLACEMENT_3D('',#290,#291,#292);
#290 = CARTESIAN_POINT('',(-5.975,7.025,0.));
#291 = DIRECTION('',(-0.,0.,1.));
#292 = DIRECTION('',(0.,-1.,0.));
#293 = ORIENTED_EDGE('',*,*,#294,.T.);
#294 = EDGE_CURVE('',#286,#295,#297,.T.);
#295 = VERTEX_POINT('',#296);
#296 = CARTESIAN_POINT('',(6.025,6.025,0.));
#297 = LINE('',#298,#299);
#298 = CARTESIAN_POINT('',(-6.975,6.025,0.));
#299 = VECTOR('',#300,1.);
#300 = DIRECTION('',(1.,5.1E-16,0.));
#301 = ORIENTED_EDGE('',*,*,#302,.T.);
#302 = EDGE_CURVE('',#295,#303,#305,.T.);
#303 = VERTEX_POINT('',#304);
#304 = CARTESIAN_POINT('',(7.025,7.025,0.));
#305 = CIRCLE('',#306,1.);
#306 = AXIS2_PLACEMENT_3D('',#307,#308,#309);
#307 = CARTESIAN_POINT('',(6.025,7.025,0.));
#308 = DIRECTION('',(-0.,0.,1.));
#309 = DIRECTION('',(0.,-1.,0.));
#310 = ORIENTED_EDGE('',*,*,#311,.T.);
#311 = EDGE_CURVE('',#303,#312,#314,.T.);
#312 = VERTEX_POINT('',#313);
#313 = CARTESIAN_POINT('',(7.025,19.025,0.));
#314 = LINE('',#315,#316);
#315 = CARTESIAN_POINT('',(7.025,6.025,0.));
#316 = VECTOR('',#317,1.);
#317 = DIRECTION('',(0.,1.,0.));
#318 = ORIENTED_EDGE('',*,*,#319,.T.);
#319 = EDGE_CURVE('',#312,#320,#322,.T.);
#320 = VERTEX_POINT('',#321);
#321 = CARTESIAN_POINT('',(6.025,20.025,0.));
#322 = CIRCLE('',#323,1.);
#323 = AXIS2_PLACEMENT_3D('',#324,#325,#326);
#324 = CARTESIAN_POINT('',(6.025,19.025,0.));
#325 = DIRECTION('',(-0.,0.,1.));
#326 = DIRECTION('',(0.,-1.,0.));
#327 = ORIENTED_EDGE('',*,*,#328,.F.);
#328 = EDGE_CURVE('',#329,#320,#331,.T.);
#329 = VERTEX_POINT('',#330);
#330 = CARTESIAN_POINT('',(-5.975,20.025,0.));
#331 = LINE('',#332,#333);
#332 = CARTESIAN_POINT('',(-6.975,20.025,0.));
#333 = VECTOR('',#334,1.);
#334 = DIRECTION('',(1.,5.1E-16,0.));
#335 = ORIENTED_EDGE('',*,*,#336,.F.);
#336 = EDGE_CURVE('',#278,#329,#337,.T.);
#337 = CIRCLE('',#338,1.);
#338 = AXIS2_PLACEMENT_3D('',#339,#340,#341);
#339 = CARTESIAN_POINT('',(-5.975,19.025,0.));
#340 = DIRECTION('',(-0.,-0.,-1.));
#341 = DIRECTION('',(0.,-1.,0.));
#342 = FACE_BOUND('',#343,.T.);
#343 = EDGE_LOOP('',(#344,#354,#363,#371,#380,#388,#397,#405));
#344 = ORIENTED_EDGE('',*,*,#345,.T.);
#345 = EDGE_CURVE('',#346,#348,#350,.T.);
#346 = VERTEX_POINT('',#347);
#347 = CARTESIAN_POINT('',(-5.975,-32.075,0.));
#348 = VERTEX_POINT('',#349);
#349 = CARTESIAN_POINT('',(6.025,-32.075,0.));
#350 = LINE('',#351,#352);
#351 = CARTESIAN_POINT('',(-6.975,-32.075,0.));
#352 = VECTOR('',#353,1.);
#353 = DIRECTION('',(1.,5.1E-16,0.));
#354 = ORIENTED_EDGE('',*,*,#355,.T.);
#355 = EDGE_CURVE('',#348,#356,#358,.T.);
#356 = VERTEX_POINT('',#357);
#357 = CARTESIAN_POINT('',(7.025,-31.075,0.));
#358 = CIRCLE('',#359,1.);
#359 = AXIS2_PLACEMENT_3D('',#360,#361,#362);
#360 = CARTESIAN_POINT('',(6.025,-31.075,0.));
#361 = DIRECTION('',(-0.,0.,1.));
#362 = DIRECTION('',(0.,-1.,0.));
#363 = ORIENTED_EDGE('',*,*,#364,.T.);
#364 = EDGE_CURVE('',#356,#365,#367,.T.);
#365 = VERTEX_POINT('',#366);
#366 = CARTESIAN_POINT('',(7.025,-19.075,0.));
#367 = LINE('',#368,#369);
#368 = CARTESIAN_POINT('',(7.025,-32.075,0.));
#369 = VECTOR('',#370,1.);
#370 = DIRECTION('',(-2.5E-16,1.,0.));
#371 = ORIENTED_EDGE('',*,*,#372,.T.);
#372 = EDGE_CURVE('',#365,#373,#375,.T.);
#373 = VERTEX_POINT('',#374);
#374 = CARTESIAN_POINT('',(6.025,-18.075,0.));
#375 = CIRCLE('',#376,1.);
#376 = AXIS2_PLACEMENT_3D('',#377,#378,#379);
#377 = CARTESIAN_POINT('',(6.025,-19.075,0.));
#378 = DIRECTION('',(-0.,0.,1.));
#379 = DIRECTION('',(0.,-1.,0.));
#380 = ORIENTED_EDGE('',*,*,#381,.F.);
#381 = EDGE_CURVE('',#382,#373,#384,.T.);
#382 = VERTEX_POINT('',#383);
#383 = CARTESIAN_POINT('',(-5.975,-18.075,0.));
#384 = LINE('',#385,#386);
#385 = CARTESIAN_POINT('',(-6.975,-18.075,0.));
#386 = VECTOR('',#387,1.);
#387 = DIRECTION('',(1.,2.5E-16,0.));
#388 = ORIENTED_EDGE('',*,*,#389,.T.);
#389 = EDGE_CURVE('',#382,#390,#392,.T.);
#390 = VERTEX_POINT('',#391);
#391 = CARTESIAN_POINT('',(-6.975,-19.075,0.));
#392 = CIRCLE('',#393,1.);
#393 = AXIS2_PLACEMENT_3D('',#394,#395,#396);
#394 = CARTESIAN_POINT('',(-5.975,-19.075,0.));
#395 = DIRECTION('',(-0.,0.,1.));
#396 = DIRECTION('',(0.,-1.,0.));
#397 = ORIENTED_EDGE('',*,*,#398,.F.);
#398 = EDGE_CURVE('',#399,#390,#401,.T.);
#399 = VERTEX_POINT('',#400);
#400 = CARTESIAN_POINT('',(-6.975,-31.075,0.));
#401 = LINE('',#402,#403);
#402 = CARTESIAN_POINT('',(-6.975,-32.075,0.));
#403 = VECTOR('',#404,1.);
#404 = DIRECTION('',(-2.5E-16,1.,0.));
#405 = ORIENTED_EDGE('',*,*,#406,.F.);
#406 = EDGE_CURVE('',#346,#399,#407,.T.);
#407 = CIRCLE('',#408,1.);
#408 = AXIS2_PLACEMENT_3D('',#409,#410,#411);
#409 = CARTESIAN_POINT('',(-5.975,-31.075,0.));
#410 = DIRECTION('',(-0.,-0.,-1.));
#411 = DIRECTION('',(0.,-1.,0.));
#412 = PLANE('',#413);
#413 = AXIS2_PLACEMENT_3D('',#414,#415,#416);
#414 = CARTESIAN_POINT('',(5.54E-15,3.5,0.));
#415 = DIRECTION('',(-0.,-0.,-1.));
#416 = DIRECTION('',(-1.,0.,0.));
#417 = ADVANCED_FACE('',(#418),#445,.T.);
#418 = FACE_BOUND('',#419,.F.);
#419 = EDGE_LOOP('',(#420,#429,#437,#444));
#420 = ORIENTED_EDGE('',*,*,#421,.T.);
#421 = EDGE_CURVE('',#22,#422,#424,.T.);
#422 = VERTEX_POINT('',#423);
#423 = CARTESIAN_POINT('',(21.4,-42.4,1.));
#424 = CIRCLE('',#425,1.);
#425 = AXIS2_PLACEMENT_3D('',#426,#427,#428);
#426 = CARTESIAN_POINT('',(20.4,-42.4,1.));
#427 = DIRECTION('',(0.,-1.,0.));
#428 = DIRECTION('',(0.,0.,-1.));
#429 = ORIENTED_EDGE('',*,*,#430,.T.);
#430 = EDGE_CURVE('',#422,#431,#433,.T.);
#431 = VERTEX_POINT('',#432);
#432 = CARTESIAN_POINT('',(21.4,49.4,1.));
#433 = LINE('',#434,#435);
#434 = CARTESIAN_POINT('',(21.4,-42.4,1.));
#435 = VECTOR('',#436,1.);
#436 = DIRECTION('',(0.,1.,0.));
#437 = ORIENTED_EDGE('',*,*,#438,.F.);
#438 = EDGE_CURVE('',#24,#431,#439,.T.);
#439 = CIRCLE('',#440,1.);
#440 = AXIS2_PLACEMENT_3D('',#441,#442,#443);
#441 = CARTESIAN_POINT('',(20.4,49.4,1.));
#442 = DIRECTION('',(0.,-1.,0.));
#443 = DIRECTION('',(0.,0.,-1.));
#444 = ORIENTED_EDGE('',*,*,#21,.F.);
#445 = CYLINDRICAL_SURFACE('',#446,1.);
#446 = AXIS2_PLACEMENT_3D('',#447,#448,#449);
#447 = CARTESIAN_POINT('',(20.4,-42.4,1.));
#448 = DIRECTION('',(0.,1.,0.));
#449 = DIRECTION('',(0.,0.,-1.));
#450 = ADVANCED_FACE('',(#451),#471,.T.);
#451 = FACE_BOUND('',#452,.T.);
#452 = EDGE_LOOP('',(#453,#462,#463,#464));
#453 = ORIENTED_EDGE('',*,*,#454,.F.);
#454 = EDGE_CURVE('',#32,#455,#457,.T.);
#455 = VERTEX_POINT('',#456);
#456 = CARTESIAN_POINT('',(19.4,-44.4,1.));
#457 = CIRCLE('',#458,1.);
#458 = AXIS2_PLACEMENT_3D('',#459,#460,#461);
#459 = CARTESIAN_POINT('',(19.4,-43.4,1.));
#460 = DIRECTION('',(-1.,-0.,-0.));
#461 = DIRECTION('',(0.,0.,-1.));
#462 = ORIENTED_EDGE('',*,*,#31,.T.);
#463 = ORIENTED_EDGE('',*,*,#421,.T.);
#464 = ORIENTED_EDGE('',*,*,#465,.F.);
#465 = EDGE_CURVE('',#455,#422,#466,.T.);
#466 = CIRCLE('',#467,2.);
#467 = AXIS2_PLACEMENT_3D('',#468,#469,#470);
#468 = CARTESIAN_POINT('',(19.4,-42.4,1.));
#469 = DIRECTION('',(-0.,0.,1.));
#470 = DIRECTION('',(0.,-1.,0.));
#471 = TOROIDAL_SURFACE('',#472,1.,1.);
#472 = AXIS2_PLACEMENT_3D('',#473,#474,#475);
#473 = CARTESIAN_POINT('',(19.4,-42.4,1.));
#474 = DIRECTION('',(0.,0.,1.));
#475 = DIRECTION('',(0.,-1.,0.));
#476 = ADVANCED_FACE('',(#477),#497,.T.);
#477 = FACE_BOUND('',#478,.T.);
#478 = EDGE_LOOP('',(#479,#480,#481,#490));
#479 = ORIENTED_EDGE('',*,*,#438,.F.);
#480 = ORIENTED_EDGE('',*,*,#82,.T.);
#481 = ORIENTED_EDGE('',*,*,#482,.T.);
#482 = EDGE_CURVE('',#75,#483,#485,.T.);
#483 = VERTEX_POINT('',#484);
#484 = CARTESIAN_POINT('',(19.4,51.4,1.));
#485 = CIRCLE('',#486,1.);
#486 = AXIS2_PLACEMENT_3D('',#487,#488,#489);
#487 = CARTESIAN_POINT('',(19.4,50.4,1.));
#488 = DIRECTION('',(1.,-6.E-17,0.));
#489 = DIRECTION('',(6.E-17,1.,0.));
#490 = ORIENTED_EDGE('',*,*,#491,.F.);
#491 = EDGE_CURVE('',#431,#483,#492,.T.);
#492 = CIRCLE('',#493,2.);
#493 = AXIS2_PLACEMENT_3D('',#494,#495,#496);
#494 = CARTESIAN_POINT('',(19.4,49.4,1.));
#495 = DIRECTION('',(0.,0.,1.));
#496 = DIRECTION('',(1.,0.,-0.));
#497 = TOROIDAL_SURFACE('',#498,1.,1.);
#498 = AXIS2_PLACEMENT_3D('',#499,#500,#501);
#499 = CARTESIAN_POINT('',(19.4,49.4,1.));
#500 = DIRECTION('',(0.,0.,1.));
#501 = DIRECTION('',(1.,0.,-0.));
#502 = ADVANCED_FACE('',(#503),#522,.T.);
#503 = FACE_BOUND('',#504,.F.);
#504 = EDGE_LOOP('',(#505,#514,#520,#521));
#505 = ORIENTED_EDGE('',*,*,#506,.T.);
#506 = EDGE_CURVE('',#41,#507,#509,.T.);
#507 = VERTEX_POINT('',#508);
#508 = CARTESIAN_POINT('',(-19.4,-44.4,1.));
#509 = CIRCLE('',#510,1.);
#510 = AXIS2_PLACEMENT_3D('',#511,#512,#513);
#511 = CARTESIAN_POINT('',(-19.4,-43.4,1.));
#512 = DIRECTION('',(-1.,6.E-17,0.));
#513 = DIRECTION('',(-6.E-17,-1.,0.));
#514 = ORIENTED_EDGE('',*,*,#515,.T.);
#515 = EDGE_CURVE('',#507,#455,#516,.T.);
#516 = LINE('',#517,#518);
#517 = CARTESIAN_POINT('',(-19.4,-44.4,1.));
#518 = VECTOR('',#519,1.);
#519 = DIRECTION('',(1.,0.,0.));
#520 = ORIENTED_EDGE('',*,*,#454,.F.);
#521 = ORIENTED_EDGE('',*,*,#40,.F.);
#522 = CYLINDRICAL_SURFACE('',#523,1.);
#523 = AXIS2_PLACEMENT_3D('',#524,#525,#526);
#524 = CARTESIAN_POINT('',(-19.4,-43.4,1.));
#525 = DIRECTION('',(1.,0.,0.));
#526 = DIRECTION('',(0.,0.,-1.));
#527 = ADVANCED_FACE('',(#528),#547,.T.);
#528 = FACE_BOUND('',#529,.F.);
#529 = EDGE_LOOP('',(#530,#531,#539,#546));
#530 = ORIENTED_EDGE('',*,*,#482,.T.);
#531 = ORIENTED_EDGE('',*,*,#532,.T.);
#532 = EDGE_CURVE('',#483,#533,#535,.T.);
#533 = VERTEX_POINT('',#534);
#534 = CARTESIAN_POINT('',(-19.4,51.4,1.));
#535 = LINE('',#536,#537);
#536 = CARTESIAN_POINT('',(19.4,51.4,1.));
#537 = VECTOR('',#538,1.);
#538 = DIRECTION('',(-1.,0.,0.));
#539 = ORIENTED_EDGE('',*,*,#540,.F.);
#540 = EDGE_CURVE('',#66,#533,#541,.T.);
#541 = CIRCLE('',#542,1.);
#542 = AXIS2_PLACEMENT_3D('',#543,#544,#545);
#543 = CARTESIAN_POINT('',(-19.4,50.4,1.));
#544 = DIRECTION('',(1.,-0.,0.));
#545 = DIRECTION('',(0.,0.,-1.));
#546 = ORIENTED_EDGE('',*,*,#74,.F.);
#547 = CYLINDRICAL_SURFACE('',#548,1.);
#548 = AXIS2_PLACEMENT_3D('',#549,#550,#551);
#549 = CARTESIAN_POINT('',(19.4,50.4,1.));
#550 = DIRECTION('',(-1.,0.,0.));
#551 = DIRECTION('',(0.,0.,-1.));
#552 = ADVANCED_FACE('',(#553),#573,.T.);
#553 = FACE_BOUND('',#554,.T.);
#554 = EDGE_LOOP('',(#555,#564,#565,#566));
#555 = ORIENTED_EDGE('',*,*,#556,.F.);
#556 = EDGE_CURVE('',#49,#557,#559,.T.);
#557 = VERTEX_POINT('',#558);
#558 = CARTESIAN_POINT('',(-21.4,-42.4,1.));
#559 = CIRCLE('',#560,1.);
#560 = AXIS2_PLACEMENT_3D('',#561,#562,#563);
#561 = CARTESIAN_POINT('',(-20.4,-42.4,1.));
#562 = DIRECTION('',(0.,1.,0.));
#563 = DIRECTION('',(0.,0.,-1.));
#564 = ORIENTED_EDGE('',*,*,#48,.T.);
#565 = ORIENTED_EDGE('',*,*,#506,.T.);
#566 = ORIENTED_EDGE('',*,*,#567,.F.);
#567 = EDGE_CURVE('',#557,#507,#568,.T.);
#568 = CIRCLE('',#569,2.);
#569 = AXIS2_PLACEMENT_3D('',#570,#571,#572);
#570 = CARTESIAN_POINT('',(-19.4,-42.4,1.));
#571 = DIRECTION('',(0.,0.,1.));
#572 = DIRECTION('',(-1.,0.,0.));
#573 = TOROIDAL_SURFACE('',#574,1.,1.);
#574 = AXIS2_PLACEMENT_3D('',#575,#576,#577);
#575 = CARTESIAN_POINT('',(-19.4,-42.4,1.));
#576 = DIRECTION('',(0.,0.,1.));
#577 = DIRECTION('',(-1.,0.,0.));
#578 = ADVANCED_FACE('',(#579),#599,.T.);
#579 = FACE_BOUND('',#580,.T.);
#580 = EDGE_LOOP('',(#581,#582,#583,#592));
#581 = ORIENTED_EDGE('',*,*,#540,.F.);
#582 = ORIENTED_EDGE('',*,*,#65,.T.);
#583 = ORIENTED_EDGE('',*,*,#584,.T.);
#584 = EDGE_CURVE('',#58,#585,#587,.T.);
#585 = VERTEX_POINT('',#586);
#586 = CARTESIAN_POINT('',(-21.4,49.4,1.));
#587 = CIRCLE('',#588,1.);
#588 = AXIS2_PLACEMENT_3D('',#589,#590,#591);
#589 = CARTESIAN_POINT('',(-20.4,49.4,1.));
#590 = DIRECTION('',(6.E-17,1.,-0.));
#591 = DIRECTION('',(-1.,6.E-17,0.));
#592 = ORIENTED_EDGE('',*,*,#593,.F.);
#593 = EDGE_CURVE('',#533,#585,#594,.T.);
#594 = CIRCLE('',#595,2.);
#595 = AXIS2_PLACEMENT_3D('',#596,#597,#598);
#596 = CARTESIAN_POINT('',(-19.4,49.4,1.));
#597 = DIRECTION('',(0.,-0.,1.));
#598 = DIRECTION('',(0.,1.,0.));
#599 = TOROIDAL_SURFACE('',#600,1.,1.);
#600 = AXIS2_PLACEMENT_3D('',#601,#602,#603);
#601 = CARTESIAN_POINT('',(-19.4,49.4,1.));
#602 = DIRECTION('',(0.,0.,1.));
#603 = DIRECTION('',(0.,1.,0.));
#604 = ADVANCED_FACE('',(#605),#616,.T.);
#605 = FACE_BOUND('',#606,.F.);
#606 = EDGE_LOOP('',(#607,#608,#614,#615));
#607 = ORIENTED_EDGE('',*,*,#584,.T.);
#608 = ORIENTED_EDGE('',*,*,#609,.T.);
#609 = EDGE_CURVE('',#585,#557,#610,.T.);
#610 = LINE('',#611,#612);
#611 = CARTESIAN_POINT('',(-21.4,49.4,1.));
#612 = VECTOR('',#613,1.);
#613 = DIRECTION('',(0.,-1.,0.));
#614 = ORIENTED_EDGE('',*,*,#556,.F.);
#615 = ORIENTED_EDGE('',*,*,#57,.F.);
#616 = CYLINDRICAL_SURFACE('',#617,1.);
#617 = AXIS2_PLACEMENT_3D('',#618,#619,#620);
#618 = CARTESIAN_POINT('',(-20.4,49.4,1.));
#619 = DIRECTION('',(0.,-1.,0.));
#620 = DIRECTION('',(0.,0.,-1.));
#621 = ADVANCED_FACE('',(#622),#647,.F.);
#622 = FACE_BOUND('',#623,.F.);
#623 = EDGE_LOOP('',(#624,#625,#633,#641));
#624 = ORIENTED_EDGE('',*,*,#91,.F.);
#625 = ORIENTED_EDGE('',*,*,#626,.T.);
#626 = EDGE_CURVE('',#92,#627,#629,.T.);
#627 = VERTEX_POINT('',#628);
#628 = CARTESIAN_POINT('',(-6.975,-12.025,3.));
#629 = LINE('',#630,#631);
#630 = CARTESIAN_POINT('',(-6.975,-12.025,0.));
#631 = VECTOR('',#632,1.);
#632 = DIRECTION('',(0.,0.,1.));
#633 = ORIENTED_EDGE('',*,*,#634,.T.);
#634 = EDGE_CURVE('',#627,#635,#637,.T.);
#635 = VERTEX_POINT('',#636);
#636 = CARTESIAN_POINT('',(-6.975,-2.499999999999E-02,3.));
#637 = LINE('',#638,#639);
#638 = CARTESIAN_POINT('',(-6.975,-13.025,3.));
#639 = VECTOR('',#640,1.);
#640 = DIRECTION('',(-1.9E-16,1.,0.));
#641 = ORIENTED_EDGE('',*,*,#642,.F.);
#642 = EDGE_CURVE('',#94,#635,#643,.T.);
#643 = LINE('',#644,#645);
#644 = CARTESIAN_POINT('',(-6.975,-2.499999999999E-02,0.));
#645 = VECTOR('',#646,1.);
#646 = DIRECTION('',(0.,0.,1.));
#647 = PLANE('',#648);
#648 = AXIS2_PLACEMENT_3D('',#649,#650,#651);
#649 = CARTESIAN_POINT('',(-6.975,-13.025,0.));
#650 = DIRECTION('',(-1.,-1.9E-16,0.));
#651 = DIRECTION('',(-1.9E-16,1.,0.));
#652 = ADVANCED_FACE('',(#653),#672,.F.);
#653 = FACE_BOUND('',#654,.F.);
#654 = EDGE_LOOP('',(#655,#656,#664,#671));
#655 = ORIENTED_EDGE('',*,*,#101,.T.);
#656 = ORIENTED_EDGE('',*,*,#657,.T.);
#657 = EDGE_CURVE('',#102,#658,#660,.T.);
#658 = VERTEX_POINT('',#659);
#659 = CARTESIAN_POINT('',(-5.975,-13.025,3.));
#660 = LINE('',#661,#662);
#661 = CARTESIAN_POINT('',(-5.975,-13.025,0.));
#662 = VECTOR('',#663,1.);
#663 = DIRECTION('',(0.,0.,1.));
#664 = ORIENTED_EDGE('',*,*,#665,.F.);
#665 = EDGE_CURVE('',#627,#658,#666,.T.);
#666 = CIRCLE('',#667,1.);
#667 = AXIS2_PLACEMENT_3D('',#668,#669,#670);
#668 = CARTESIAN_POINT('',(-5.975,-12.025,3.));
#669 = DIRECTION('',(-0.,0.,1.));
#670 = DIRECTION('',(0.,-1.,0.));
#671 = ORIENTED_EDGE('',*,*,#626,.F.);
#672 = CYLINDRICAL_SURFACE('',#673,1.);
#673 = AXIS2_PLACEMENT_3D('',#674,#675,#676);
#674 = CARTESIAN_POINT('',(-5.975,-12.025,0.));
#675 = DIRECTION('',(0.,0.,1.));
#676 = DIRECTION('',(-1.,-1.9E-16,0.));
#677 = ADVANCED_FACE('',(#678),#697,.F.);
#678 = FACE_BOUND('',#679,.T.);
#679 = EDGE_LOOP('',(#680,#681,#689,#696));
#680 = ORIENTED_EDGE('',*,*,#152,.T.);
#681 = ORIENTED_EDGE('',*,*,#682,.T.);
#682 = EDGE_CURVE('',#145,#683,#685,.T.);
#683 = VERTEX_POINT('',#684);
#684 = CARTESIAN_POINT('',(-5.975,0.975,3.));
#685 = LINE('',#686,#687);
#686 = CARTESIAN_POINT('',(-5.975,0.975,0.));
#687 = VECTOR('',#688,1.);
#688 = DIRECTION('',(0.,0.,1.));
#689 = ORIENTED_EDGE('',*,*,#690,.F.);
#690 = EDGE_CURVE('',#635,#683,#691,.T.);
#691 = CIRCLE('',#692,1.);
#692 = AXIS2_PLACEMENT_3D('',#693,#694,#695);
#693 = CARTESIAN_POINT('',(-5.975,-2.499999999999E-02,3.));
#694 = DIRECTION('',(-0.,-0.,-1.));
#695 = DIRECTION('',(0.,-1.,0.));
#696 = ORIENTED_EDGE('',*,*,#642,.F.);
#697 = CYLINDRICAL_SURFACE('',#698,1.);
#698 = AXIS2_PLACEMENT_3D('',#699,#700,#701);
#699 = CARTESIAN_POINT('',(-5.975,-2.499999999999E-02,0.));
#700 = DIRECTION('',(0.,0.,1.));
#701 = DIRECTION('',(-1.,-1.9E-16,0.));
#702 = ADVANCED_FACE('',(#703),#721,.T.);
#703 = FACE_BOUND('',#704,.T.);
#704 = EDGE_LOOP('',(#705,#706,#707,#715));
#705 = ORIENTED_EDGE('',*,*,#110,.F.);
#706 = ORIENTED_EDGE('',*,*,#657,.T.);
#707 = ORIENTED_EDGE('',*,*,#708,.T.);
#708 = EDGE_CURVE('',#658,#709,#711,.T.);
#709 = VERTEX_POINT('',#710);
#710 = CARTESIAN_POINT('',(6.025,-13.025,3.));
#711 = LINE('',#712,#713);
#712 = CARTESIAN_POINT('',(-6.975,-13.025,3.));
#713 = VECTOR('',#714,1.);
#714 = DIRECTION('',(1.,2.5E-16,0.));
#715 = ORIENTED_EDGE('',*,*,#716,.F.);
#716 = EDGE_CURVE('',#111,#709,#717,.T.);
#717 = LINE('',#718,#719);
#718 = CARTESIAN_POINT('',(6.025,-13.025,0.));
#719 = VECTOR('',#720,1.);
#720 = DIRECTION('',(0.,0.,1.));
#721 = PLANE('',#722);
#722 = AXIS2_PLACEMENT_3D('',#723,#724,#725);
#723 = CARTESIAN_POINT('',(-6.975,-13.025,0.));
#724 = DIRECTION('',(-2.5E-16,1.,0.));
#725 = DIRECTION('',(1.,2.5E-16,0.));
#726 = ADVANCED_FACE('',(#727),#745,.F.);
#727 = FACE_BOUND('',#728,.F.);
#728 = EDGE_LOOP('',(#729,#730,#731,#739));
#729 = ORIENTED_EDGE('',*,*,#144,.F.);
#730 = ORIENTED_EDGE('',*,*,#682,.T.);
#731 = ORIENTED_EDGE('',*,*,#732,.T.);
#732 = EDGE_CURVE('',#683,#733,#735,.T.);
#733 = VERTEX_POINT('',#734);
#734 = CARTESIAN_POINT('',(6.025,0.975,3.));
#735 = LINE('',#736,#737);
#736 = CARTESIAN_POINT('',(-6.975,0.975,3.));
#737 = VECTOR('',#738,1.);
#738 = DIRECTION('',(1.,5.1E-16,0.));
#739 = ORIENTED_EDGE('',*,*,#740,.F.);
#740 = EDGE_CURVE('',#136,#733,#741,.T.);
#741 = LINE('',#742,#743);
#742 = CARTESIAN_POINT('',(6.025,0.975,0.));
#743 = VECTOR('',#744,1.);
#744 = DIRECTION('',(0.,0.,1.));
#745 = PLANE('',#746);
#746 = AXIS2_PLACEMENT_3D('',#747,#748,#749);
#747 = CARTESIAN_POINT('',(-6.975,0.975,0.));
#748 = DIRECTION('',(-5.1E-16,1.,0.));
#749 = DIRECTION('',(1.,5.1E-16,0.));
#750 = ADVANCED_FACE('',(#751),#770,.F.);
#751 = FACE_BOUND('',#752,.F.);
#752 = EDGE_LOOP('',(#753,#754,#762,#769));
#753 = ORIENTED_EDGE('',*,*,#118,.T.);
#754 = ORIENTED_EDGE('',*,*,#755,.T.);
#755 = EDGE_CURVE('',#119,#756,#758,.T.);
#756 = VERTEX_POINT('',#757);
#757 = CARTESIAN_POINT('',(7.025,-12.025,3.));
#758 = LINE('',#759,#760);
#759 = CARTESIAN_POINT('',(7.025,-12.025,0.));
#760 = VECTOR('',#761,1.);
#761 = DIRECTION('',(0.,0.,1.));
#762 = ORIENTED_EDGE('',*,*,#763,.F.);
#763 = EDGE_CURVE('',#709,#756,#764,.T.);
#764 = CIRCLE('',#765,1.);
#765 = AXIS2_PLACEMENT_3D('',#766,#767,#768);
#766 = CARTESIAN_POINT('',(6.025,-12.025,3.));
#767 = DIRECTION('',(-0.,0.,1.));
#768 = DIRECTION('',(0.,-1.,0.));
#769 = ORIENTED_EDGE('',*,*,#716,.F.);
#770 = CYLINDRICAL_SURFACE('',#771,1.);
#771 = AXIS2_PLACEMENT_3D('',#772,#773,#774);
#772 = CARTESIAN_POINT('',(6.025,-12.025,0.));
#773 = DIRECTION('',(0.,0.,1.));
#774 = DIRECTION('',(2.5E-16,-1.,0.));
#775 = ADVANCED_FACE('',(#776),#795,.F.);
#776 = FACE_BOUND('',#777,.F.);
#777 = EDGE_LOOP('',(#778,#779,#780,#789));
#778 = ORIENTED_EDGE('',*,*,#135,.T.);
#779 = ORIENTED_EDGE('',*,*,#740,.T.);
#780 = ORIENTED_EDGE('',*,*,#781,.F.);
#781 = EDGE_CURVE('',#782,#733,#784,.T.);
#782 = VERTEX_POINT('',#783);
#783 = CARTESIAN_POINT('',(7.025,-2.499999999998E-02,3.));
#784 = CIRCLE('',#785,1.);
#785 = AXIS2_PLACEMENT_3D('',#786,#787,#788);
#786 = CARTESIAN_POINT('',(6.025,-2.499999999998E-02,3.));
#787 = DIRECTION('',(-0.,0.,1.));
#788 = DIRECTION('',(0.,-1.,0.));
#789 = ORIENTED_EDGE('',*,*,#790,.F.);
#790 = EDGE_CURVE('',#128,#782,#791,.T.);
#791 = LINE('',#792,#793);
#792 = CARTESIAN_POINT('',(7.025,-2.499999999998E-02,0.));
#793 = VECTOR('',#794,1.);
#794 = DIRECTION('',(0.,0.,1.));
#795 = CYLINDRICAL_SURFACE('',#796,1.);
#796 = AXIS2_PLACEMENT_3D('',#797,#798,#799);
#797 = CARTESIAN_POINT('',(6.025,-2.499999999998E-02,0.));
#798 = DIRECTION('',(0.,0.,1.));
#799 = DIRECTION('',(1.,2.5E-16,0.));
#800 = ADVANCED_FACE('',(#801),#812,.T.);
#801 = FACE_BOUND('',#802,.T.);
#802 = EDGE_LOOP('',(#803,#804,#805,#811));
#803 = ORIENTED_EDGE('',*,*,#127,.F.);
#804 = ORIENTED_EDGE('',*,*,#755,.T.);
#805 = ORIENTED_EDGE('',*,*,#806,.T.);
#806 = EDGE_CURVE('',#756,#782,#807,.T.);
#807 = LINE('',#808,#809);
#808 = CARTESIAN_POINT('',(7.025,-13.025,3.));
#809 = VECTOR('',#810,1.);
#810 = DIRECTION('',(-2.5E-16,1.,0.));
#811 = ORIENTED_EDGE('',*,*,#790,.F.);
#812 = PLANE('',#813);
#813 = AXIS2_PLACEMENT_3D('',#814,#815,#816);
#814 = CARTESIAN_POINT('',(7.025,-13.025,0.));
#815 = DIRECTION('',(-1.,-2.5E-16,0.));
#816 = DIRECTION('',(-2.5E-16,1.,0.));
#817 = ADVANCED_FACE('',(#818),#843,.T.);
#818 = FACE_BOUND('',#819,.T.);
#819 = EDGE_LOOP('',(#820,#821,#829,#837));
#820 = ORIENTED_EDGE('',*,*,#161,.F.);
#821 = ORIENTED_EDGE('',*,*,#822,.T.);
#822 = EDGE_CURVE('',#162,#823,#825,.T.);
#823 = VERTEX_POINT('',#824);
#824 = CARTESIAN_POINT('',(-5.975,25.075,3.));
#825 = LINE('',#826,#827);
#826 = CARTESIAN_POINT('',(-5.975,25.075,0.));
#827 = VECTOR('',#828,1.);
#828 = DIRECTION('',(0.,0.,1.));
#829 = ORIENTED_EDGE('',*,*,#830,.T.);
#830 = EDGE_CURVE('',#823,#831,#833,.T.);
#831 = VERTEX_POINT('',#832);
#832 = CARTESIAN_POINT('',(6.025,25.075,3.));
#833 = LINE('',#834,#835);
#834 = CARTESIAN_POINT('',(-6.975,25.075,3.));
#835 = VECTOR('',#836,1.);
#836 = DIRECTION('',(1.,5.1E-16,0.));
#837 = ORIENTED_EDGE('',*,*,#838,.F.);
#838 = EDGE_CURVE('',#164,#831,#839,.T.);
#839 = LINE('',#840,#841);
#840 = CARTESIAN_POINT('',(6.025,25.075,0.));
#841 = VECTOR('',#842,1.);
#842 = DIRECTION('',(0.,0.,1.));
#843 = PLANE('',#844);
#844 = AXIS2_PLACEMENT_3D('',#845,#846,#847);
#845 = CARTESIAN_POINT('',(-6.975,25.075,0.));
#846 = DIRECTION('',(-5.1E-16,1.,0.));
#847 = DIRECTION('',(1.,5.1E-16,0.));
#848 = ADVANCED_FACE('',(#849),#868,.F.);
#849 = FACE_BOUND('',#850,.T.);
#850 = EDGE_LOOP('',(#851,#852,#860,#867));
#851 = ORIENTED_EDGE('',*,*,#222,.T.);
#852 = ORIENTED_EDGE('',*,*,#853,.T.);
#853 = EDGE_CURVE('',#215,#854,#856,.T.);
#854 = VERTEX_POINT('',#855);
#855 = CARTESIAN_POINT('',(-6.975,26.075,3.));
#856 = LINE('',#857,#858);
#857 = CARTESIAN_POINT('',(-6.975,26.075,0.));
#858 = VECTOR('',#859,1.);
#859 = DIRECTION('',(0.,0.,1.));
#860 = ORIENTED_EDGE('',*,*,#861,.F.);
#861 = EDGE_CURVE('',#823,#854,#862,.T.);
#862 = CIRCLE('',#863,1.);
#863 = AXIS2_PLACEMENT_3D('',#864,#865,#866);
#864 = CARTESIAN_POINT('',(-5.975,26.075,3.));
#865 = DIRECTION('',(-0.,-0.,-1.));
#866 = DIRECTION('',(0.,-1.,0.));
#867 = ORIENTED_EDGE('',*,*,#822,.F.);
#868 = CYLINDRICAL_SURFACE('',#869,1.);
#869 = AXIS2_PLACEMENT_3D('',#870,#871,#872);
#870 = CARTESIAN_POINT('',(-5.975,26.075,0.));
#871 = DIRECTION('',(0.,0.,1.));
#872 = DIRECTION('',(5.1E-16,-1.,0.));
#873 = ADVANCED_FACE('',(#874),#893,.F.);
#874 = FACE_BOUND('',#875,.F.);
#875 = EDGE_LOOP('',(#876,#877,#885,#892));
#876 = ORIENTED_EDGE('',*,*,#171,.T.);
#877 = ORIENTED_EDGE('',*,*,#878,.T.);
#878 = EDGE_CURVE('',#172,#879,#881,.T.);
#879 = VERTEX_POINT('',#880);
#880 = CARTESIAN_POINT('',(7.025,26.075,3.));
#881 = LINE('',#882,#883);
#882 = CARTESIAN_POINT('',(7.025,26.075,0.));
#883 = VECTOR('',#884,1.);
#884 = DIRECTION('',(0.,0.,1.));
#885 = ORIENTED_EDGE('',*,*,#886,.F.);
#886 = EDGE_CURVE('',#831,#879,#887,.T.);
#887 = CIRCLE('',#888,1.);
#888 = AXIS2_PLACEMENT_3D('',#889,#890,#891);
#889 = CARTESIAN_POINT('',(6.025,26.075,3.));
#890 = DIRECTION('',(-0.,0.,1.));
#891 = DIRECTION('',(0.,-1.,0.));
#892 = ORIENTED_EDGE('',*,*,#838,.F.);
#893 = CYLINDRICAL_SURFACE('',#894,1.);
#894 = AXIS2_PLACEMENT_3D('',#895,#896,#897);
#895 = CARTESIAN_POINT('',(6.025,26.075,0.));
#896 = DIRECTION('',(0.,0.,1.));
#897 = DIRECTION('',(5.1E-16,-1.,0.));
#898 = ADVANCED_FACE('',(#899),#917,.F.);
#899 = FACE_BOUND('',#900,.F.);
#900 = EDGE_LOOP('',(#901,#902,#903,#911));
#901 = ORIENTED_EDGE('',*,*,#214,.F.);
#902 = ORIENTED_EDGE('',*,*,#853,.T.);
#903 = ORIENTED_EDGE('',*,*,#904,.T.);
#904 = EDGE_CURVE('',#854,#905,#907,.T.);
#905 = VERTEX_POINT('',#906);
#906 = CARTESIAN_POINT('',(-6.975,38.075,3.));
#907 = LINE('',#908,#909);
#908 = CARTESIAN_POINT('',(-6.975,25.075,3.));
#909 = VECTOR('',#910,1.);
#910 = DIRECTION('',(-1.9E-16,1.,0.));
#911 = ORIENTED_EDGE('',*,*,#912,.F.);
#912 = EDGE_CURVE('',#206,#905,#913,.T.);
#913 = LINE('',#914,#915);
#914 = CARTESIAN_POINT('',(-6.975,38.075,0.));
#915 = VECTOR('',#916,1.);
#916 = DIRECTION('',(0.,0.,1.));
#917 = PLANE('',#918);
#918 = AXIS2_PLACEMENT_3D('',#919,#920,#921);
#919 = CARTESIAN_POINT('',(-6.975,25.075,0.));
#920 = DIRECTION('',(-1.,-1.9E-16,0.));
#921 = DIRECTION('',(-1.9E-16,1.,0.));
#922 = ADVANCED_FACE('',(#923),#941,.T.);
#923 = FACE_BOUND('',#924,.T.);
#924 = EDGE_LOOP('',(#925,#926,#927,#935));
#925 = ORIENTED_EDGE('',*,*,#180,.F.);
#926 = ORIENTED_EDGE('',*,*,#878,.T.);
#927 = ORIENTED_EDGE('',*,*,#928,.T.);
#928 = EDGE_CURVE('',#879,#929,#931,.T.);
#929 = VERTEX_POINT('',#930);
#930 = CARTESIAN_POINT('',(7.025,38.075,3.));
#931 = LINE('',#932,#933);
#932 = CARTESIAN_POINT('',(7.025,25.075,3.));
#933 = VECTOR('',#934,1.);
#934 = DIRECTION('',(-2.5E-16,1.,0.));
#935 = ORIENTED_EDGE('',*,*,#936,.F.);
#936 = EDGE_CURVE('',#181,#929,#937,.T.);
#937 = LINE('',#938,#939);
#938 = CARTESIAN_POINT('',(7.025,38.075,0.));
#939 = VECTOR('',#940,1.);
#940 = DIRECTION('',(0.,0.,1.));
#941 = PLANE('',#942);
#942 = AXIS2_PLACEMENT_3D('',#943,#944,#945);
#943 = CARTESIAN_POINT('',(7.025,25.075,0.));
#944 = DIRECTION('',(-1.,-2.5E-16,0.));
#945 = DIRECTION('',(-2.5E-16,1.,0.));
#946 = ADVANCED_FACE('',(#947),#966,.F.);
#947 = FACE_BOUND('',#948,.F.);
#948 = EDGE_LOOP('',(#949,#950,#951,#960));
#949 = ORIENTED_EDGE('',*,*,#205,.T.);
#950 = ORIENTED_EDGE('',*,*,#912,.T.);
#951 = ORIENTED_EDGE('',*,*,#952,.F.);
#952 = EDGE_CURVE('',#953,#905,#955,.T.);
#953 = VERTEX_POINT('',#954);
#954 = CARTESIAN_POINT('',(-5.975,39.075,3.));
#955 = CIRCLE('',#956,1.);
#956 = AXIS2_PLACEMENT_3D('',#957,#958,#959);
#957 = CARTESIAN_POINT('',(-5.975,38.075,3.));
#958 = DIRECTION('',(-0.,0.,1.));
#959 = DIRECTION('',(0.,-1.,0.));
#960 = ORIENTED_EDGE('',*,*,#961,.F.);
#961 = EDGE_CURVE('',#198,#953,#962,.T.);
#962 = LINE('',#963,#964);
#963 = CARTESIAN_POINT('',(-5.975,39.075,0.));
#964 = VECTOR('',#965,1.);
#965 = DIRECTION('',(0.,0.,1.));
#966 = CYLINDRICAL_SURFACE('',#967,1.);
#967 = AXIS2_PLACEMENT_3D('',#968,#969,#970);
#968 = CARTESIAN_POINT('',(-5.975,38.075,0.));
#969 = DIRECTION('',(0.,0.,1.));
#970 = DIRECTION('',(0.,1.,0.));
#971 = ADVANCED_FACE('',(#972),#991,.F.);
#972 = FACE_BOUND('',#973,.F.);
#973 = EDGE_LOOP('',(#974,#975,#983,#990));
#974 = ORIENTED_EDGE('',*,*,#188,.T.);
#975 = ORIENTED_EDGE('',*,*,#976,.T.);
#976 = EDGE_CURVE('',#189,#977,#979,.T.);
#977 = VERTEX_POINT('',#978);
#978 = CARTESIAN_POINT('',(6.025,39.075,3.));
#979 = LINE('',#980,#981);
#980 = CARTESIAN_POINT('',(6.025,39.075,0.));
#981 = VECTOR('',#982,1.);
#982 = DIRECTION('',(0.,0.,1.));
#983 = ORIENTED_EDGE('',*,*,#984,.F.);
#984 = EDGE_CURVE('',#929,#977,#985,.T.);
#985 = CIRCLE('',#986,1.);
#986 = AXIS2_PLACEMENT_3D('',#987,#988,#989);
#987 = CARTESIAN_POINT('',(6.025,38.075,3.));
#988 = DIRECTION('',(-0.,0.,1.));
#989 = DIRECTION('',(0.,-1.,0.));
#990 = ORIENTED_EDGE('',*,*,#936,.F.);
#991 = CYLINDRICAL_SURFACE('',#992,1.);
#992 = AXIS2_PLACEMENT_3D('',#993,#994,#995);
#993 = CARTESIAN_POINT('',(6.025,38.075,0.));
#994 = DIRECTION('',(0.,0.,1.));
#995 = DIRECTION('',(1.,2.5E-16,0.));
#996 = ADVANCED_FACE('',(#997),#1008,.F.);
#997 = FACE_BOUND('',#998,.F.);
#998 = EDGE_LOOP('',(#999,#1000,#1001,#1007));
#999 = ORIENTED_EDGE('',*,*,#197,.F.);
#1000 = ORIENTED_EDGE('',*,*,#961,.T.);
#1001 = ORIENTED_EDGE('',*,*,#1002,.T.);
#1002 = EDGE_CURVE('',#953,#977,#1003,.T.);
#1003 = LINE('',#1004,#1005);
#1004 = CARTESIAN_POINT('',(-6.975,39.075,3.));
#1005 = VECTOR('',#1006,1.);
#1006 = DIRECTION('',(1.,0.,0.));
#1007 = ORIENTED_EDGE('',*,*,#976,.F.);
#1008 = PLANE('',#1009);
#1009 = AXIS2_PLACEMENT_3D('',#1010,#1011,#1012);
#1010 = CARTESIAN_POINT('',(-6.975,39.075,0.));
#1011 = DIRECTION('',(0.,1.,0.));
#1012 = DIRECTION('',(1.,0.,0.));
#1013 = ADVANCED_FACE('',(#1014),#1033,.F.);
#1014 = FACE_BOUND('',#1015,.T.);
#1015 = EDGE_LOOP('',(#1016,#1024,#1031,#1032));
#1016 = ORIENTED_EDGE('',*,*,#1017,.T.);
#1017 = EDGE_CURVE('',#232,#1018,#1020,.T.);
#1018 = VERTEX_POINT('',#1019);
#1019 = CARTESIAN_POINT('',(17.85,-39.4,3.));
#1020 = LINE('',#1021,#1022);
#1021 = CARTESIAN_POINT('',(17.85,-39.4,0.));
#1022 = VECTOR('',#1023,1.);
#1023 = DIRECTION('',(0.,0.,1.));
#1024 = ORIENTED_EDGE('',*,*,#1025,.T.);
#1025 = EDGE_CURVE('',#1018,#1018,#1026,.T.);
#1026 = CIRCLE('',#1027,1.45);
#1027 = AXIS2_PLACEMENT_3D('',#1028,#1029,#1030);
#1028 = CARTESIAN_POINT('',(16.4,-39.4,3.));
#1029 = DIRECTION('',(0.,0.,1.));
#1030 = DIRECTION('',(1.,0.,0.));
#1031 = ORIENTED_EDGE('',*,*,#1017,.F.);
#1032 = ORIENTED_EDGE('',*,*,#231,.F.);
#1033 = CYLINDRICAL_SURFACE('',#1034,1.45);
#1034 = AXIS2_PLACEMENT_3D('',#1035,#1036,#1037);
#1035 = CARTESIAN_POINT('',(16.4,-39.4,0.));
#1036 = DIRECTION('',(-0.,-0.,-1.));
#1037 = DIRECTION('',(1.,0.,0.));
#1038 = ADVANCED_FACE('',(#1039),#1058,.F.);
#1039 = FACE_BOUND('',#1040,.T.);
#1040 = EDGE_LOOP('',(#1041,#1049,#1056,#1057));
#1041 = ORIENTED_EDGE('',*,*,#1042,.T.);
#1042 = EDGE_CURVE('',#243,#1043,#1045,.T.);
#1043 = VERTEX_POINT('',#1044);
#1044 = CARTESIAN_POINT('',(-14.95,-39.4,3.));
#1045 = LINE('',#1046,#1047);
#1046 = CARTESIAN_POINT('',(-14.95,-39.4,0.));
#1047 = VECTOR('',#1048,1.);
#1048 = DIRECTION('',(0.,0.,1.));
#1049 = ORIENTED_EDGE('',*,*,#1050,.T.);
#1050 = EDGE_CURVE('',#1043,#1043,#1051,.T.);
#1051 = CIRCLE('',#1052,1.45);
#1052 = AXIS2_PLACEMENT_3D('',#1053,#1054,#1055);
#1053 = CARTESIAN_POINT('',(-16.4,-39.4,3.));
#1054 = DIRECTION('',(0.,0.,1.));
#1055 = DIRECTION('',(1.,0.,0.));
#1056 = ORIENTED_EDGE('',*,*,#1042,.F.);
#1057 = ORIENTED_EDGE('',*,*,#242,.F.);
#1058 = CYLINDRICAL_SURFACE('',#1059,1.45);
#1059 = AXIS2_PLACEMENT_3D('',#1060,#1061,#1062);
#1060 = CARTESIAN_POINT('',(-16.4,-39.4,0.));
#1061 = DIRECTION('',(-0.,-0.,-1.));
#1062 = DIRECTION('',(1.,0.,0.));
#1063 = ADVANCED_FACE('',(#1064),#1083,.F.);
#1064 = FACE_BOUND('',#1065,.T.);
#1065 = EDGE_LOOP('',(#1066,#1074,#1081,#1082));
#1066 = ORIENTED_EDGE('',*,*,#1067,.T.);
#1067 = EDGE_CURVE('',#254,#1068,#1070,.T.);
#1068 = VERTEX_POINT('',#1069);
#1069 = CARTESIAN_POINT('',(-14.95,46.4,3.));
#1070 = LINE('',#1071,#1072);
#1071 = CARTESIAN_POINT('',(-14.95,46.4,0.));
#1072 = VECTOR('',#1073,1.);
#1073 = DIRECTION('',(0.,0.,1.));
#1074 = ORIENTED_EDGE('',*,*,#1075,.T.);
#1075 = EDGE_CURVE('',#1068,#1068,#1076,.T.);
#1076 = CIRCLE('',#1077,1.45);
#1077 = AXIS2_PLACEMENT_3D('',#1078,#1079,#1080);
#1078 = CARTESIAN_POINT('',(-16.4,46.4,3.));
#1079 = DIRECTION('',(0.,0.,1.));
#1080 = DIRECTION('',(1.,0.,0.));
#1081 = ORIENTED_EDGE('',*,*,#1067,.F.);
#1082 = ORIENTED_EDGE('',*,*,#253,.F.);
#1083 = CYLINDRICAL_SURFACE('',#1084,1.45);
#1084 = AXIS2_PLACEMENT_3D('',#1085,#1086,#1087);
#1085 = CARTESIAN_POINT('',(-16.4,46.4,0.));
#1086 = DIRECTION('',(-0.,-0.,-1.));
#1087 = DIRECTION('',(1.,0.,0.));
#1088 = ADVANCED_FACE('',(#1089),#1108,.F.);
#1089 = FACE_BOUND('',#1090,.T.);
#1090 = EDGE_LOOP('',(#1091,#1099,#1106,#1107));
#1091 = ORIENTED_EDGE('',*,*,#1092,.T.);
#1092 = EDGE_CURVE('',#265,#1093,#1095,.T.);
#1093 = VERTEX_POINT('',#1094);
#1094 = CARTESIAN_POINT('',(17.85,46.4,3.));
#1095 = LINE('',#1096,#1097);
#1096 = CARTESIAN_POINT('',(17.85,46.4,0.));
#1097 = VECTOR('',#1098,1.);
#1098 = DIRECTION('',(0.,0.,1.));
#1099 = ORIENTED_EDGE('',*,*,#1100,.T.);
#1100 = EDGE_CURVE('',#1093,#1093,#1101,.T.);
#1101 = CIRCLE('',#1102,1.45);
#1102 = AXIS2_PLACEMENT_3D('',#1103,#1104,#1105);
#1103 = CARTESIAN_POINT('',(16.4,46.4,3.));
#1104 = DIRECTION('',(0.,0.,1.));
#1105 = DIRECTION('',(1.,0.,0.));
#1106 = ORIENTED_EDGE('',*,*,#1092,.F.);
#1107 = ORIENTED_EDGE('',*,*,#264,.F.);
#1108 = CYLINDRICAL_SURFACE('',#1109,1.45);
#1109 = AXIS2_PLACEMENT_3D('',#1110,#1111,#1112);
#1110 = CARTESIAN_POINT('',(16.4,46.4,0.));
#1111 = DIRECTION('',(-0.,-0.,-1.));
#1112 = DIRECTION('',(1.,0.,0.));
#1113 = ADVANCED_FACE('',(#1114),#1139,.F.);
#1114 = FACE_BOUND('',#1115,.F.);
#1115 = EDGE_LOOP('',(#1116,#1117,#1125,#1133));
#1116 = ORIENTED_EDGE('',*,*,#275,.F.);
#1117 = ORIENTED_EDGE('',*,*,#1118,.T.);
#1118 = EDGE_CURVE('',#276,#1119,#1121,.T.);
#1119 = VERTEX_POINT('',#1120);
#1120 = CARTESIAN_POINT('',(-6.975,7.025,3.));
#1121 = LINE('',#1122,#1123);
#1122 = CARTESIAN_POINT('',(-6.975,7.025,0.));
#1123 = VECTOR('',#1124,1.);
#1124 = DIRECTION('',(0.,0.,1.));
#1125 = ORIENTED_EDGE('',*,*,#1126,.T.);
#1126 = EDGE_CURVE('',#1119,#1127,#1129,.T.);
#1127 = VERTEX_POINT('',#1128);
#1128 = CARTESIAN_POINT('',(-6.975,19.025,3.));
#1129 = LINE('',#1130,#1131);
#1130 = CARTESIAN_POINT('',(-6.975,6.025,3.));
#1131 = VECTOR('',#1132,1.);
#1132 = DIRECTION('',(-2.5E-16,1.,0.));
#1133 = ORIENTED_EDGE('',*,*,#1134,.F.);
#1134 = EDGE_CURVE('',#278,#1127,#1135,.T.);
#1135 = LINE('',#1136,#1137);
#1136 = CARTESIAN_POINT('',(-6.975,19.025,0.));
#1137 = VECTOR('',#1138,1.);
#1138 = DIRECTION('',(0.,0.,1.));
#1139 = PLANE('',#1140);
#1140 = AXIS2_PLACEMENT_3D('',#1141,#1142,#1143);
#1141 = CARTESIAN_POINT('',(-6.975,6.025,0.));
#1142 = DIRECTION('',(-1.,-2.5E-16,0.));
#1143 = DIRECTION('',(-2.5E-16,1.,0.));
#1144 = ADVANCED_FACE('',(#1145),#1164,.F.);
#1145 = FACE_BOUND('',#1146,.F.);
#1146 = EDGE_LOOP('',(#1147,#1148,#1156,#1163));
#1147 = ORIENTED_EDGE('',*,*,#285,.T.);
#1148 = ORIENTED_EDGE('',*,*,#1149,.T.);
#1149 = EDGE_CURVE('',#286,#1150,#1152,.T.);
#1150 = VERTEX_POINT('',#1151);
#1151 = CARTESIAN_POINT('',(-5.975,6.025,3.));
#1152 = LINE('',#1153,#1154);
#1153 = CARTESIAN_POINT('',(-5.975,6.025,0.));
#1154 = VECTOR('',#1155,1.);
#1155 = DIRECTION('',(0.,0.,1.));
#1156 = ORIENTED_EDGE('',*,*,#1157,.F.);
#1157 = EDGE_CURVE('',#1119,#1150,#1158,.T.);
#1158 = CIRCLE('',#1159,1.);
#1159 = AXIS2_PLACEMENT_3D('',#1160,#1161,#1162);
#1160 = CARTESIAN_POINT('',(-5.975,7.025,3.));
#1161 = DIRECTION('',(-0.,0.,1.));
#1162 = DIRECTION('',(0.,-1.,0.));
#1163 = ORIENTED_EDGE('',*,*,#1118,.F.);
#1164 = CYLINDRICAL_SURFACE('',#1165,1.);
#1165 = AXIS2_PLACEMENT_3D('',#1166,#1167,#1168);
#1166 = CARTESIAN_POINT('',(-5.975,7.025,0.));
#1167 = DIRECTION('',(0.,0.,1.));
#1168 = DIRECTION('',(-1.,-2.5E-16,0.));
#1169 = ADVANCED_FACE('',(#1170),#1189,.F.);
#1170 = FACE_BOUND('',#1171,.T.);
#1171 = EDGE_LOOP('',(#1172,#1173,#1181,#1188));
#1172 = ORIENTED_EDGE('',*,*,#336,.T.);
#1173 = ORIENTED_EDGE('',*,*,#1174,.T.);
#1174 = EDGE_CURVE('',#329,#1175,#1177,.T.);
#1175 = VERTEX_POINT('',#1176);
#1176 = CARTESIAN_POINT('',(-5.975,20.025,3.));
#1177 = LINE('',#1178,#1179);
#1178 = CARTESIAN_POINT('',(-5.975,20.025,0.));
#1179 = VECTOR('',#1180,1.);
#1180 = DIRECTION('',(0.,0.,1.));
#1181 = ORIENTED_EDGE('',*,*,#1182,.F.);
#1182 = EDGE_CURVE('',#1127,#1175,#1183,.T.);
#1183 = CIRCLE('',#1184,1.);
#1184 = AXIS2_PLACEMENT_3D('',#1185,#1186,#1187);
#1185 = CARTESIAN_POINT('',(-5.975,19.025,3.));
#1186 = DIRECTION('',(-0.,-0.,-1.));
#1187 = DIRECTION('',(0.,-1.,0.));
#1188 = ORIENTED_EDGE('',*,*,#1134,.F.);
#1189 = CYLINDRICAL_SURFACE('',#1190,1.);
#1190 = AXIS2_PLACEMENT_3D('',#1191,#1192,#1193);
#1191 = CARTESIAN_POINT('',(-5.975,19.025,0.));
#1192 = DIRECTION('',(0.,0.,1.));
#1193 = DIRECTION('',(-1.,-2.5E-16,0.));
#1194 = ADVANCED_FACE('',(#1195),#1213,.T.);
#1195 = FACE_BOUND('',#1196,.T.);
#1196 = EDGE_LOOP('',(#1197,#1198,#1199,#1207));
#1197 = ORIENTED_EDGE('',*,*,#294,.F.);
#1198 = ORIENTED_EDGE('',*,*,#1149,.T.);
#1199 = ORIENTED_EDGE('',*,*,#1200,.T.);
#1200 = EDGE_CURVE('',#1150,#1201,#1203,.T.);
#1201 = VERTEX_POINT('',#1202);
#1202 = CARTESIAN_POINT('',(6.025,6.025,3.));
#1203 = LINE('',#1204,#1205);
#1204 = CARTESIAN_POINT('',(-6.975,6.025,3.));
#1205 = VECTOR('',#1206,1.);
#1206 = DIRECTION('',(1.,5.1E-16,0.));
#1207 = ORIENTED_EDGE('',*,*,#1208,.F.);
#1208 = EDGE_CURVE('',#295,#1201,#1209,.T.);
#1209 = LINE('',#1210,#1211);
#1210 = CARTESIAN_POINT('',(6.025,6.025,0.));
#1211 = VECTOR('',#1212,1.);
#1212 = DIRECTION('',(0.,0.,1.));
#1213 = PLANE('',#1214);
#1214 = AXIS2_PLACEMENT_3D('',#1215,#1216,#1217);
#1215 = CARTESIAN_POINT('',(-6.975,6.025,0.));
#1216 = DIRECTION('',(-5.1E-16,1.,0.));
#1217 = DIRECTION('',(1.,5.1E-16,0.));
#1218 = ADVANCED_FACE('',(#1219),#1237,.F.);
#1219 = FACE_BOUND('',#1220,.F.);
#1220 = EDGE_LOOP('',(#1221,#1222,#1223,#1231));
#1221 = ORIENTED_EDGE('',*,*,#328,.F.);
#1222 = ORIENTED_EDGE('',*,*,#1174,.T.);
#1223 = ORIENTED_EDGE('',*,*,#1224,.T.);
#1224 = EDGE_CURVE('',#1175,#1225,#1227,.T.);
#1225 = VERTEX_POINT('',#1226);
#1226 = CARTESIAN_POINT('',(6.025,20.025,3.));
#1227 = LINE('',#1228,#1229);
#1228 = CARTESIAN_POINT('',(-6.975,20.025,3.));
#1229 = VECTOR('',#1230,1.);
#1230 = DIRECTION('',(1.,5.1E-16,0.));
#1231 = ORIENTED_EDGE('',*,*,#1232,.F.);
#1232 = EDGE_CURVE('',#320,#1225,#1233,.T.);
#1233 = LINE('',#1234,#1235);
#1234 = CARTESIAN_POINT('',(6.025,20.025,0.));
#1235 = VECTOR('',#1236,1.);
#1236 = DIRECTION('',(0.,0.,1.));
#1237 = PLANE('',#1238);
#1238 = AXIS2_PLACEMENT_3D('',#1239,#1240,#1241);
#1239 = CARTESIAN_POINT('',(-6.975,20.025,0.));
#1240 = DIRECTION('',(-5.1E-16,1.,0.));
#1241 = DIRECTION('',(1.,5.1E-16,0.));
#1242 = ADVANCED_FACE('',(#1243),#1262,.F.);
#1243 = FACE_BOUND('',#1244,.F.);
#1244 = EDGE_LOOP('',(#1245,#1246,#1254,#1261));
#1245 = ORIENTED_EDGE('',*,*,#302,.T.);
#1246 = ORIENTED_EDGE('',*,*,#1247,.T.);
#1247 = EDGE_CURVE('',#303,#1248,#1250,.T.);
#1248 = VERTEX_POINT('',#1249);
#1249 = CARTESIAN_POINT('',(7.025,7.025,3.));
#1250 = LINE('',#1251,#1252);
#1251 = CARTESIAN_POINT('',(7.025,7.025,0.));
#1252 = VECTOR('',#1253,1.);
#1253 = DIRECTION('',(0.,0.,1.));
#1254 = ORIENTED_EDGE('',*,*,#1255,.F.);
#1255 = EDGE_CURVE('',#1201,#1248,#1256,.T.);
#1256 = CIRCLE('',#1257,1.);
#1257 = AXIS2_PLACEMENT_3D('',#1258,#1259,#1260);
#1258 = CARTESIAN_POINT('',(6.025,7.025,3.));
#1259 = DIRECTION('',(-0.,0.,1.));
#1260 = DIRECTION('',(0.,-1.,0.));
#1261 = ORIENTED_EDGE('',*,*,#1208,.F.);
#1262 = CYLINDRICAL_SURFACE('',#1263,1.);
#1263 = AXIS2_PLACEMENT_3D('',#1264,#1265,#1266);
#1264 = CARTESIAN_POINT('',(6.025,7.025,0.));
#1265 = DIRECTION('',(0.,0.,1.));
#1266 = DIRECTION('',(5.1E-16,-1.,0.));
#1267 = ADVANCED_FACE('',(#1268),#1287,.F.);
#1268 = FACE_BOUND('',#1269,.F.);
#1269 = EDGE_LOOP('',(#1270,#1271,#1272,#1281));
#1270 = ORIENTED_EDGE('',*,*,#319,.T.);
#1271 = ORIENTED_EDGE('',*,*,#1232,.T.);
#1272 = ORIENTED_EDGE('',*,*,#1273,.F.);
#1273 = EDGE_CURVE('',#1274,#1225,#1276,.T.);
#1274 = VERTEX_POINT('',#1275);
#1275 = CARTESIAN_POINT('',(7.025,19.025,3.));
#1276 = CIRCLE('',#1277,1.);
#1277 = AXIS2_PLACEMENT_3D('',#1278,#1279,#1280);
#1278 = CARTESIAN_POINT('',(6.025,19.025,3.));
#1279 = DIRECTION('',(-0.,0.,1.));
#1280 = DIRECTION('',(0.,-1.,0.));
#1281 = ORIENTED_EDGE('',*,*,#1282,.F.);
#1282 = EDGE_CURVE('',#312,#1274,#1283,.T.);
#1283 = LINE('',#1284,#1285);
#1284 = CARTESIAN_POINT('',(7.025,19.025,0.));
#1285 = VECTOR('',#1286,1.);
#1286 = DIRECTION('',(0.,0.,1.));
#1287 = CYLINDRICAL_SURFACE('',#1288,1.);
#1288 = AXIS2_PLACEMENT_3D('',#1289,#1290,#1291);
#1289 = CARTESIAN_POINT('',(6.025,19.025,0.));
#1290 = DIRECTION('',(0.,0.,1.));
#1291 = DIRECTION('',(1.,0.,0.));
#1292 = ADVANCED_FACE('',(#1293),#1304,.T.);
#1293 = FACE_BOUND('',#1294,.T.);
#1294 = EDGE_LOOP('',(#1295,#1296,#1297,#1303));
#1295 = ORIENTED_EDGE('',*,*,#311,.F.);
#1296 = ORIENTED_EDGE('',*,*,#1247,.T.);
#1297 = ORIENTED_EDGE('',*,*,#1298,.T.);
#1298 = EDGE_CURVE('',#1248,#1274,#1299,.T.);
#1299 = LINE('',#1300,#1301);
#1300 = CARTESIAN_POINT('',(7.025,6.025,3.));
#1301 = VECTOR('',#1302,1.);
#1302 = DIRECTION('',(0.,1.,0.));
#1303 = ORIENTED_EDGE('',*,*,#1282,.F.);
#1304 = PLANE('',#1305);
#1305 = AXIS2_PLACEMENT_3D('',#1306,#1307,#1308);
#1306 = CARTESIAN_POINT('',(7.025,6.025,0.));
#1307 = DIRECTION('',(-1.,0.,0.));
#1308 = DIRECTION('',(0.,1.,0.));
#1309 = ADVANCED_FACE('',(#1310),#1335,.T.);
#1310 = FACE_BOUND('',#1311,.T.);
#1311 = EDGE_LOOP('',(#1312,#1313,#1321,#1329));
#1312 = ORIENTED_EDGE('',*,*,#345,.F.);
#1313 = ORIENTED_EDGE('',*,*,#1314,.T.);
#1314 = EDGE_CURVE('',#346,#1315,#1317,.T.);
#1315 = VERTEX_POINT('',#1316);
#1316 = CARTESIAN_POINT('',(-5.975,-32.075,3.));
#1317 = LINE('',#1318,#1319);
#1318 = CARTESIAN_POINT('',(-5.975,-32.075,0.));
#1319 = VECTOR('',#1320,1.);
#1320 = DIRECTION('',(0.,0.,1.));
#1321 = ORIENTED_EDGE('',*,*,#1322,.T.);
#1322 = EDGE_CURVE('',#1315,#1323,#1325,.T.);
#1323 = VERTEX_POINT('',#1324);
#1324 = CARTESIAN_POINT('',(6.025,-32.075,3.));
#1325 = LINE('',#1326,#1327);
#1326 = CARTESIAN_POINT('',(-6.975,-32.075,3.));
#1327 = VECTOR('',#1328,1.);
#1328 = DIRECTION('',(1.,5.1E-16,0.));
#1329 = ORIENTED_EDGE('',*,*,#1330,.F.);
#1330 = EDGE_CURVE('',#348,#1323,#1331,.T.);
#1331 = LINE('',#1332,#1333);
#1332 = CARTESIAN_POINT('',(6.025,-32.075,0.));
#1333 = VECTOR('',#1334,1.);
#1334 = DIRECTION('',(0.,0.,1.));
#1335 = PLANE('',#1336);
#1336 = AXIS2_PLACEMENT_3D('',#1337,#1338,#1339);
#1337 = CARTESIAN_POINT('',(-6.975,-32.075,0.));
#1338 = DIRECTION('',(-5.1E-16,1.,0.));
#1339 = DIRECTION('',(1.,5.1E-16,0.));
#1340 = ADVANCED_FACE('',(#1341),#1360,.F.);
#1341 = FACE_BOUND('',#1342,.T.);
#1342 = EDGE_LOOP('',(#1343,#1344,#1352,#1359));
#1343 = ORIENTED_EDGE('',*,*,#406,.T.);
#1344 = ORIENTED_EDGE('',*,*,#1345,.T.);
#1345 = EDGE_CURVE('',#399,#1346,#1348,.T.);
#1346 = VERTEX_POINT('',#1347);
#1347 = CARTESIAN_POINT('',(-6.975,-31.075,3.));
#1348 = LINE('',#1349,#1350);
#1349 = CARTESIAN_POINT('',(-6.975,-31.075,0.));
#1350 = VECTOR('',#1351,1.);
#1351 = DIRECTION('',(0.,0.,1.));
#1352 = ORIENTED_EDGE('',*,*,#1353,.F.);
#1353 = EDGE_CURVE('',#1315,#1346,#1354,.T.);
#1354 = CIRCLE('',#1355,1.);
#1355 = AXIS2_PLACEMENT_3D('',#1356,#1357,#1358);
#1356 = CARTESIAN_POINT('',(-5.975,-31.075,3.));
#1357 = DIRECTION('',(-0.,-0.,-1.));
#1358 = DIRECTION('',(0.,-1.,0.));
#1359 = ORIENTED_EDGE('',*,*,#1314,.F.);
#1360 = CYLINDRICAL_SURFACE('',#1361,1.);
#1361 = AXIS2_PLACEMENT_3D('',#1362,#1363,#1364);
#1362 = CARTESIAN_POINT('',(-5.975,-31.075,0.));
#1363 = DIRECTION('',(0.,0.,1.));
#1364 = DIRECTION('',(5.1E-16,-1.,0.));
#1365 = ADVANCED_FACE('',(#1366),#1385,.F.);
#1366 = FACE_BOUND('',#1367,.F.);
#1367 = EDGE_LOOP('',(#1368,#1369,#1377,#1384));
#1368 = ORIENTED_EDGE('',*,*,#355,.T.);
#1369 = ORIENTED_EDGE('',*,*,#1370,.T.);
#1370 = EDGE_CURVE('',#356,#1371,#1373,.T.);
#1371 = VERTEX_POINT('',#1372);
#1372 = CARTESIAN_POINT('',(7.025,-31.075,3.));
#1373 = LINE('',#1374,#1375);
#1374 = CARTESIAN_POINT('',(7.025,-31.075,0.));
#1375 = VECTOR('',#1376,1.);
#1376 = DIRECTION('',(0.,0.,1.));
#1377 = ORIENTED_EDGE('',*,*,#1378,.F.);
#1378 = EDGE_CURVE('',#1323,#1371,#1379,.T.);
#1379 = CIRCLE('',#1380,1.);
#1380 = AXIS2_PLACEMENT_3D('',#1381,#1382,#1383);
#1381 = CARTESIAN_POINT('',(6.025,-31.075,3.));
#1382 = DIRECTION('',(-0.,0.,1.));
#1383 = DIRECTION('',(0.,-1.,0.));
#1384 = ORIENTED_EDGE('',*,*,#1330,.F.);
#1385 = CYLINDRICAL_SURFACE('',#1386,1.);
#1386 = AXIS2_PLACEMENT_3D('',#1387,#1388,#1389);
#1387 = CARTESIAN_POINT('',(6.025,-31.075,0.));
#1388 = DIRECTION('',(0.,0.,1.));
#1389 = DIRECTION('',(5.1E-16,-1.,0.));
#1390 = ADVANCED_FACE('',(#1391),#1409,.F.);
#1391 = FACE_BOUND('',#1392,.F.);
#1392 = EDGE_LOOP('',(#1393,#1394,#1395,#1403));
#1393 = ORIENTED_EDGE('',*,*,#398,.F.);
#1394 = ORIENTED_EDGE('',*,*,#1345,.T.);
#1395 = ORIENTED_EDGE('',*,*,#1396,.T.);
#1396 = EDGE_CURVE('',#1346,#1397,#1399,.T.);
#1397 = VERTEX_POINT('',#1398);
#1398 = CARTESIAN_POINT('',(-6.975,-19.075,3.));
#1399 = LINE('',#1400,#1401);
#1400 = CARTESIAN_POINT('',(-6.975,-32.075,3.));
#1401 = VECTOR('',#1402,1.);
#1402 = DIRECTION('',(-2.5E-16,1.,0.));
#1403 = ORIENTED_EDGE('',*,*,#1404,.F.);
#1404 = EDGE_CURVE('',#390,#1397,#1405,.T.);
#1405 = LINE('',#1406,#1407);
#1406 = CARTESIAN_POINT('',(-6.975,-19.075,0.));
#1407 = VECTOR('',#1408,1.);
#1408 = DIRECTION('',(0.,0.,1.));
#1409 = PLANE('',#1410);
#1410 = AXIS2_PLACEMENT_3D('',#1411,#1412,#1413);
#1411 = CARTESIAN_POINT('',(-6.975,-32.075,0.));
#1412 = DIRECTION('',(-1.,-2.5E-16,0.));
#1413 = DIRECTION('',(-2.5E-16,1.,0.));
#1414 = ADVANCED_FACE('',(#1415),#1433,.T.);
#1415 = FACE_BOUND('',#1416,.T.);
#1416 = EDGE_LOOP('',(#1417,#1418,#1419,#1427));
#1417 = ORIENTED_EDGE('',*,*,#364,.F.);
#1418 = ORIENTED_EDGE('',*,*,#1370,.T.);
#1419 = ORIENTED_EDGE('',*,*,#1420,.T.);
#1420 = EDGE_CURVE('',#1371,#1421,#1423,.T.);
#1421 = VERTEX_POINT('',#1422);
#1422 = CARTESIAN_POINT('',(7.025,-19.075,3.));
#1423 = LINE('',#1424,#1425);
#1424 = CARTESIAN_POINT('',(7.025,-32.075,3.));
#1425 = VECTOR('',#1426,1.);
#1426 = DIRECTION('',(-2.5E-16,1.,0.));
#1427 = ORIENTED_EDGE('',*,*,#1428,.F.);
#1428 = EDGE_CURVE('',#365,#1421,#1429,.T.);
#1429 = LINE('',#1430,#1431);
#1430 = CARTESIAN_POINT('',(7.025,-19.075,0.));
#1431 = VECTOR('',#1432,1.);
#1432 = DIRECTION('',(0.,0.,1.));
#1433 = PLANE('',#1434);
#1434 = AXIS2_PLACEMENT_3D('',#1435,#1436,#1437);
#1435 = CARTESIAN_POINT('',(7.025,-32.075,0.));
#1436 = DIRECTION('',(-1.,-2.5E-16,0.));
#1437 = DIRECTION('',(-2.5E-16,1.,0.));
#1438 = ADVANCED_FACE('',(#1439),#1458,.F.);
#1439 = FACE_BOUND('',#1440,.F.);
#1440 = EDGE_LOOP('',(#1441,#1442,#1443,#1452));
#1441 = ORIENTED_EDGE('',*,*,#389,.T.);
#1442 = ORIENTED_EDGE('',*,*,#1404,.T.);
#1443 = ORIENTED_EDGE('',*,*,#1444,.F.);
#1444 = EDGE_CURVE('',#1445,#1397,#1447,.T.);
#1445 = VERTEX_POINT('',#1446);
#1446 = CARTESIAN_POINT('',(-5.975,-18.075,3.));
#1447 = CIRCLE('',#1448,1.);
#1448 = AXIS2_PLACEMENT_3D('',#1449,#1450,#1451);
#1449 = CARTESIAN_POINT('',(-5.975,-19.075,3.));
#1450 = DIRECTION('',(-0.,0.,1.));
#1451 = DIRECTION('',(0.,-1.,0.));
#1452 = ORIENTED_EDGE('',*,*,#1453,.F.);
#1453 = EDGE_CURVE('',#382,#1445,#1454,.T.);
#1454 = LINE('',#1455,#1456);
#1455 = CARTESIAN_POINT('',(-5.975,-18.075,0.));
#1456 = VECTOR('',#1457,1.);
#1457 = DIRECTION('',(0.,0.,1.));
#1458 = CYLINDRICAL_SURFACE('',#1459,1.);
#1459 = AXIS2_PLACEMENT_3D('',#1460,#1461,#1462);
#1460 = CARTESIAN_POINT('',(-5.975,-19.075,0.));
#1461 = DIRECTION('',(0.,0.,1.));
#1462 = DIRECTION('',(-2.5E-16,1.,0.));
#1463 = ADVANCED_FACE('',(#1464),#1483,.F.);
#1464 = FACE_BOUND('',#1465,.F.);
#1465 = EDGE_LOOP('',(#1466,#1467,#1475,#1482));
#1466 = ORIENTED_EDGE('',*,*,#372,.T.);
#1467 = ORIENTED_EDGE('',*,*,#1468,.T.);
#1468 = EDGE_CURVE('',#373,#1469,#1471,.T.);
#1469 = VERTEX_POINT('',#1470);
#1470 = CARTESIAN_POINT('',(6.025,-18.075,3.));
#1471 = LINE('',#1472,#1473);
#1472 = CARTESIAN_POINT('',(6.025,-18.075,0.));
#1473 = VECTOR('',#1474,1.);
#1474 = DIRECTION('',(0.,0.,1.));
#1475 = ORIENTED_EDGE('',*,*,#1476,.F.);
#1476 = EDGE_CURVE('',#1421,#1469,#1477,.T.);
#1477 = CIRCLE('',#1478,1.);
#1478 = AXIS2_PLACEMENT_3D('',#1479,#1480,#1481);
#1479 = CARTESIAN_POINT('',(6.025,-19.075,3.));
#1480 = DIRECTION('',(-0.,0.,1.));
#1481 = DIRECTION('',(0.,-1.,0.));
#1482 = ORIENTED_EDGE('',*,*,#1428,.F.);
#1483 = CYLINDRICAL_SURFACE('',#1484,1.);
#1484 = AXIS2_PLACEMENT_3D('',#1485,#1486,#1487);
#1485 = CARTESIAN_POINT('',(6.025,-19.075,0.));
#1486 = DIRECTION('',(0.,0.,1.));
#1487 = DIRECTION('',(1.,2.5E-16,0.));
#1488 = ADVANCED_FACE('',(#1489),#1500,.F.);
#1489 = FACE_BOUND('',#1490,.F.);
#1490 = EDGE_LOOP('',(#1491,#1492,#1493,#1499));
#1491 = ORIENTED_EDGE('',*,*,#381,.F.);
#1492 = ORIENTED_EDGE('',*,*,#1453,.T.);
#1493 = ORIENTED_EDGE('',*,*,#1494,.T.);
#1494 = EDGE_CURVE('',#1445,#1469,#1495,.T.);
#1495 = LINE('',#1496,#1497);
#1496 = CARTESIAN_POINT('',(-6.975,-18.075,3.));
#1497 = VECTOR('',#1498,1.);
#1498 = DIRECTION('',(1.,2.5E-16,0.));
#1499 = ORIENTED_EDGE('',*,*,#1468,.F.);
#1500 = PLANE('',#1501);
#1501 = AXIS2_PLACEMENT_3D('',#1502,#1503,#1504);
#1502 = CARTESIAN_POINT('',(-6.975,-18.075,0.));
#1503 = DIRECTION('',(-2.5E-16,1.,0.));
#1504 = DIRECTION('',(1.,2.5E-16,0.));
#1505 = ADVANCED_FACE('',(#1506),#1531,.F.);
#1506 = FACE_BOUND('',#1507,.F.);
#1507 = EDGE_LOOP('',(#1508,#1516,#1524,#1530));
#1508 = ORIENTED_EDGE('',*,*,#1509,.T.);
#1509 = EDGE_CURVE('',#422,#1510,#1512,.T.);
#1510 = VERTEX_POINT('',#1511);
#1511 = CARTESIAN_POINT('',(21.4,-42.4,3.));
#1512 = LINE('',#1513,#1514);
#1513 = CARTESIAN_POINT('',(21.4,-42.4,0.));
#1514 = VECTOR('',#1515,1.);
#1515 = DIRECTION('',(0.,0.,1.));
#1516 = ORIENTED_EDGE('',*,*,#1517,.T.);
#1517 = EDGE_CURVE('',#1510,#1518,#1520,.T.);
#1518 = VERTEX_POINT('',#1519);
#1519 = CARTESIAN_POINT('',(21.4,49.4,3.));
#1520 = LINE('',#1521,#1522);
#1521 = CARTESIAN_POINT('',(21.4,-44.4,3.));
#1522 = VECTOR('',#1523,1.);
#1523 = DIRECTION('',(0.,1.,0.));
#1524 = ORIENTED_EDGE('',*,*,#1525,.F.);
#1525 = EDGE_CURVE('',#431,#1518,#1526,.T.);
#1526 = LINE('',#1527,#1528);
#1527 = CARTESIAN_POINT('',(21.4,49.4,0.));
#1528 = VECTOR('',#1529,1.);
#1529 = DIRECTION('',(0.,0.,1.));
#1530 = ORIENTED_EDGE('',*,*,#430,.F.);
#1531 = PLANE('',#1532);
#1532 = AXIS2_PLACEMENT_3D('',#1533,#1534,#1535);
#1533 = CARTESIAN_POINT('',(21.4,-44.4,0.));
#1534 = DIRECTION('',(-1.,0.,0.));
#1535 = DIRECTION('',(0.,1.,0.));
#1536 = ADVANCED_FACE('',(#1537),#1556,.T.);
#1537 = FACE_BOUND('',#1538,.F.);
#1538 = EDGE_LOOP('',(#1539,#1540,#1541,#1549));
#1539 = ORIENTED_EDGE('',*,*,#1509,.F.);
#1540 = ORIENTED_EDGE('',*,*,#465,.F.);
#1541 = ORIENTED_EDGE('',*,*,#1542,.T.);
#1542 = EDGE_CURVE('',#455,#1543,#1545,.T.);
#1543 = VERTEX_POINT('',#1544);
#1544 = CARTESIAN_POINT('',(19.4,-44.4,3.));
#1545 = LINE('',#1546,#1547);
#1546 = CARTESIAN_POINT('',(19.4,-44.4,0.));
#1547 = VECTOR('',#1548,1.);
#1548 = DIRECTION('',(0.,0.,1.));
#1549 = ORIENTED_EDGE('',*,*,#1550,.F.);
#1550 = EDGE_CURVE('',#1510,#1543,#1551,.T.);
#1551 = CIRCLE('',#1552,2.);
#1552 = AXIS2_PLACEMENT_3D('',#1553,#1554,#1555);
#1553 = CARTESIAN_POINT('',(19.4,-42.4,3.));
#1554 = DIRECTION('',(-0.,-0.,-1.));
#1555 = DIRECTION('',(0.,-1.,0.));
#1556 = CYLINDRICAL_SURFACE('',#1557,2.);
#1557 = AXIS2_PLACEMENT_3D('',#1558,#1559,#1560);
#1558 = CARTESIAN_POINT('',(19.4,-42.4,0.));
#1559 = DIRECTION('',(0.,0.,1.));
#1560 = DIRECTION('',(1.,0.,0.));
#1561 = ADVANCED_FACE('',(#1562),#1581,.T.);
#1562 = FACE_BOUND('',#1563,.T.);
#1563 = EDGE_LOOP('',(#1564,#1565,#1566,#1574));
#1564 = ORIENTED_EDGE('',*,*,#1525,.F.);
#1565 = ORIENTED_EDGE('',*,*,#491,.T.);
#1566 = ORIENTED_EDGE('',*,*,#1567,.T.);
#1567 = EDGE_CURVE('',#483,#1568,#1570,.T.);
#1568 = VERTEX_POINT('',#1569);
#1569 = CARTESIAN_POINT('',(19.4,51.4,3.));
#1570 = LINE('',#1571,#1572);
#1571 = CARTESIAN_POINT('',(19.4,51.4,0.));
#1572 = VECTOR('',#1573,1.);
#1573 = DIRECTION('',(0.,0.,1.));
#1574 = ORIENTED_EDGE('',*,*,#1575,.F.);
#1575 = EDGE_CURVE('',#1518,#1568,#1576,.T.);
#1576 = CIRCLE('',#1577,2.);
#1577 = AXIS2_PLACEMENT_3D('',#1578,#1579,#1580);
#1578 = CARTESIAN_POINT('',(19.4,49.4,3.));
#1579 = DIRECTION('',(-0.,0.,1.));
#1580 = DIRECTION('',(0.,-1.,0.));
#1581 = CYLINDRICAL_SURFACE('',#1582,2.);
#1582 = AXIS2_PLACEMENT_3D('',#1583,#1584,#1585);
#1583 = CARTESIAN_POINT('',(19.4,49.4,0.));
#1584 = DIRECTION('',(0.,0.,1.));
#1585 = DIRECTION('',(1.,0.,0.));
#1586 = ADVANCED_FACE('',(#1587),#1605,.F.);
#1587 = FACE_BOUND('',#1588,.F.);
#1588 = EDGE_LOOP('',(#1589,#1597,#1603,#1604));
#1589 = ORIENTED_EDGE('',*,*,#1590,.T.);
#1590 = EDGE_CURVE('',#507,#1591,#1593,.T.);
#1591 = VERTEX_POINT('',#1592);
#1592 = CARTESIAN_POINT('',(-19.4,-44.4,3.));
#1593 = LINE('',#1594,#1595);
#1594 = CARTESIAN_POINT('',(-19.4,-44.4,0.));
#1595 = VECTOR('',#1596,1.);
#1596 = DIRECTION('',(0.,0.,1.));
#1597 = ORIENTED_EDGE('',*,*,#1598,.T.);
#1598 = EDGE_CURVE('',#1591,#1543,#1599,.T.);
#1599 = LINE('',#1600,#1601);
#1600 = CARTESIAN_POINT('',(-21.4,-44.4,3.));
#1601 = VECTOR('',#1602,1.);
#1602 = DIRECTION('',(1.,0.,0.));
#1603 = ORIENTED_EDGE('',*,*,#1542,.F.);
#1604 = ORIENTED_EDGE('',*,*,#515,.F.);
#1605 = PLANE('',#1606);
#1606 = AXIS2_PLACEMENT_3D('',#1607,#1608,#1609);
#1607 = CARTESIAN_POINT('',(-21.4,-44.4,0.));
#1608 = DIRECTION('',(0.,1.,0.));
#1609 = DIRECTION('',(1.,0.,0.));
#1610 = ADVANCED_FACE('',(#1611),#1629,.F.);
#1611 = FACE_BOUND('',#1612,.F.);
#1612 = EDGE_LOOP('',(#1613,#1614,#1622,#1628));
#1613 = ORIENTED_EDGE('',*,*,#1567,.T.);
#1614 = ORIENTED_EDGE('',*,*,#1615,.T.);
#1615 = EDGE_CURVE('',#1568,#1616,#1618,.T.);
#1616 = VERTEX_POINT('',#1617);
#1617 = CARTESIAN_POINT('',(-19.4,51.4,3.));
#1618 = LINE('',#1619,#1620);
#1619 = CARTESIAN_POINT('',(21.4,51.4,3.));
#1620 = VECTOR('',#1621,1.);
#1621 = DIRECTION('',(-1.,0.,0.));
#1622 = ORIENTED_EDGE('',*,*,#1623,.F.);
#1623 = EDGE_CURVE('',#533,#1616,#1624,.T.);
#1624 = LINE('',#1625,#1626);
#1625 = CARTESIAN_POINT('',(-19.4,51.4,0.));
#1626 = VECTOR('',#1627,1.);
#1627 = DIRECTION('',(0.,0.,1.));
#1628 = ORIENTED_EDGE('',*,*,#532,.F.);
#1629 = PLANE('',#1630);
#1630 = AXIS2_PLACEMENT_3D('',#1631,#1632,#1633);
#1631 = CARTESIAN_POINT('',(21.4,51.4,0.));
#1632 = DIRECTION('',(0.,-1.,0.));
#1633 = DIRECTION('',(-1.,0.,0.));
#1634 = ADVANCED_FACE('',(#1635),#1654,.T.);
#1635 = FACE_BOUND('',#1636,.F.);
#1636 = EDGE_LOOP('',(#1637,#1638,#1639,#1647));
#1637 = ORIENTED_EDGE('',*,*,#1590,.F.);
#1638 = ORIENTED_EDGE('',*,*,#567,.F.);
#1639 = ORIENTED_EDGE('',*,*,#1640,.T.);
#1640 = EDGE_CURVE('',#557,#1641,#1643,.T.);
#1641 = VERTEX_POINT('',#1642);
#1642 = CARTESIAN_POINT('',(-21.4,-42.4,3.));
#1643 = LINE('',#1644,#1645);
#1644 = CARTESIAN_POINT('',(-21.4,-42.4,0.));
#1645 = VECTOR('',#1646,1.);
#1646 = DIRECTION('',(0.,0.,1.));
#1647 = ORIENTED_EDGE('',*,*,#1648,.F.);
#1648 = EDGE_CURVE('',#1591,#1641,#1649,.T.);
#1649 = CIRCLE('',#1650,2.);
#1650 = AXIS2_PLACEMENT_3D('',#1651,#1652,#1653);
#1651 = CARTESIAN_POINT('',(-19.4,-42.4,3.));
#1652 = DIRECTION('',(-0.,-0.,-1.));
#1653 = DIRECTION('',(0.,-1.,0.));
#1654 = CYLINDRICAL_SURFACE('',#1655,2.);
#1655 = AXIS2_PLACEMENT_3D('',#1656,#1657,#1658);
#1656 = CARTESIAN_POINT('',(-19.4,-42.4,0.));
#1657 = DIRECTION('',(0.,0.,1.));
#1658 = DIRECTION('',(0.,-1.,0.));
#1659 = ADVANCED_FACE('',(#1660),#1679,.T.);
#1660 = FACE_BOUND('',#1661,.T.);
#1661 = EDGE_LOOP('',(#1662,#1663,#1664,#1672));
#1662 = ORIENTED_EDGE('',*,*,#1623,.F.);
#1663 = ORIENTED_EDGE('',*,*,#593,.T.);
#1664 = ORIENTED_EDGE('',*,*,#1665,.T.);
#1665 = EDGE_CURVE('',#585,#1666,#1668,.T.);
#1666 = VERTEX_POINT('',#1667);
#1667 = CARTESIAN_POINT('',(-21.4,49.4,3.));
#1668 = LINE('',#1669,#1670);
#1669 = CARTESIAN_POINT('',(-21.4,49.4,0.));
#1670 = VECTOR('',#1671,1.);
#1671 = DIRECTION('',(0.,0.,1.));
#1672 = ORIENTED_EDGE('',*,*,#1673,.F.);
#1673 = EDGE_CURVE('',#1616,#1666,#1674,.T.);
#1674 = CIRCLE('',#1675,2.);
#1675 = AXIS2_PLACEMENT_3D('',#1676,#1677,#1678);
#1676 = CARTESIAN_POINT('',(-19.4,49.4,3.));
#1677 = DIRECTION('',(-0.,0.,1.));
#1678 = DIRECTION('',(0.,-1.,0.));
#1679 = CYLINDRICAL_SURFACE('',#1680,2.);
#1680 = AXIS2_PLACEMENT_3D('',#1681,#1682,#1683);
#1681 = CARTESIAN_POINT('',(-19.4,49.4,0.));
#1682 = DIRECTION('',(0.,0.,1.));
#1683 = DIRECTION('',(0.,1.,0.));
#1684 = ADVANCED_FACE('',(#1685),#1696,.F.);
#1685 = FACE_BOUND('',#1686,.F.);
#1686 = EDGE_LOOP('',(#1687,#1688,#1694,#1695));
#1687 = ORIENTED_EDGE('',*,*,#1665,.T.);
#1688 = ORIENTED_EDGE('',*,*,#1689,.T.);
#1689 = EDGE_CURVE('',#1666,#1641,#1690,.T.);
#1690 = LINE('',#1691,#1692);
#1691 = CARTESIAN_POINT('',(-21.4,51.4,3.));
#1692 = VECTOR('',#1693,1.);
#1693 = DIRECTION('',(0.,-1.,0.));
#1694 = ORIENTED_EDGE('',*,*,#1640,.F.);
#1695 = ORIENTED_EDGE('',*,*,#609,.F.);
#1696 = PLANE('',#1697);
#1697 = AXIS2_PLACEMENT_3D('',#1698,#1699,#1700);
#1698 = CARTESIAN_POINT('',(-21.4,51.4,0.));
#1699 = DIRECTION('',(1.,0.,0.));
#1700 = DIRECTION('',(0.,-1.,0.));
#1701 = ADVANCED_FACE('',(#1702,#1712,#1722,#1732,#1735,#1738,#1741,
    #1744,#1754),#1764,.T.);
#1702 = FACE_BOUND('',#1703,.T.);
#1703 = EDGE_LOOP('',(#1704,#1705,#1706,#1707,#1708,#1709,#1710,#1711));
#1704 = ORIENTED_EDGE('',*,*,#634,.T.);
#1705 = ORIENTED_EDGE('',*,*,#690,.T.);
#1706 = ORIENTED_EDGE('',*,*,#732,.T.);
#1707 = ORIENTED_EDGE('',*,*,#781,.F.);
#1708 = ORIENTED_EDGE('',*,*,#806,.F.);
#1709 = ORIENTED_EDGE('',*,*,#763,.F.);
#1710 = ORIENTED_EDGE('',*,*,#708,.F.);
#1711 = ORIENTED_EDGE('',*,*,#665,.F.);
#1712 = FACE_BOUND('',#1713,.T.);
#1713 = EDGE_LOOP('',(#1714,#1715,#1716,#1717,#1718,#1719,#1720,#1721));
#1714 = ORIENTED_EDGE('',*,*,#830,.F.);
#1715 = ORIENTED_EDGE('',*,*,#861,.T.);
#1716 = ORIENTED_EDGE('',*,*,#904,.T.);
#1717 = ORIENTED_EDGE('',*,*,#952,.F.);
#1718 = ORIENTED_EDGE('',*,*,#1002,.T.);
#1719 = ORIENTED_EDGE('',*,*,#984,.F.);
#1720 = ORIENTED_EDGE('',*,*,#928,.F.);
#1721 = ORIENTED_EDGE('',*,*,#886,.F.);
#1722 = FACE_BOUND('',#1723,.T.);
#1723 = EDGE_LOOP('',(#1724,#1725,#1726,#1727,#1728,#1729,#1730,#1731));
#1724 = ORIENTED_EDGE('',*,*,#1517,.T.);
#1725 = ORIENTED_EDGE('',*,*,#1575,.T.);
#1726 = ORIENTED_EDGE('',*,*,#1615,.T.);
#1727 = ORIENTED_EDGE('',*,*,#1673,.T.);
#1728 = ORIENTED_EDGE('',*,*,#1689,.T.);
#1729 = ORIENTED_EDGE('',*,*,#1648,.F.);
#1730 = ORIENTED_EDGE('',*,*,#1598,.T.);
#1731 = ORIENTED_EDGE('',*,*,#1550,.F.);
#1732 = FACE_BOUND('',#1733,.T.);
#1733 = EDGE_LOOP('',(#1734));
#1734 = ORIENTED_EDGE('',*,*,#1025,.F.);
#1735 = FACE_BOUND('',#1736,.T.);
#1736 = EDGE_LOOP('',(#1737));
#1737 = ORIENTED_EDGE('',*,*,#1050,.F.);
#1738 = FACE_BOUND('',#1739,.T.);
#1739 = EDGE_LOOP('',(#1740));
#1740 = ORIENTED_EDGE('',*,*,#1075,.F.);
#1741 = FACE_BOUND('',#1742,.T.);
#1742 = EDGE_LOOP('',(#1743));
#1743 = ORIENTED_EDGE('',*,*,#1100,.F.);
#1744 = FACE_BOUND('',#1745,.T.);
#1745 = EDGE_LOOP('',(#1746,#1747,#1748,#1749,#1750,#1751,#1752,#1753));
#1746 = ORIENTED_EDGE('',*,*,#1126,.T.);
#1747 = ORIENTED_EDGE('',*,*,#1182,.T.);
#1748 = ORIENTED_EDGE('',*,*,#1224,.T.);
#1749 = ORIENTED_EDGE('',*,*,#1273,.F.);
#1750 = ORIENTED_EDGE('',*,*,#1298,.F.);
#1751 = ORIENTED_EDGE('',*,*,#1255,.F.);
#1752 = ORIENTED_EDGE('',*,*,#1200,.F.);
#1753 = ORIENTED_EDGE('',*,*,#1157,.F.);
#1754 = FACE_BOUND('',#1755,.T.);
#1755 = EDGE_LOOP('',(#1756,#1757,#1758,#1759,#1760,#1761,#1762,#1763));
#1756 = ORIENTED_EDGE('',*,*,#1322,.F.);
#1757 = ORIENTED_EDGE('',*,*,#1353,.T.);
#1758 = ORIENTED_EDGE('',*,*,#1396,.T.);
#1759 = ORIENTED_EDGE('',*,*,#1444,.F.);
#1760 = ORIENTED_EDGE('',*,*,#1494,.T.);
#1761 = ORIENTED_EDGE('',*,*,#1476,.F.);
#1762 = ORIENTED_EDGE('',*,*,#1420,.F.);
#1763 = ORIENTED_EDGE('',*,*,#1378,.F.);
#1764 = PLANE('',#1765);
#1765 = AXIS2_PLACEMENT_3D('',#1766,#1767,#1768);
#1766 = CARTESIAN_POINT('',(3.9E-15,3.5,3.));
#1767 = DIRECTION('',(0.,0.,1.));
#1768 = DIRECTION('',(1.,0.,0.));
#1769 = ( GEOMETRIC_REPRESENTATION_CONTEXT(3) 
GLOBAL_UNCERTAINTY_ASSIGNED_CONTEXT((#1773)) 
GLOBAL_UNIT_ASSIGNED_CONTEXT((#1770,#1771,#1772)) REPRESENTATION_CONTEXT
('Context #1','3D Context with UNIT and UNCERTAINTY') );
#1770 = ( LENGTH_UNIT() NAMED_UNIT(*) SI_UNIT(.MILLI.,.METRE.) );
#1771 = ( NAMED_UNIT(*) PLANE_ANGLE_UNIT() SI_UNIT($,.RADIAN.) );
#1772 = ( NAMED_UNIT(*) SI_UNIT($,.STERADIAN.) SOLID_ANGLE_UNIT() );
#1773 = UNCERTAINTY_MEASURE_WITH_UNIT(LENGTH_MEASURE(1.E-07),#1770,
  'distance_accuracy_value','confusion accuracy');
#1774 = PRODUCT_RELATED_PRODUCT_CATEGORY('part',$,(#7));
#1775 = MECHANICAL_DESIGN_GEOMETRIC_PRESENTATION_REPRESENTATION('',(
    #1776),#1769);
#1776 = STYLED_ITEM('color',(#1777),#15);
#1777 = PRESENTATION_STYLE_ASSIGNMENT((#1778,#1784));
#1778 = SURFACE_STYLE_USAGE(.BOTH.,#1779);
#1779 = SURFACE_SIDE_STYLE('',(#1780));
#1780 = SURFACE_STYLE_FILL_AREA(#1781);
#1781 = FILL_AREA_STYLE('',(#1782));
#1782 = FILL_AREA_STYLE_COLOUR('',#1783);
#1783 = COLOUR_RGB('',0.447058818107,0.474509808674,0.501960817233);
#1784 = CURVE_STYLE('',#1785,POSITIVE_LENGTH_MEASURE(0.1),#1786);
#1785 = DRAUGHTING_PRE_DEFINED_CURVE_FONT('continuous');
#1786 = COLOUR_RGB('',9.803921802644E-02,9.803921802644E-02,
  9.803921802644E-02);
ENDSEC;
END-ISO-10303-21;
